<svg xmlns="http://www.w3.org/2000/svg" width="125.01" height="42.17" viewBox="0 0 125.01 42.17"><defs><style>.cls-1{fill:#fff;}</style></defs><g id="Agripac"><path class="cls-1" d="M28.88.6,22.7,32.72H15.4L16.67,27,11,26.82l-3,5.9H0L16,.6ZM17.62,19.12c.66-3.64,1.18-6,2.35-11.36-2.63,6.15-4.07,8.51-5.12,11.36Z"/><path class="cls-1" d="M47.75,8.2,42.11,28.11c-.76,2.69-2.72,8.08-3.06,8.87a7.7,7.7,0,0,1-1.95,2.49,9.58,9.58,0,0,1-3.54,2,16,16,0,0,1-5,.69,9.18,9.18,0,0,1-5.33-1.27c-1.2-.86-1.08-4.16-.41-6.66H30c-.33,1.15-.48,3.35.31,3.35a1.51,1.51,0,0,0,1.27-.53,53.33,53.33,0,0,0,2.31-5.85l.55-1.95a10.67,10.67,0,0,1-2.4,1.39,6.47,6.47,0,0,1-2.35.47,4.72,4.72,0,0,1-3-.86A3,3,0,0,1,25.54,28a13.12,13.12,0,0,1,.66-4l2.69-9.39a11.54,11.54,0,0,1,2.76-5.3A6,6,0,0,1,35.9,7.73a4.38,4.38,0,0,1,2.36.6,4,4,0,0,1,1.52,1.82l1.09-2Zm-9.36,6.86a8.83,8.83,0,0,0,.45-2.26c0-.33-.27-.49-.71-.49a1.29,1.29,0,0,0-1.07.55,7.32,7.32,0,0,0-.89,2.2l-2.48,8.69A8.25,8.25,0,0,0,33.25,26c0,.34.27.52.7.52a1.25,1.25,0,0,0,1.13-.63,12.82,12.82,0,0,0,1-2.82Z"/><path class="cls-1" d="M57.33,8.31l-1.24,3.21q2.63-3.45,5.75-3.66l-2.55,8.6a7.29,7.29,0,0,0-3.16.55,3.59,3.59,0,0,0-1.63,1.54,33.78,33.78,0,0,0-1.57,4.53l-2.87,9.64H42.64l7.3-24.41Z"/><path class="cls-1" d="M81.49,8.31l-.76,2.15a10.42,10.42,0,0,1,2.75-2,6.53,6.53,0,0,1,2.78-.65A3.79,3.79,0,0,1,89,8.79a2.75,2.75,0,0,1,.94,2.15A20.26,20.26,0,0,1,89,15.06L86,25.35a23,23,0,0,1-1.77,4.73A5.91,5.91,0,0,1,82,32.33a6.31,6.31,0,0,1-3.19.84,4.25,4.25,0,0,1-2.37-.65,4.5,4.5,0,0,1-1.59-1.92L72.2,39.33H64.77l9.2-31Zm0,7.1a14,14,0,0,0,.64-2.74q0-.48-.78-.48a1.22,1.22,0,0,0-1.1.55,12.25,12.25,0,0,0-1,2.67l-3,10.12a10.29,10.29,0,0,0-.58,2.76c0,.37.3.55.79.55a1.16,1.16,0,0,0,1-.5,12.68,12.68,0,0,0,.89-2.46Z"/><path class="cls-1" d="M124.24,17.53h-6.56l.75-2.82a5.63,5.63,0,0,0,.31-2c0-.35-.28-.52-.68-.52a1.07,1.07,0,0,0-.93.46,7.67,7.67,0,0,0-.76,2.06L113.3,26.23a4.66,4.66,0,0,0-.21,2,.71.71,0,0,0,.74.65,1.29,1.29,0,0,0,1.14-.68,10.88,10.88,0,0,0,.93-2.57l.78-2.91h6.19c-.53,1.95-1,3.41-1.36,4.39a10.19,10.19,0,0,1-2,3,9.18,9.18,0,0,1-3.16,2.31,9.92,9.92,0,0,1-4.09.79,7.28,7.28,0,0,1-4.38-1.08,4.09,4.09,0,0,1-1.63-3,16.49,16.49,0,0,1,.76-5.51l1.86-6.94a17.38,17.38,0,0,1,1.84-4.69A8.76,8.76,0,0,1,114,9.11a10,10,0,0,1,5-1.25,6.9,6.9,0,0,1,4.31,1.24A4.19,4.19,0,0,1,125,12.21,17.74,17.74,0,0,1,124.24,17.53Z"/><path class="cls-1" d="M103.14,8.66l-.67,3.14c-5.31-8.42-9.73,0-9.73,0-2.22,3.71-4.64,15.47-4.64,15.47C86.9,35.76,96,32.05,96,32.05l-.11.86,7,.1,7.73-24.24Zm-1.94,6.18-3.07,12A1.51,1.51,0,0,1,96.25,28a1.62,1.62,0,0,1-1.09-2l3.07-12a1.52,1.52,0,0,1,1.88-1.13A1.63,1.63,0,0,1,101.2,14.84Z"/><path class="cls-1" d="M71.62,8.31l-7.2,24.41H56.78L64,8.31Z"/><path class="cls-1" d="M73.9,3.45C73.9,5.3,72,6.8,69.71,6.8s-4.19-1.5-4.19-3.35S67.39.1,69.71.1,73.9,1.6,73.9,3.45Z"/></g></svg>