<svg xmlns="http://www.w3.org/2000/svg" width="137.06" height="55.54" viewBox="0 0 137.06 55.54"><defs><style>.cls-1{fill:#fff;}</style></defs><g id="ESPOL"><path class="cls-1" d="M40.37,40.15v-4c1.42-.18,2.81-.26,4.16-.55a7.47,7.47,0,0,0,6.19-6.7A7.35,7.35,0,0,0,46.77,21a7.36,7.36,0,0,0-9.05,1.05c-5.62,5.05-11,10.32-16.65,15.37A12.7,12.7,0,1,1,6.17,17a12.08,12.08,0,0,1,17.4,5.17C19.42,29.07,13.14,31,5.33,29.39l-.57,1.38c1.61,1.5,3,3.36,4.87,4.42,2.95,1.68,5.84.66,8.23-1.52,5.38-4.92,10.66-10,16.06-14.86s13.49-4.72,18.22.51a12.56,12.56,0,0,1-.89,17.9A11.21,11.21,0,0,1,40.37,40.15ZM18.26,22.34c-5.29-4.26-10.7-3-12.64,3.08C10,24.59,14.77,27.4,18.26,22.34Z"/><path class="cls-1" d="M65.54,38.1V55.54H61.2c0-10.24-.5-20.41.17-30.49.46-7,8.1-11.2,15.34-9.48a12.52,12.52,0,0,1,9,15.41c-2.14,7.25-9.28,11.15-16.23,8.83C68.42,39.45,67.38,38.9,65.54,38.1Zm7.84-18.47a8.25,8.25,0,0,0-7.85,8.48,8.15,8.15,0,0,0,8.12,7.77,8.35,8.35,0,0,0,7.95-8A8.44,8.44,0,0,0,73.38,19.63Z"/><path class="cls-1" d="M116.89,27.72a12.59,12.59,0,1,1-25.17.07,12.59,12.59,0,1,1,25.17-.07Zm-12.68-8.1a8.05,8.05,0,0,0-7.88,8.07,7.87,7.87,0,0,0,7.81,8.06,8,8,0,0,0,8.16-8.17A8.32,8.32,0,0,0,104.21,19.62Z"/><path class="cls-1" d="M122.48,0h4.57V24.92c0,7.56,2.24,10.06,10,10.85v4.29c-7.31,1-14.14-3.72-14.47-10.81C122.14,19.65,122.48,10,122.48,0Z"/></g></svg>