<svg xmlns="http://www.w3.org/2000/svg" width="92.97" height="65.87" viewBox="0 0 92.97 65.87"><defs><style>.cls-1{fill:#fff;}</style></defs><g id="Ferpacific"><path class="cls-1" d="M27,12.55c7.23,1.3,13.82,3.37,17.69,10.17a9.85,9.85,0,0,1,1.05,8.16,20.53,20.53,0,0,1-2.32,3.84L33.6,21.81l-.3.21,8.6,13.17c-2.21,1.69-4.51,1.71-6.95,1-3.75-1-6.09-3.58-7.6-7C24.93,23.81,25.38,18.27,27,12.55Z"/><path class="cls-1" d="M59.22,22.1,49.93,34.36A6,6,0,0,1,47,29.77c-.67-5.84,2.38-9.85,6.84-12.94A24.94,24.94,0,0,1,65,12.8c.39-.05,1.17.28,1.24.56,1.63,6.7,2,13.29-2.57,19.13a9.89,9.89,0,0,1-10.13,3.88,13.17,13.17,0,0,1-2.51-1l8.47-13Z"/><path class="cls-1" d="M37.85,14.27,26.2,11.08l-1.28,4.43a10.26,10.26,0,0,1-.18-1.24c0-2.78-.06-5.56,0-8.34,0-3.57,2.07-5.73,5.62-5.78,5-.06,9.94,0,15.41,0A17.59,17.59,0,0,0,37.85,14.27Z"/><path class="cls-1" d="M68.06,15.26,66.85,11.1,55.4,14.18c-.56-5.63-2.88-10.54-8.25-14C47.84.07,48.22,0,48.59,0c4.56,0,9.12,0,13.67-.08,3.28-.08,6.19,2.12,6,5.9-.15,3-.06,6-.08,9A3,3,0,0,1,68.06,15.26Z"/><path class="cls-1" d="M46.36,8.35Q46,15,45.75,21.66a21.91,21.91,0,0,0-6.32-6.12A1.59,1.59,0,0,1,39,14.31a16.26,16.26,0,0,1,6.5-12.59,1.35,1.35,0,0,1,1.89,0,16.07,16.07,0,0,1,6.71,12.15,1.81,1.81,0,0,1-.55,1.42,26.16,26.16,0,0,0-6.39,6.46l-.57-13.4Z"/><path class="cls-1" d="M24.94,26c.23.75.4,1.36.62,2,1.53,4.25,4,7.66,8.48,9.19,4.82,1.63,8.52,0,11.82-3.77.23-.27.41-.58.62-.88,2.75,3.51,6,6,10.71,5.12C63.42,36.43,66.35,32,68.09,26c0,3.51.23,6.66-.08,9.77-.22,2.29-2.57,3.76-5.17,3.79-4.86,0-9.73.07-14.59.09-5.8,0-11.6.06-17.4.06-4,0-6.12-2.11-6.14-6.09,0-2.42,0-4.83,0-7.25C24.72,26.29,24.79,26.22,24.94,26Z"/><path class="cls-1" d="M34.43,60c0,1.13-.06,2.17,0,3.2.19,2.55-1.18,2.88-3.16,2.49,0-.25-.06-.51-.06-.77,0-3.51,0-7,0-10.51,0-2.14.54-4,2.74-4.92,2.42-1,4.84-1.19,7,.45,3,2.26,2.52,9-.68,10.92C38.53,62,36.61,61.71,34.43,60Zm-.07-5a16.86,16.86,0,0,0,.28,1.77,2.48,2.48,0,0,0,4.85,0A5.66,5.66,0,0,0,39.3,53a2.26,2.26,0,0,0-2.38-1.4,2.18,2.18,0,0,0-2.18,1.55A15.43,15.43,0,0,0,34.36,55.05Z"/><path class="cls-1" d="M23.55,56H15.38a2.34,2.34,0,0,0,1.15,2.51,2.21,2.21,0,0,0,2.7-.12c1.16-1.22,2.49-.82,3.82-.88a4.59,4.59,0,0,1-3.76,3.83c-4,.92-7-1.26-7.26-5.31a11.75,11.75,0,0,1,.23-3.24,5,5,0,0,1,5-4c2.78-.13,4.88,1.1,5.64,3.5A26.22,26.22,0,0,1,23.55,56Zm-3.62-2.18c-.09-1.67-1-2.46-2.57-2.31a2,2,0,0,0-1.88,2.41h3.87A3.69,3.69,0,0,0,19.93,53.83Z"/><path class="cls-1" d="M11.63,45.46v2.69H3.36v3.43h6c.47,1.79-.19,2.71-1.87,2.72-1.1,0-2.19,0-3.29,0-.7,0-1,.19-.94.92,0,2,0,3.94,0,6H.06c0-.33-.06-.69-.06-1.05V47.81c0-1.86.5-2.35,2.39-2.35Z"/><path class="cls-1" d="M43.6,52.2a3.42,3.42,0,0,1,2.29-2.94,8,8,0,0,1,6,.15,2.73,2.73,0,0,1,1.81,2.53c0,1.87,0,3.74-.08,5.6a3.75,3.75,0,0,1-3.05,3.56,13.49,13.49,0,0,1-4.25.27,3.2,3.2,0,0,1-3.06-3.06c-.2-2.21.44-3.4,2.4-4.07a31.36,31.36,0,0,1,3.2-.68c.75-.18,1.81-.21,1.72-1.24s-1.16-.89-1.92-.94a2.15,2.15,0,0,0-1.37.27C46.15,52.59,44.9,52,43.6,52.2Zm7,3.1-3.16.78a1.41,1.41,0,0,0-1.15,1.67c.08.91.69,1.25,1.55,1.27C49.88,59.07,50.9,57.74,50.61,55.3Z"/><path class="cls-1" d="M92.9,52.77c-1,0-1.92,0-2.8,0a1.05,1.05,0,0,1-.66-.37,2.51,2.51,0,0,0-2.7-.79,2,2,0,0,0-1.62,2,11.84,11.84,0,0,0,.2,3.62,2.35,2.35,0,0,0,3.74,1.15c1.21-1.17,2.49-.78,3.91-.88a4.75,4.75,0,0,1-3.24,3.66c-4,1.47-7.56-.82-7.93-5.16a10.28,10.28,0,0,1,0-1.84c.38-4.25,3.92-6.46,8-5A5,5,0,0,1,92.9,52.77Z"/><path class="cls-1" d="M65,52.77c-1,0-1.93,0-2.84,0a.88.88,0,0,1-.57-.35,2.46,2.46,0,0,0-2.68-.8,2.07,2.07,0,0,0-1.64,2,12,12,0,0,0,0,3.22,2.48,2.48,0,0,0,4.29,1.26c1-1,2.26-.39,3.51-.61a4.73,4.73,0,0,1-3.2,3.67c-4.05,1.51-7.67-.82-8-5.1a8,8,0,0,1,.78-4.66c1.12-2,3.12-2.85,5.82-2.52A4.91,4.91,0,0,1,65,52.77Z"/><path class="cls-1" d="M75.68,47.93c-2,.39-2,.39-1.85,1.82l1.76.1c.35,1.43,0,1.95-1.84,2.32v9.07H70.56V49.71c0-3.68,1.37-4.8,5.12-4.13Z"/><path class="cls-1" d="M27.19,61.24H24a69.32,69.32,0,0,1,0-7.5,5.54,5.54,0,0,1,6.79-4.53v3l-1.28.07c-1.58.11-2.32.8-2.37,2.37,0,1.77,0,3.54,0,5.31Z"/><path class="cls-1" d="M69.22,61.23H66V49.12a13.43,13.43,0,0,1,2,0,1.38,1.38,0,0,1,1.22,1.43C69.23,54.1,69.22,57.64,69.22,61.23Z"/><path class="cls-1" d="M77.48,49.08c.63,0,1.17,0,1.71,0a1.44,1.44,0,0,1,1.51,1.49c0,3.53,0,7.06,0,10.65H77.48Z"/><path class="cls-1" d="M69.12,48H66V45.59C68.48,45.12,69.43,45.83,69.12,48Z"/><path class="cls-1" d="M80.63,48H77.49V45.6C79.94,45.1,80.92,45.84,80.63,48Z"/></g></svg>