<svg xmlns="http://www.w3.org/2000/svg" width="72.84" height="72.85" viewBox="0 0 72.84 72.85"><defs><style>.cls-1{fill:#fff;}</style></defs><g id="Lalitya"><path class="cls-1" d="M34.33,28.07V46.29l-.8.09A4.25,4.25,0,0,1,29.87,45a6.68,6.68,0,0,1-1.26-2.33c-.09-.26-.16-.53-.25-.8a.43.43,0,0,0-.27.48v4.14c0,.09,0,.19,0,.29H36v-19H32.13l0,.3Zm6.32,18.68.06-.11a1.21,1.21,0,0,0-.3-.11l-2-.14V28.62c0-.05,0-.11,0-.15s.1-.18.16-.19a4.74,4.74,0,0,1,3.94.83,7.31,7.31,0,0,1,2,2.74l.3.66V27.82H36.9V46.75Z"/><path class="cls-1" d="M34.33,28.07H32.11l0-.3H36v19H28.1c0-.1,0-.2,0-.29V42.33a.43.43,0,0,1,.27-.48c.09.27.16.54.25.8A6.68,6.68,0,0,0,29.87,45a4.25,4.25,0,0,0,3.66,1.4l.8-.09Z"/><path class="cls-1" d="M40.65,46.75H36.9V27.82h7.88v4.69l-.3-.66a7.31,7.31,0,0,0-2-2.74,4.74,4.74,0,0,0-3.94-.83c-.06,0-.12.12-.16.19s0,.1,0,.15V46.39l2,.14a1.21,1.21,0,0,1,.3.11Z"/><path class="cls-1" d="M36.42,72.86a8.88,8.88,0,0,1-4.84-1.49,11.79,11.79,0,0,0-3.72-1.59,34.9,34.9,0,0,1-9.56-4.06,9.7,9.7,0,0,0-3.06-1.19,8.75,8.75,0,0,1-4.67-2.46,8.46,8.46,0,0,1-2.19-4.19A12.72,12.72,0,0,0,6.81,54a34.87,34.87,0,0,1-4-9.88,7.34,7.34,0,0,0-1.07-2.39A9.72,9.72,0,0,1,.09,37.62a8.63,8.63,0,0,1,1-5.43A9.52,9.52,0,0,1,1.82,31a6.86,6.86,0,0,0,1-2.32,35.25,35.25,0,0,1,4.3-10.4,9,9,0,0,0,1.19-3.06A8.43,8.43,0,0,1,11,10.38a9.37,9.37,0,0,1,4.67-2.17A6.88,6.88,0,0,0,18,7.3,35.51,35.51,0,0,1,28.91,2.79a5.71,5.71,0,0,0,2-.89A10.08,10.08,0,0,1,35.13.11,8.38,8.38,0,0,1,40.2.9a10.2,10.2,0,0,1,1.48.83,8.88,8.88,0,0,0,2.13,1c2.19.75,4.4,1.45,6.54,2.3,1.72.68,3.37,1.56,5,2.35A26.37,26.37,0,0,0,59.51,9a6.35,6.35,0,0,1,4.1,3.59,20.56,20.56,0,0,1,1.15,3.59,6.24,6.24,0,0,0,.68,1.67A36.92,36.92,0,0,1,70,28.53a9.77,9.77,0,0,0,1.15,2.65,12.68,12.68,0,0,1,1.56,3.53,7.92,7.92,0,0,1-.61,5.16c-.17.35-.32.7-.52,1a17.51,17.51,0,0,0-2,4.8,33.53,33.53,0,0,1-4,9,8.06,8.06,0,0,0-1.08,2.83A8.34,8.34,0,0,1,61.23,63a10,10,0,0,1-3.83,1.61,8.92,8.92,0,0,0-2.69,1,37.72,37.72,0,0,1-9.06,4c-.56.16-1.12.29-1.68.43a6.05,6.05,0,0,0-2,.91,10.08,10.08,0,0,1-4.49,1.83C37.1,72.82,36.76,72.83,36.42,72.86Zm0-70.15c-1.37,0-2.78.07-4.18.16A5.73,5.73,0,0,0,28.6,4.34a7.69,7.69,0,0,1-.7.58,18.17,18.17,0,0,1-9.06,3.46,4.27,4.27,0,0,0-2.66,1.08l-6.3,6.27a4.1,4.1,0,0,0-1.31,2c-.08.41-.14.83-.2,1.25A19.91,19.91,0,0,1,4.13,29,5.23,5.23,0,0,0,3,31.79a56.85,56.85,0,0,0-.27,7.26A9.57,9.57,0,0,0,5.09,45.3a12,12,0,0,1,1.46,2.18,17.85,17.85,0,0,1,1.75,6.2,6.06,6.06,0,0,0,1,2.78,31.55,31.55,0,0,0,6.91,7,4.87,4.87,0,0,0,2.43,1A20,20,0,0,1,29.39,69a3.19,3.19,0,0,0,1.57.75c.76.1,1.53.15,2.3.2a48.46,48.46,0,0,0,7.62,0,5,5,0,0,0,2.94-1.18,18.1,18.1,0,0,1,10.25-4.34,4.44,4.44,0,0,0,2.73-1.21c2.19-2.18,4.35-4.38,6.54-6.57a3.24,3.24,0,0,0,1-2.06l.12-1.05A19.64,19.64,0,0,1,69,43.44a2.91,2.91,0,0,0,.71-1.55c.14-1,.25-2.09.35-3.14a17,17,0,0,0,.15-2.13c0-1.27-.12-2.54-.21-3.81a7.14,7.14,0,0,0-1.68-4.43,14.42,14.42,0,0,1-3-5.62c-.36-1.32-.57-2.67-.83-4A6,6,0,0,0,63,15.7c-1.92-2.07-3.94-4-6-6a5,5,0,0,0-2.86-1.34c-.66-.09-1.32-.19-2-.32A16.46,16.46,0,0,1,44.21,4.3a5.81,5.81,0,0,0-3.52-1.43C39.27,2.77,37.85,2.76,36.4,2.71Zm-4.29,68a6.92,6.92,0,0,0,8.65,0Zm-30-30V32.07A7,7,0,0,0,2.13,40.75ZM28,69.4a.35.35,0,0,0-.06-.57,15.28,15.28,0,0,0-8.46-3.54c-.23,0-.48-.09-.48.32Zm16.85,0,9-3.77c-.12-.37-.12-.37-.42-.34a15.27,15.27,0,0,0-8.51,3.56C44.68,69,44.65,69.17,44.84,69.4Zm.1-65.89c-.17.22-.17.37,0,.55a15.24,15.24,0,0,0,8.3,3.5c.3,0,.45-.06.49-.39ZM7.53,19.19a26.37,26.37,0,0,0-3.8,9A14.76,14.76,0,0,0,7.53,19.19Zm63.23,13v8.5A6.9,6.9,0,0,0,70.76,32.18Zm-5.41,21.4a25.75,25.75,0,0,0,3.74-8.85A14.06,14.06,0,0,0,65.35,53.58ZM32.25,2.08h8.51C38.06.13,34.48.1,32.25,2.08ZM7.49,53.6c0-2.79-2-7.49-3.86-9C4,46.82,6.37,52.37,7.49,53.6ZM65.27,19c.26,3.5,2.11,7.88,3.76,8.94A29.5,29.5,0,0,0,65.27,19ZM27.94,3.82a26.55,26.55,0,0,0-8.62,3.63A13.51,13.51,0,0,0,27.94,3.82ZM14.64,9.2a5.74,5.74,0,0,0-3.71,2,6.11,6.11,0,0,0-1.65,3.31Zm43.74,0,5.21,5.3C63.25,12,60.67,9.33,58.38,9.22Zm-.12,54.37c2.36-.15,5.3-3,5.31-5.16Zm-43.83,0L9.32,58.4l-.07.08A6.67,6.67,0,0,0,14.43,63.61Z"/></g></svg>