<svg xmlns="http://www.w3.org/2000/svg" width="126.36" height="72.65" viewBox="0 0 126.36 72.65"><defs><style>.cls-1{fill:#fff;}</style></defs><g id="Mariscal"><path class="cls-1" d="M0,72.65V.55H1L42.65.26,71,0c1.36,0,1.24-.19,1.24,1.19V34.91H69.71c0-.29,0-.6,0-.91V3.8c0-1.21,0-1.2-1.19-1.19Q48.4,2.79,28.33,3C20,3,11.7,3.05,3.39,3.11c-.26,0-.52,0-.82.05v67h67V55.9h2.54V72.65Z"/><path class="cls-1" d="M26,44.85c-.14.36-.29.72-.42,1.08q-1,2.72-1.93,5.42l0,.08c-.25.6-.38,1.58-.79,1.72a9.42,9.42,0,0,1-2.78.08l5.58-15.74.2-.06,4.79,9.9a50.12,50.12,0,0,0,2.57-5c.85-1.62,1.57-3.31,2.47-5.22l5.69,16.11a20.8,20.8,0,0,1-2.66,0c-.26,0-.54-.51-.66-.84-.79-2.21-1.53-4.44-2.31-6.66a6.92,6.92,0,0,0-.54-1l-4.49,8.5-4.4-8.33Z"/><path class="cls-1" d="M68.77,53.25c-1.13,0-2,0-3,0a1.31,1.31,0,0,1-.74-.61c-.91-1.49-1.78-3-2.68-4.51-.09-.15-.3-.23-.46-.34-.09.17-.26.35-.26.52,0,1.4,0,2.81,0,4.21,0,.61-.19.81-.78.77s-1.28,0-2,0V37.36a42.75,42.75,0,0,1,5.67.06,4.62,4.62,0,0,1,3.46,3,5.22,5.22,0,0,1-2.32,6.6.73.73,0,0,0-.18.69c.38.75.84,1.45,1.27,2.18ZM61.69,42.43h0c0,.62,0,1.24,0,1.86,0,.44.19.64.63.62.24,0,.48,0,.72,0a2.86,2.86,0,0,0,2.43-1.68,2.34,2.34,0,0,0-1.18-2.87A7.74,7.74,0,0,0,62.23,40c-.43-.07-.55.19-.55.58C61.7,41.19,61.69,41.81,61.69,42.43Z"/><path class="cls-1" d="M100.29,50a8.4,8.4,0,0,1-7.41,3.68,8.09,8.09,0,0,1-7.33-4.72,8.2,8.2,0,0,1,1.12-9.33,8.09,8.09,0,0,1,5.11-2.87,8.62,8.62,0,0,1,6.65,1.71,7.22,7.22,0,0,1,1.33,1.26.72.72,0,0,1-.13.69,13.22,13.22,0,0,1-1.41,1c-.35.23-.57.19-.93-.17a5.65,5.65,0,0,0-9.74,4.5,5.3,5.3,0,0,0,3.29,4.5,5.78,5.78,0,0,0,5.86-.61L97,49.4c1.16-1,1.16-1,2.37-.13Z"/><path class="cls-1" d="M109.27,37.14c2.69,5.45,5.29,10.71,8,16.12-1,0-1.94,0-2.85,0-.22,0-.47-.34-.59-.58-.44-.85-.79-1.76-1.26-2.59a1.28,1.28,0,0,0-.9-.46c-1.4-.05-2.81,0-4.21,0a1.22,1.22,0,0,0-1.3.8c-.45.94-.87,1.89-1.33,2.87h-3.11Zm1.64,9.77-1.61-3.24-1.46,3.24Z"/><path class="cls-1" d="M58.07,53.25c-1.07,0-1.9,0-2.73,0a.84.84,0,0,1-.55-.42c-.52-1-1-1.93-1.53-2.87a.82.82,0,0,0-.61-.35c-1.59,0-3.18,0-4.77,0a1.11,1.11,0,0,0-.75.51c-.5.91-.92,1.86-1.4,2.78a.75.75,0,0,1-.54.34c-.82,0-1.65,0-2.65,0l7.6-16.07C52.82,42.62,55.4,47.85,58.07,53.25ZM50.32,43.9l-.25.05-1.42,2.92h3.18Z"/><path class="cls-1" d="M80.73,41c-1.11-1.13-2.15-1.33-3.07-.62A1.64,1.64,0,0,0,77.89,43a14.1,14.1,0,0,0,2.38.87,5.06,5.06,0,0,1,3.37,4.35,4.87,4.87,0,0,1-3,4.59c-3.14,1.41-7-1-7.07-4.07l2.62-.3a2.44,2.44,0,0,0,2.57,1.86,1.93,1.93,0,0,0,2-1.75c.11-.61-.71-1.71-1.47-2S77.81,46,77,45.7a4.57,4.57,0,0,1-2.76-4.76,4.37,4.37,0,0,1,3.89-3.72A4.92,4.92,0,0,1,82.73,39c.4.5.36.75-.25,1A17.55,17.55,0,0,0,80.73,41Z"/><path class="cls-1" d="M118,37.19h2.37c.61,0,.49.46.49.81,0,3.78,0,7.56,0,11.33,0,.81.25,1,1,1,1.24-.06,2.48,0,3.72,0,.6,0,.83.21.79.81a13,13,0,0,0,0,1.53c0,.44-.15.65-.6.65H118Z"/><path class="cls-1" d="M69.62,37.2h2.16c.15,0,.31,0,.51,0V53.19H69.62Z"/></g></svg>