<svg xmlns="http://www.w3.org/2000/svg" width="72.65" height="66.88" viewBox="0 0 72.65 66.88"><defs><style>.cls-1{fill:#fff;}</style></defs><g id="Micoffe_institute" data-name="Micoffe institute"><path class="cls-1" d="M65.07,19.05c.59,1,1.2,1.94,1.76,2.93,1.9,3.43,3.81,6.85,5.64,10.31a2.1,2.1,0,0,1,0,1.7C66.79,44.65,61,55.28,55.33,65.94a1.46,1.46,0,0,1-1.49.88q-17.19.06-34.37.2a1.83,1.83,0,0,1-1.87-1.11Q9,50.16.29,34.48a1.8,1.8,0,0,1,0-2Q8.85,16.72,17.33.92A1.43,1.43,0,0,1,18.8,0Q26,.07,33.11,0a1.24,1.24,0,0,1,1.37.82q1.52,3.51,3.18,7a1.11,1.11,0,0,1-.3,1.53c-1.69,1.53-2.72,1.66-4.47.25-1.43-1.14-2.76-2.4-4.09-3.66a3.24,3.24,0,0,0-3.41-.82,2.7,2.7,0,0,0-2,2.53,8,8,0,0,0,1.72-.72,1.64,1.64,0,0,1,2.56.18c.86.93,1.78,1.83,2.6,2.81,2.38,2.87,5.53,3.21,8.93,2.77.37,0,.74-.12,1.15-.19l1.15,2.31L54.92.64a5.36,5.36,0,0,1,.43.49q4.71,8.57,9.42,17.12a6.32,6.32,0,0,1,.32.82c-2-.05-3.9-.13-5.85-.15-2.46,0-3.23.64-3.6,3.1a10.62,10.62,0,0,0-.09,1.78c0,6,.11,11.91.15,17.87a8,8,0,0,1-.14,2.64,6.08,6.08,0,0,1-1.25,1.75c1.63,0,3.74,0,5.86,0,2.34,0,3-.69,3-3.08,0-6.72,0-13.44,0-20.16A4.16,4.16,0,0,1,65.07,19.05ZM43.72,23.47l.38.1v1.26c0,5.54,0,11.08.19,16.62.07,2.13-.3,3.76-2.45,4.59,0,0,0,.14,0,.24H48.5c2.39,0,3.2-.81,3.21-3.23,0-6.52,0-13,0-19.56,0-1.62-.21-3.28,1.55-4.39C51,19,48.81,19,46.66,18.94a3,3,0,0,0-2.95,1.6,15.15,15.15,0,0,0-1,2.34c-1.23,3.37-2.43,6.75-3.75,10.41-1-2-1.75-3.74-2.74-5.35-1.57-2.58-3.24-5.09-5-7.56A3.4,3.4,0,0,0,28,18.94c-1.3.09-2.61,0-4,0V16.39c-.45,1,.63,2.44-1.35,2.76,1.24.64,1.22,1.59,1.22,2.6,0,8.86-.08,17.73,0,26.59,0,2.3-.18,4.36-1.95,6A6.24,6.24,0,0,0,21,55.74a3.71,3.71,0,0,0,.43,4.58,4.49,4.49,0,0,0,5,.07,3.33,3.33,0,0,0,.72-4.28c-.57-1.14-1.35-2.18-1.93-3.31a5,5,0,0,1-.68-2.1c-.22-9.5-.38-19-.56-28.5,0-.44,0-.88,0-1.32l.29-.07L34.86,46.37A196.72,196.72,0,0,1,43.72,23.47Z"/><path class="cls-1" d="M52.75.1C48.59,4.15,44.61,8,40.58,11.94c-.45-1.81.26-2.95,1.55-4.06,2.44-2.12,4.72-4.43,7.06-6.65C50.52,0,50.52,0,52.75.1Z"/><path class="cls-1" d="M47.29.2,43.06,4.8c-.81.88-1.56,1.81-2.41,2.63-.35.33-1.06.73-1.36.59-.67-.32-.66-1.59-.12-2.13l4.77-4.77C45.21-.15,45.21-.15,47.29.2Z"/><path class="cls-1" d="M42.48.19,37.9,4.53c-1.12-1.7-1-1.63.22-2.95A4,4,0,0,1,42.48.19Z"/></g></svg>