<svg id="Pao_betancurt" data-name="Pao betancurt" xmlns="http://www.w3.org/2000/svg" width="112.75" height="55.22" viewBox="0 0 112.75 55.22"><defs><style>.cls-1{fill:#fff;}</style></defs><path class="cls-1" d="M53.65,0a12.05,12.05,0,0,1,12,12.16,12,12,0,1,1-24.09-.05A12.09,12.09,0,0,1,53.65,0ZM43.26,12.11A10.37,10.37,0,1,0,53.17,1.69,10.49,10.49,0,0,0,43.26,12.11Z"/><path class="cls-1" d="M112.51,24c-.59,0-1.11,0-1.62,0-.12,0-.26-.21-.33-.35-.77-1.73-1.55-3.47-2.3-5.21a.68.68,0,0,0-.73-.47H95.84a.63.63,0,0,0-.66.43c-.74,1.63-1.54,3.23-2.24,4.86a1,1,0,0,1-1.23.77,7.58,7.58,0,0,0-1,0C94.47,16,98.18,8,101.93,0Zm-5.21-7.7c-1.81-4.1-3.6-8.14-5.44-12.29-1.92,4.16-3.79,8.19-5.69,12.29Z"/><path class="cls-1" d="M28.34,0C31.88,8,35.38,16,38.91,24c-.57,0-1.07,0-1.57,0-.14,0-.32-.2-.38-.35-.78-1.73-1.55-3.46-2.29-5.2a.66.66,0,0,0-.73-.47c-3.86,0-7.73,0-11.59,0a.75.75,0,0,0-.81.51c-.76,1.7-1.57,3.38-2.35,5.08a.65.65,0,0,1-.73.47c-.4,0-.8,0-1.32,0C20.88,16,24.58,8,28.34,0ZM22.57,16.31H33.7C31.88,12.21,30.1,8.16,28.26,4,26.34,8.19,24.47,12.22,22.57,16.31Z"/><path class="cls-1" d="M1.88,13.74V24H.22V.26l.5,0c2.58,0,5.17,0,7.75,0a8.12,8.12,0,0,1,6.27,2.63,6.08,6.08,0,0,1-.84,9,8.66,8.66,0,0,1-5.53,1.84H1.88ZM1.86,2a1.81,1.81,0,0,0,0,.23c0,3.12,0,6.23,0,9.35,0,.36.16.42.47.42H8.77a6.52,6.52,0,0,0,4-1.35A4.37,4.37,0,0,0,14,4.56,5.63,5.63,0,0,0,9.47,2C7,1.89,4.5,2,2,1.93A.65.65,0,0,0,1.86,2Z"/><path class="cls-1" d="M20,49.67l1.56-1.33a.7.7,0,0,0,.15-.25l.78-2.19a1.85,1.85,0,0,0,.07-.31c-.77.15-1.61-.31-2.2.5-.15-.34-.13-.47.22-.55a3.58,3.58,0,0,1,1.29-.16,1.05,1.05,0,0,0,1.27-.73c.2-.49.48-.55.82-.23a1,1,0,0,1,.19.59,2,2,0,0,1-.21.54c.86,0,1.67.09,2.47.07.2,0,.39-.25.63-.42l.06.36s.06,0,.08,0c.64-.07,1.28-.17,1.92-.2.33,0,.56-.07.68-.4a2.75,2.75,0,0,1,.2-.38c.15-.25.3-.48.65-.3s.5.41.33.78c-.05.12-.09.24-.17.47h3.18l0,.19a2.19,2.19,0,0,1-.53.14c-.83,0-1.66-.09-2.48-.11a.6.6,0,0,0-.48.25c-.42,1.18-.83,2.38-1.19,3.59-.08.24.06.55.1.82.27-.12.61-.17.79-.37.59-.66,1.13-1.37,1.68-2.07a5.76,5.76,0,0,1,.5-.59.48.48,0,0,1,.73.09.83.83,0,0,1,0,.64c-.2.52-.48,1-.69,1.53-.05.11.07.29.11.44.14,0,.34,0,.43-.15a18.93,18.93,0,0,0,1.62-2A2,2,0,0,1,36.4,46.9c.4.05.74.18.79.64a1,1,0,0,1-.76,1l.62-1.06a2.2,2.2,0,0,0-.46,0,2.18,2.18,0,0,0-1.16,2,.78.78,0,0,0,1.24.51,4.31,4.31,0,0,0,1.69-2,1.54,1.54,0,0,1,1.19-1,1.35,1.35,0,0,1,1.49.58l.13.16.24-.26a.48.48,0,0,1,.7-.06.52.52,0,0,1,.12.74c-.11.18-.24.34-.34.53a1.91,1.91,0,0,0-.3.65,3.76,3.76,0,0,0,0,.82,2.36,2.36,0,0,0,.65-.34c.39-.4.74-.85,1.12-1.28.09-.11.2-.2.3-.31l.12.11a4.27,4.27,0,0,1-.3.44c-.34.41-.68.83-1,1.22a1.07,1.07,0,0,1-1.16.43,1.1,1.1,0,0,1-.73-1.15.79.79,0,0,1,0-.16c-.43.16-.86.48-1.26.45s-.71-.43-1.11-.69c-.18.2-.46.51-.73.83a1.75,1.75,0,0,1-3.15-.77l-.93,1a1.13,1.13,0,0,1-1.21.44,1,1,0,0,1-.73-1.09s0,0,0,0l-1.15,1c-.32.29-.65.57-1.13.38a1.28,1.28,0,0,1-.78-1.1c0-.2-.05-.41-.08-.63-1.6,1.44-2.53,1.38-3.45-.21-.33.39-.64.77-1,1.14a5.13,5.13,0,0,1-.53.51,1,1,0,0,1-1.75-.55,8.74,8.74,0,0,1-.14-1.09c-.45.36-.89.68-1.28,1.05a.81.81,0,0,0-.13.52,1.93,1.93,0,0,1-1.42,1.93.92.92,0,0,1-.76-.2c-.1-.12,0-.54.12-.72a4.61,4.61,0,0,1,.88-.83.44.44,0,0,0,.15-.66l-.71-1.18c-.3.47-.56.91-.83,1.34a23.61,23.61,0,0,1-3.47,4.44,6.21,6.21,0,0,1-1,.82,1.4,1.4,0,0,1-2.22-1.18,4.47,4.47,0,0,1,.65-2.42c.5-.9,1.09-1.76,1.64-2.64a.39.39,0,0,0,.09-.28,11.64,11.64,0,0,1-1.3.8,8.47,8.47,0,0,1-2,.79A1.79,1.79,0,0,1,7.74,48,9.53,9.53,0,0,1,8.9,45.57a9.43,9.43,0,0,1,3.74-3.4,3.87,3.87,0,0,1,3.07-.28,1.45,1.45,0,0,1,.95,2.22A4.07,4.07,0,0,1,14.83,46c-.81.43-1.69.73-2.54,1.09a1.35,1.35,0,0,1-.29,0s0,0-.11-.12a3.46,3.46,0,0,1,.43-.17A7.79,7.79,0,0,0,15.6,45.1a4.55,4.55,0,0,0,.94-1.39,1,1,0,0,0-.81-1.43,3.63,3.63,0,0,0-2.39.47,9.48,9.48,0,0,0-3.67,3.68,10.16,10.16,0,0,0-1,2.34c-.28,1,.28,1.57,1.31,1.3A8.4,8.4,0,0,0,12,49.15a29,29,0,0,0,2.47-1.81c.31-.24.58-.45.92-.11s0,.63-.18.87a17.78,17.78,0,0,0-3,4.38,7.17,7.17,0,0,0-.57,1.75,1.13,1.13,0,0,0,.26.94,1.11,1.11,0,0,0,1-.17,10.77,10.77,0,0,0,1.6-1.42,25.65,25.65,0,0,0,3.4-4.79,3.1,3.1,0,0,0,.31-.9,1.37,1.37,0,0,1,1.67-1.08c.13,0,.31.12.34.23s-.08.27-.17.36a4.57,4.57,0,0,1-.69.54.38.38,0,0,0-.14.57C19.47,48.88,19.7,49.23,20,49.67Zm6-.91a.85.85,0,0,0,.46.86,1,1,0,0,0,1.12-.23,3.61,3.61,0,0,0,1.12-1.66c.19-.7.48-1.38.75-2.13-.79.11-1.6-.27-2.26.54L27,45.77l-.17,0-.18.36a2,2,0,0,0-.53-.23c-.62-.06-1.24-.05-1.84-.14a.56.56,0,0,0-.73.42c-.25.69-.56,1.35-.77,2a10.57,10.57,0,0,0-.34,1.85c0,.34.2.51.49.29A5.28,5.28,0,0,0,25,47.89c.26-.8.85-1.41,1.53-1.33a1.15,1.15,0,0,1,.8.48,1,1,0,0,1-.12.92A5.76,5.76,0,0,1,25.92,48.76ZM41.05,48c-.47-.56-.84-.67-1.24-.27a2.47,2.47,0,0,0-.54,1,.62.62,0,0,0,.18.54.62.62,0,0,0,.55-.14C40.38,48.74,40.71,48.35,41.05,48ZM19.29,50.75l-.22-.13a11.23,11.23,0,0,0-.85.84c-.09.11,0,.34,0,.52.19,0,.48,0,.56-.11A8.36,8.36,0,0,0,19.29,50.75ZM26,48.24c.78,0,1.18-.39,1.07-1.08A1.67,1.67,0,0,0,26,48.24Z"/><path class="cls-1" d="M69.21,45.6c-.77.12-1.58-.29-2.18.46-.21-.23-.17-.43.18-.53a3.1,3.1,0,0,1,1.2-.15,1.17,1.17,0,0,0,1.43-.85.38.38,0,0,1,.59-.23c.26.13.48.3.38.64a6.5,6.5,0,0,1-.21.62h3.17l0,.2L73,46a1.88,1.88,0,0,1-.13.59c-.34.54-.12.9.32,1.21s.38.61.17,1a4.31,4.31,0,0,0-.31,1c0,.1,0,.31.11.33a.52.52,0,0,0,.4-.06,3.19,3.19,0,0,0,.6-.56c.42-.52.81-1.06,1.21-1.58a3.25,3.25,0,0,1,.38-.44.49.49,0,0,1,.77.08.79.79,0,0,1,0,.64c-.21.48-.49.93-.69,1.42-.06.14.06.35.1.53.15-.06.36-.07.46-.18A18.52,18.52,0,0,0,78,48a2,2,0,0,1,1.81-1.08c.42.05.77.2.81.69a1,1,0,0,1-.77.94l.61-1.08a1.06,1.06,0,0,0-1.1.55,3,3,0,0,0-.48,1.09,1.22,1.22,0,0,0,.28.9.74.74,0,0,0,1,0c.58-.6,1.1-1.26,1.65-1.9a7.16,7.16,0,0,1,.48-.61.52.52,0,0,1,.78,0c.26.21.15.44,0,.69a14.09,14.09,0,0,0-.7,1.47c0,.12.05.3.09.45.16-.05.37-.05.47-.15.42-.43.81-.88,1.21-1.33.07-.09.11-.22.2-.27a.86.86,0,0,0,.46-.85.82.82,0,0,1,.47-.59.87.87,0,0,1,1,.28,1.72,1.72,0,0,1,.18,1.57,1.21,1.21,0,0,0,1.28-.61c.06-.1.09-.21.14-.31.15-.3.34-.57.71-.38a.6.6,0,0,1,.29.86l-.51,1.31.18.12a4.36,4.36,0,0,0,.55-.41c.5-.55,1-1.12,1.48-1.68s1-.72,1.39-.49.5.74.3,1.46c-.09.33-.14.67-.21,1l.13.09c.12-.07.27-.11.34-.2a11.75,11.75,0,0,0,1.13-1.68,1.57,1.57,0,0,1,2.74-.16.12.12,0,0,0,.08,0c.24-.28.51-.57.89-.25s.15.64,0,1a5.6,5.6,0,0,0-.56,1.42c-.08.33.18.47.44.25a4.7,4.7,0,0,0,1.72-2.28A10.21,10.21,0,0,1,100.71,44a5.71,5.71,0,0,1,1.35-1.14.91.91,0,0,1,1.13.16.81.81,0,0,1,.13,1,9.63,9.63,0,0,1-1.06,1.67,12.28,12.28,0,0,1-1.61,1.69,2.92,2.92,0,0,0-.93,2c0,.49-.09,1-.11,1.46a3.28,3.28,0,0,0,.12.62c1.46-.82,2.19-2.21,3.3-3.27,0,.07,0,.16,0,.21-.82,1-1.65,1.91-2.48,2.86a1.15,1.15,0,0,1-.4.28c-.49.27-1,.16-1.16-.37a17.6,17.6,0,0,1-.41-2.12c-.16.19-.4.48-.67.75s-.69.72-1.26.56-.74-.67-.78-1.22a.65.65,0,0,0,0-.13c-1.32.72-1.64.68-2.22-.36a6.68,6.68,0,0,1-.46.55,4,4,0,0,1-.63.6.78.78,0,0,1-1.27-.51,3.15,3.15,0,0,1,.13-1.17,6,6,0,0,1,.3-.8l-.12-.11a4,4,0,0,0-.66.49c-.4.42-.76.88-1.14,1.33a4.68,4.68,0,0,1-.43.46,1,1,0,0,1-1.17.38c-.47-.19-.55-.6-.55-1.05-.38.07-.76.12-1.13.21-.1,0-.19.15-.27.25a6.22,6.22,0,0,1-.46.56,1,1,0,0,1-1.56-.28c-.05-.09-.1-.19-.17-.34-.19.21-.35.39-.52.56-.36.37-.75.71-1.32.52s-.72-.66-.69-1.28l-.71.73a1.7,1.7,0,0,1-1.81.52,1.56,1.56,0,0,1-1.19-1.45l-.8.88c-.37.39-.76.8-1.38.6s-.74-.67-.71-1.3c-.37.38-.66.7-1,1a1,1,0,0,1-1.15.25,1,1,0,0,1-.61-1.11,11.9,11.9,0,0,1,.4-1.24.52.52,0,0,0-.11-.45c-.59.77-1.17,1.55-1.77,2.3a4,4,0,0,1-.71.66.93.93,0,0,1-1.52-.38,7.59,7.59,0,0,1-.27-1.16c-.18.19-.37.4-.56.59-.86.86-1.66.67-2-.4l-.81.7a1.16,1.16,0,0,1-1.39.2,1.05,1.05,0,0,1-.4-1.29,6.57,6.57,0,0,1,.53-1.14.54.54,0,0,1,1,.5,12.22,12.22,0,0,0-.5,1.26c-.05.15.06.35.1.53.16-.07.38-.09.47-.21.51-.64,1-1.31,1.47-2,.18-.25.32-.48.7-.31s.49.4.31.77a11,11,0,0,0-.47,1.06c0,.15.06.35.09.53.17,0,.37,0,.48-.14a4.11,4.11,0,0,0,1.36-1.91C68.64,47,68.94,46.35,69.21,45.6Zm2.67.29c-.32,0-.77-.09-1.22-.11a.44.44,0,0,0-.33.19A12.09,12.09,0,0,0,69.1,49.8a1.82,1.82,0,0,0,.16.66c.2-.09.47-.12.6-.26.77-.94,1.51-1.9,2.25-2.86,0-.07,0-.23,0-.34C72,46.66,72,46.31,71.88,45.89Zm31.35-2.44c-1,.07-2.89,2.68-2.87,3.94C101.45,46.15,102.81,45.2,103.23,43.45ZM96.31,48c-.29-.45-.61-.65-1-.42a1.33,1.33,0,0,0-.74,1.17.65.65,0,0,0,.2.49.61.61,0,0,0,.51-.11C95.61,48.76,96,48.36,96.31,48Zm-10.94.55.8.14a4.81,4.81,0,0,0,0-1.07c0-.13-.39-.35-.49-.3s-.36.35-.56.58l.59.25Zm-.21.08c-.08.12-.19.22-.19.31,0,.3,0,.6.06.9.25-.13.51-.24.74-.39s.16-.25.24-.38ZM72.45,46.86l.2-.88C72.1,46.2,72.06,46.33,72.45,46.86Z"/><path class="cls-1" d="M86.05,22.38c0,.5,0,.91,0,1.31,0,.25-.09.35-.34.34s-.65,0-1,0H71.06V.24a12.31,12.31,0,0,1,1.36,0c.09,0,.23.27.23.41,0,1.75,0,3.51,0,5.26V22c0,.12,0,.25,0,.43Z"/><path class="cls-1" d="M6.29,32.45A9.59,9.59,0,0,1,7.9,34.09a3,3,0,0,1-1.45,4.4A6,6,0,0,1,4.39,39C3.11,39,1.83,39,.54,39c-.4,0-.54-.13-.54-.53,0-3.56,0-7.11,0-10.67,0-.28,0-.53.39-.53,1.28,0,2.58-.06,3.85.07A3,3,0,0,1,7,31.23,6.68,6.68,0,0,1,6.29,32.45ZM1.22,35.58c0,.61,0,1.23,0,1.84,0,.25.05.4.34.4,1,0,2.05,0,3.07,0A2.79,2.79,0,0,0,6.48,37a1.84,1.84,0,0,0,.3-2.5,2.36,2.36,0,0,0-1.71-1c-1.18-.09-2.36-.09-3.54-.13-.29,0-.31.16-.31.38C1.23,34.38,1.22,35,1.22,35.58Zm0-5.29v.54c0,1.35,0,1.36,1.33,1.34a10.56,10.56,0,0,0,2-.16A1.66,1.66,0,0,0,5.89,30.3a1.8,1.8,0,0,0-1.63-1.72,21.16,21.16,0,0,0-2.76-.09c-.09,0-.26.22-.26.34C1.21,29.32,1.22,29.81,1.22,30.29Z"/><path class="cls-1" d="M72.75,27.1a6,6,0,0,1,6,6,6,6,0,1,1-11.92.12A6,6,0,0,1,72.75,27.1Zm-4.66,6a4.74,4.74,0,1,0,4.79-4.76A4.79,4.79,0,0,0,68.09,33.1Z"/><path class="cls-1" d="M44.71,30.36v1c0,2.34,0,4.67,0,7,0,.46-.13.64-.62.62s-.63-.1-.63-.6c0-3.58,0-7.17,0-10.75a1.74,1.74,0,0,1,.14-.48,1.71,1.71,0,0,1,.45.28l6.69,8a1.73,1.73,0,0,0,.57.47v-.55q0-3.72,0-7.44a.66.66,0,0,1,1-.59c.12.08.15.34.15.51q0,4.58,0,9.15c0,.54,0,1.08,0,1.61a2.08,2.08,0,0,1-.14.53,1.9,1.9,0,0,1-.46-.29l-3.56-4.26L45,30.5a2.39,2.39,0,0,1-.13-.21Z"/><path class="cls-1" d="M59.23,41c-.1.57-.19,1.13-.29,1.7-.43,2.49-.94,5-1.25,7.48a22.23,22.23,0,0,0,.1,3.73,1.83,1.83,0,0,0,.12.44,33,33,0,0,1,4.64-11.61,4.1,4.1,0,0,1,2.1-1.88,2.53,2.53,0,0,1,1.09-.12c.69.08.93.79.45,1.4v-.55c0-.44-.26-.67-.66-.49a2.59,2.59,0,0,0-.89.65A19.22,19.22,0,0,0,62,45.83a34.86,34.86,0,0,0-2.94,7.81,4.79,4.79,0,0,1-.41,1.09,2.27,2.27,0,0,1-.49.49,1.93,1.93,0,0,1-.42-.54,8.7,8.7,0,0,1-.41-3.4,52.62,52.62,0,0,1,1.36-8.74.94.94,0,0,0,0-.44c-.51.93-1,1.88-1.51,2.81a54.2,54.2,0,0,1-4.67,7.4,6.59,6.59,0,0,1-2.33,2,4.53,4.53,0,0,1-1.47.44,1.81,1.81,0,0,1-2-1.45,4.83,4.83,0,0,1,.07-2.69,7,7,0,0,1,2.5-4.06A4.88,4.88,0,0,1,50.61,46a2.29,2.29,0,0,1,.76,0c-.09.12-.1.17-.12.17a3.27,3.27,0,0,0-2.82,1.55,7.49,7.49,0,0,0-1.63,4.59,3.55,3.55,0,0,0,.31,1.36,1,1,0,0,0,1.43.6,5.52,5.52,0,0,0,2.2-1.58A33.47,33.47,0,0,0,55,46.58c.7-1.19,1.32-2.42,2-3.6a10.76,10.76,0,0,1,1.25-1.6,3.57,3.57,0,0,1,.8-.49Z"/><path class="cls-1" d="M97.08,34.06l1.85,2.24c.58.7,1.17,1.4,1.74,2.1a2.8,2.8,0,0,1,.19.43,4.5,4.5,0,0,1-.48.16,1.3,1.3,0,0,1-1.33-.58c-1.32-1.66-2.69-3.29-4-4.93A1.84,1.84,0,0,1,94.8,33a2.55,2.55,0,0,1,.52-.15c.81-.06,1.63,0,2.43-.15a2.07,2.07,0,0,0,0-4.14,29.17,29.17,0,0,0-3.5-.09c-.09,0-.24.29-.24.45,0,2.11,0,4.22,0,6.33,0,1.06,0,2.11,0,3.17,0,.42-.14.57-.56.57s-.67,0-.67-.56c0-3.12,0-6.24,0-9.35,0-.46,0-.91,0-1.37s.13-.48.46-.47c1.41,0,2.83,0,4.24,0a3.67,3.67,0,0,1,3.43,2.83A3.47,3.47,0,0,1,97.68,34Z"/><path class="cls-1" d="M10.61,33.09c0-1.73,0-3.47,0-5.21,0-.44.12-.64.59-.64q3.32,0,6.63,0c.52,0,.55.29.56.69s-.17.55-.59.55c-1.83,0-3.67,0-5.5,0-.4,0-.5.13-.5.5,0,1,0,2.05,0,3.07,0,.38.1.51.49.5,1.35,0,2.7,0,4.05,0,.46,0,.61.16.61.62s-.15.62-.62.61c-1.35,0-2.7,0-4,0-.4,0-.5.13-.5.51,0,1,0,2.07,0,3.11,0,.35.13.44.46.44h5.5c.4,0,.65,0,.62.55s0,.67-.6.67H11.24c-.61,0-.63,0-.63-.64Z"/><path class="cls-1" d="M40.7,39c-.36.07-.57-.14-.73-.53-.26-.66-.58-1.3-.85-2a.51.51,0,0,0-.54-.37h-5a.55.55,0,0,0-.59.39c-.29.7-.63,1.38-1,2.07a1,1,0,0,1-1.2.33c-.09-.07-.09-.38,0-.54.52-1.17,1.07-2.32,1.61-3.48q1.68-3.64,3.38-7.27a2.79,2.79,0,0,1,.36-.47,2,2,0,0,1,.4.49q1.64,3.69,3.25,7.39c.47,1.08,1,2.16,1.42,3.25C41.49,38.9,41.42,39,40.7,39Zm-4.57-9.23-2.36,5.1h4.62Z"/><path class="cls-1" d="M90,31.34c0,1.05,0,2.11,0,3.16a4.52,4.52,0,0,1-9,.82,6.47,6.47,0,0,1-.08-1.16c0-2.11,0-4.22,0-6.33,0-.46.16-.59.6-.59s.66.1.65.59c0,2.27,0,4.55,0,6.82a3.29,3.29,0,0,0,2.65,3.18,3.33,3.33,0,0,0,4-3.32V28c0-.66.34-.91,1-.67a.59.59,0,0,1,.23.46C90,28.94,90,30.14,90,31.34Z"/><path class="cls-1" d="M61.31,27.1a5.86,5.86,0,0,1,3.59,1.72c.24.22.39.42.07.72-.49.46-.58.49-1,.14a4.66,4.66,0,0,0-7.37,1,4.81,4.81,0,0,0,1.22,6.21,4.7,4.7,0,0,0,6.25-.45c.44-.44.85-.41,1.18.12a.54.54,0,0,1-.11.49,5.74,5.74,0,0,1-3.82,2A6,6,0,0,1,55,31.53,6.24,6.24,0,0,1,61.31,27.1Z"/><path class="cls-1" d="M108.27,33.77c0,1.55,0,3.09,0,4.63,0,.5-.2.6-.63.61s-.65-.08-.65-.59c0-3.1,0-6.2,0-9.3,0-.64,0-.64-.62-.65-1.12,0-2.24,0-3.36,0-.44,0-.52-.19-.51-.56s0-.68.5-.68q4.61,0,9.21,0c.5,0,.52.3.52.67s-.1.57-.52.57c-1.12,0-2.24,0-3.36,0-.52,0-.62.16-.61.64C108.29,30.66,108.27,32.22,108.27,33.77Z"/><path class="cls-1" d="M25.12,33.7c0-1.59,0-3.18,0-4.77,0-.36-.11-.47-.48-.47-1.16,0-2.33,0-3.5,0-.38,0-.55-.12-.52-.5s-.1-.73.49-.73c3.08,0,6.17,0,9.25,0,.53,0,.46.38.47.72s-.11.52-.5.52c-1.17,0-2.34,0-3.51,0-.38,0-.5.1-.5.49,0,3.12,0,6.23,0,9.34,0,.38,0,.72-.53.71s-.69,0-.69-.68V33.7Z"/><path class="cls-1" d="M77.56,46.72c-.23.19-.45.49-.7.53s-.51-.25-.62-.47.39-.77.64-.69a2.69,2.69,0,0,1,.66.41Z"/><path class="cls-1" d="M34.19,46.75a2.66,2.66,0,0,1-.77.5c-.16,0-.46-.27-.54-.48s.4-.77.65-.69a2.53,2.53,0,0,1,.65.45Z"/><path class="cls-1" d="M84.13,46.49c-.08.44-.45.86-.72.78a1,1,0,0,1-.56-.48c-.11-.27.35-.77.62-.7A2.53,2.53,0,0,1,84.13,46.49Z"/></svg>