<svg xmlns="http://www.w3.org/2000/svg" width="154.41" height="58.01" viewBox="0 0 154.41 58.01"><defs><style>.cls-1{fill:#fff;}</style></defs><g id="Rotary"><path class="cls-1" d="M45,35.78l.1,2.06a.63.63,0,0,1-.5.65,19.06,19.06,0,0,1-2.83.36c-3.79,0-5-1.45-5-6.2V25.39H35.34a.63.63,0,0,1-.63-.63V22.61a.63.63,0,0,1,.63-.62h1.45V19.44a.63.63,0,0,1,.47-.61l2.52-.61a.6.6,0,0,1,.53.11.63.63,0,0,1,.24.49V22h3.83a.62.62,0,0,1,.62.62v2.15a.63.63,0,0,1-.62.63H40.55v6.73c0,2.32.08,3.13,1.72,3.13.6,0,1.54,0,2-.07A.64.64,0,0,1,45,35.78ZM33.1,30.14c0,6-2.28,8.67-7.39,8.67s-7.42-2.68-7.42-8.67,2.29-8.55,7.42-8.55S33.1,24.31,33.1,30.14Zm-3.83,0c0-3.68-1-5.12-3.56-5.12s-3.59,1.34-3.59,5.12c0,3.42.57,5.27,3.59,5.27S29.27,33.48,29.27,30.14Zm60-7.91a.63.63,0,0,0-.49-.24H86.3a.63.63,0,0,0-.6.46L82.43,34.79h-.25L78.91,22.45A.62.62,0,0,0,78.3,22H75.87a.64.64,0,0,0-.5.24.62.62,0,0,0-.11.54l3.6,13.83a2.3,2.3,0,0,0,2.07,1.85h.7c-.06.23-.12.48-.19.69l0,.1c-.19.64-.49,1.61-2.27,1.61L76,40.66a.61.61,0,0,0-.48.17.66.66,0,0,0-.18.48l.07,1.63a.64.64,0,0,0,.48.58,24.09,24.09,0,0,0,4.11.54h.2c2.35,0,4-1.52,4.75-4.52.93-3.51,2.1-8,3-11.31.39-1.48.72-2.76,1-3.67l.47-1.8A.62.62,0,0,0,89.24,22.23ZM16,37.57a.67.67,0,0,1-.05.6.64.64,0,0,1-.52.28H12.51a.63.63,0,0,1-.57-.37L8.2,29.67c-1.86,0-3.47-.11-4.34-.18v8.33a.63.63,0,0,1-.62.63H.63A.63.63,0,0,1,0,37.82V16.73a.63.63,0,0,1,.56-.62,63.73,63.73,0,0,1,7-.41H8.1c6.42,0,7.77,3.79,7.77,7A6.17,6.17,0,0,1,12,28.53ZM8.09,19.32H6.71a15.1,15.1,0,0,0-2.85.2V26c.73.06,2.15.13,4.05.11,2.45,0,4-1.33,4-3.39C11.88,21.08,10.89,19.32,8.09,19.32Zm52.22,7.85V38.08a.6.6,0,0,1-.22.47.58.58,0,0,1-.49.15,4.67,4.67,0,0,1-2.49-1h0a17,17,0,0,1-5.38,1.15c-3,0-4.78-1.92-4.78-5.27s1.6-4.73,5.51-5l4.09-.33v-1a1.84,1.84,0,0,0-2-2c-1.79,0-4.34.21-5.7.33a.6.6,0,0,1-.48-.15.66.66,0,0,1-.21-.44L48,22.87a.62.62,0,0,1,.52-.64,49.08,49.08,0,0,1,6.15-.64C58.53,21.59,60.31,23.37,60.31,27.17Zm-7.39,4.15c-1.48.14-2.18.81-2.18,2.11,0,.8.22,2.15,1.68,2.15a19,19,0,0,0,4.13-.66h0V31.13Zm19.59-9.46a8.9,8.9,0,0,0-4.31,1.78v-1a.63.63,0,0,0-.63-.62H65.06a.63.63,0,0,0-.63.62V37.82a.63.63,0,0,0,.63.63h2.51a.63.63,0,0,0,.63-.63V27.31a8.63,8.63,0,0,1,4.41-2,.63.63,0,0,0,.57-.62V22.49A.58.58,0,0,0,73,22,.62.62,0,0,0,72.51,21.86Z"/><path class="cls-1" d="M154.36,28.11V28l-.06,0a9.06,9.06,0,0,0-4.42-1.2l-.26-1.9a9,9,0,0,0,4-2.29l0-.05v-.08a8.52,8.52,0,0,0-.49-1.82l0-.07-.07,0a9,9,0,0,0-4.58,0c-.07-.2-.63-1.56-.72-1.75A9.19,9.19,0,0,0,151,15.57l0-.06,0-.08A9.88,9.88,0,0,0,150,13.8l0-.06h-.08a9.34,9.34,0,0,0-4.43,1.16c-.12-.17-1-1.36-1.16-1.53a9.18,9.18,0,0,0,2.29-4l0-.08-.06-.05a8.42,8.42,0,0,0-1.32-1.35l-.06,0h-.08a9.17,9.17,0,0,0-4,2.28L139.62,9a8.92,8.92,0,0,0,1.2-4.3s0-.19,0-.19l-.06,0a8.35,8.35,0,0,0-1.63-1l-.07,0-.07,0a9,9,0,0,0-3.22,3.22L133.92,6a9.6,9.6,0,0,0,.31-2.32,7.89,7.89,0,0,0-.31-2.25l0-.07-.07,0A7.9,7.9,0,0,0,132,.78h-.08l-.05,0a9.22,9.22,0,0,0-2.3,4l-1.93-.24A8.94,8.94,0,0,0,126.47.13l0-.08h-.08a8.53,8.53,0,0,0-1.89,0h-.08l0,.08a9.08,9.08,0,0,0-1.18,4.4l-2,.25a9.16,9.16,0,0,0-2.3-4l0-.06h-.09a9.24,9.24,0,0,0-1.81.48l-.07,0,0,.07a8.9,8.9,0,0,0-.3,2.28,10,10,0,0,0,.3,2.3L115,6.73a9.36,9.36,0,0,0-3.23-3.24l-.07,0-.08,0a9.52,9.52,0,0,0-1.62.95l-.07,0v.21A9.07,9.07,0,0,0,111.14,9c-.16.14-1.26,1-1.42,1.13a9.33,9.33,0,0,0-4-2.3h-.07l-.05,0a7.67,7.67,0,0,0-1.35,1.32l0,.07,0,.07a9.2,9.2,0,0,0,2.28,4c-.12.17-1.07,1.41-1.2,1.58a9.14,9.14,0,0,0-4.42-1.19h-.07l0,.07a8.66,8.66,0,0,0-.94,1.63l0,.07,0,.07a9.27,9.27,0,0,0,3.23,3.24c-.07.19-.62,1.54-.71,1.74a9.1,9.1,0,0,0-4.58,0l-.08,0,0,.07a7.84,7.84,0,0,0-.5,1.82v.08l.06.06a9,9,0,0,0,4,2.27c0,.22-.23,1.71-.25,1.91a9.16,9.16,0,0,0-4.42,1.19l-.07,0V28a8.86,8.86,0,0,0,0,1.88V30l.07,0a9.09,9.09,0,0,0,4.41,1.18l.27,2a9.14,9.14,0,0,0-3.95,2.31l-.06.06v.07a9,9,0,0,0,.49,1.82l0,.07.07,0a9.15,9.15,0,0,0,4.59,0c.08.2.67,1.55.75,1.75a9.17,9.17,0,0,0-3.23,3.23l0,.07,0,.07a9.23,9.23,0,0,0,.95,1.63l.05.06H101a9.09,9.09,0,0,0,4.42-1.17l1.19,1.55a9,9,0,0,0-2.29,4l0,.07,0,.06a10.52,10.52,0,0,0,1.33,1.34l.06.05.08,0a9.26,9.26,0,0,0,4-2.28l1.56,1.2a9.25,9.25,0,0,0-1.18,4.34v.16l.07.06a9.53,9.53,0,0,0,1.62.94l.07,0,.08,0a9.25,9.25,0,0,0,3.24-3.25l1.71.7a9.83,9.83,0,0,0-.29,2.28,8.38,8.38,0,0,0,.3,2.28l0,.08.08,0a8.61,8.61,0,0,0,1.81.51h.08l.06-.06a9,9,0,0,0,2.27-4l2,.28a9.13,9.13,0,0,0,1.19,4.41l0,.06h.08a8.44,8.44,0,0,0,1.88,0h.08l0-.06a9.37,9.37,0,0,0,1.2-4.42l1.85-.27a9.14,9.14,0,0,0,2.29,4l.06,0H132a10.21,10.21,0,0,0,1.83-.48l.06,0,0-.07a8.38,8.38,0,0,0,.29-2.28,10.08,10.08,0,0,0-.29-2.31c.19-.07,1.58-.68,1.78-.76a9.36,9.36,0,0,0,3.23,3.24l.06,0,.08,0a8.07,8.07,0,0,0,1.63-.95l.07,0v-.21a9.42,9.42,0,0,0-1.17-4.3l1.48-1.15a9.4,9.4,0,0,0,4,2.28l.07,0,.06,0a9.36,9.36,0,0,0,1.34-1.33l.05-.06,0-.07a9.1,9.1,0,0,0-2.28-4c.13-.17,1.06-1.39,1.18-1.56a9,9,0,0,0,4.42,1.17h.08l0-.06a7.23,7.23,0,0,0,1-1.64l0-.06,0-.07a9.45,9.45,0,0,0-3.2-3.25l.71-1.73a8.74,8.74,0,0,0,4.57,0l.06,0,0-.07a8.19,8.19,0,0,0,.5-1.81V35.5l-.06-.06a8.88,8.88,0,0,0-3.94-2.28c0-.21.24-1.65.26-1.86a9.07,9.07,0,0,0,4.43-1.2l.06,0V30a8.61,8.61,0,0,0,0-.94A8.41,8.41,0,0,0,154.36,28.11ZM125.42,50.57a21.74,21.74,0,1,1,21.73-21.73A21.76,21.76,0,0,1,125.42,50.57Z"/><path class="cls-1" d="M125.42,9.71a19.13,19.13,0,1,0,19.12,19.13A19.15,19.15,0,0,0,125.42,9.71Zm2.4,3.08a.78.78,0,0,1,.67,0,18,18,0,0,1,9.42,5.44.93.93,0,0,1,.3.57s0,.05,0,.07c0,.26-.35.4-.61.53l-8.05,3.9a.87.87,0,0,1-.84,0,.88.88,0,0,1-.41-.75l-.65-8.91C127.61,13.18,127.67,12.92,127.82,12.79Zm-14.93,5.46h0a17.88,17.88,0,0,1,9.41-5.44.75.75,0,0,1,.66,0c.16.13.22.39.19.82l-.65,8.91a.89.89,0,0,1-.41.74.86.86,0,0,1-.84,0l-8-3.9c-.27-.13-.57-.27-.63-.53A.84.84,0,0,1,112.89,18.25ZM111,34.77c-.35.24-.61.32-.8.25s-.3-.32-.37-.55a18,18,0,0,1,0-10.88c.1-.33.24-.51.41-.57s.53.09.77.26l7.39,5a.87.87,0,0,1,.44.72.91.91,0,0,1-.43.72Zm12.13,10.46a.77.77,0,0,1-.67,0A17.85,17.85,0,0,1,113,39.83a.84.84,0,0,1-.29-.56v-.08c0-.25.35-.4.61-.52l8-3.91a.93.93,0,0,1,.86,0,.92.92,0,0,1,.4.74l.65,8.93C123.33,44.84,123.27,45.1,123.11,45.23ZM125.4,34.1a5.22,5.22,0,0,1-2.87-9.58,1,1,0,1,1,1.16,1.75,3.12,3.12,0,1,0,3.43,0,1,1,0,0,1-.3-1.46,1.06,1.06,0,0,1,1.46-.3,5.23,5.23,0,0,1-2.88,9.59Zm12.52,5.62a17.87,17.87,0,0,1-9.41,5.44.78.78,0,0,1-.7-.06c-.2-.17-.17-.51-.15-.8l.64-8.92a1,1,0,0,1,.42-.75.92.92,0,0,1,.84,0l8.05,3.9c.37.19.57.37.61.57A.74.74,0,0,1,137.92,39.72ZM140.63,23c.22.07.3.31.37.54a17.88,17.88,0,0,1,0,10.88c-.09.33-.22.51-.4.58s-.53-.1-.76-.27l-7.4-5A.91.91,0,0,1,132,29a.88.88,0,0,1,.45-.72l7.4-5A.9.9,0,0,1,140.63,23Z"/></g></svg>