<?xml version="1.0" encoding="utf-8"?>
<!-- Generator: Adobe Illustrator 25.0.1, SVG Export Plug-In . SVG Version: 6.00 Build 0)  -->
<svg version="1.1" id="Layer_1" xmlns="http://www.w3.org/2000/svg" xmlns:xlink="http://www.w3.org/1999/xlink" x="0px" y="0px"
	 width="125px" height="125px" viewBox="0 0 125 125" style="enable-background:new 0 0 125 125;" xml:space="preserve">
<style type="text/css">
	.st0{fill:#E9CF49;}
	.st1{fill:#231F20;stroke:#231F20;stroke-width:0.5;stroke-miterlimit:10;}
</style>
<circle class="st0" cx="62.5" cy="62.5" r="62.5"/>
<g>
	<path class="st1" d="M10.97,73.25l-1.05-8.29l1.32-0.17l0.44,3.49l11.67-1.48l0.17,1.32L11.84,69.6l0.44,3.49L10.97,73.25z"/>
	<path class="st1" d="M9.88,61.39l0.29-3.01c0.3-3.08,2.2-4.73,4.53-4.5c1.85,0.18,3.22,1.48,3.57,3.54l5.5-3.45l-0.16,1.67
		l-5.27,3.3l-0.19,1.93l4.9,0.48l-0.13,1.32L9.88,61.39z M14.58,55.2C13,55.05,11.75,56,11.45,59.08l-0.11,1.12l5.49,0.54l0.11-1.12
		C17.23,56.53,16.15,55.36,14.58,55.2z"/>
	<path class="st1" d="M27.44,43.75l-0.49,1.34l-4.7,0.02l-1.7,4.64l3.58,3.03l-0.49,1.34L13,45.09l0.49-1.34L27.44,43.75z
		 M19.46,48.84l1.38-3.75l-5.77,0.01L19.46,48.84z"/>
	<path class="st1" d="M17.09,35.91l1.43-2.08c1.67-2.43,3.67-3.48,5.68-2.08c1.02,0.7,1.45,1.62,1.42,2.66
		c1.23-0.75,2.59-0.78,3.84,0.08c1.99,1.37,1.92,3.75,0.25,6.17l-1.84,2.68L17.09,35.91z M18.96,35.56l3.52,2.43l0.67-0.97
		c1.47-2.13,1.38-3.44,0.3-4.18c-1.1-0.75-2.35-0.37-3.82,1.75L18.96,35.56z M24.27,37.79l-0.67,0.97l3.93,2.71l1.08-1.56
		c1.47-2.13,1.19-3.57,0.11-4.31C26.9,34.33,25.36,36.2,24.27,37.79z"/>
	<path class="st1" d="M40.57,29.33l-1.07,0.94l-4.14-2.23l-3.71,3.27l1.7,4.38l-1.07,0.94l-5.05-13l1.07-0.94L40.57,29.33z
		 M31.13,30l2.99-2.64l-5.08-2.74L31.13,30z"/>
	<path class="st1" d="M37.1,16.59l1.16-0.65l3.97,7.14c1.32,2.38,1.22,5.17-1.15,6.49l-0.65-1.16c1.71-0.95,1.68-2.8,0.36-5.18
		L37.1,16.59z"/>
	<path class="st1" d="M41.39,14.33l6.97-2.51l0.45,1.25l-5.72,2.06l1.86,5.18l5.72-2.06l0.45,1.25l-5.72,2.06l1.22,3.38l5.72-2.06
		l0.45,1.25l-6.97,2.51L41.39,14.33z"/>
	<path class="st1" d="M53.17,10.6l1.4-0.11l4.59,10.69L62,9.89l1.4-0.11l1.99,12.98l-1.35,0.11l-1.48-9.76l-2.53,10.08l-1.4,0.11
		l-4.1-9.55l0.08,9.87l-1.35,0.11L53.17,10.6z"/>
	<path class="st1" d="M73.89,11.09c3.49,0.77,4.66,4.24,3.88,7.77c-0.77,3.49-3.31,6.16-6.8,5.38c-3.49-0.77-4.7-4.27-3.92-7.76
		C67.83,12.96,70.4,10.32,73.89,11.09z M71.24,22.96c2.24,0.5,4.6-1.45,5.25-4.38c0.65-2.93-0.66-5.71-2.91-6.21
		s-4.59,1.47-5.24,4.41C67.7,19.7,69,22.46,71.24,22.96z"/>
	<path class="st1" d="M83.02,22.1c-1.46-1.23-2.96-2.55-1.75-4.94c0.97-1.91,3.04-2.66,5.04-1.64c1.62,0.83,2.27,2.46,2.17,4.24
		l-1.37,0.05c0.1-1.45-0.42-2.58-1.42-3.09c-1.05-0.53-2.5-0.36-3.22,1.05c-0.74,1.46,0.34,2.43,1.48,3.42
		c1.46,1.23,2.96,2.55,1.75,4.94c-1.06,2.08-3.54,2.4-5.51,1.4c-1.8-0.91-2.44-2.54-2.34-4.32l1.37-0.05
		c-0.09,1.44,0.42,2.58,1.58,3.17c1.07,0.54,2.9,0.75,3.69-0.81C85.24,24.07,84.16,23.09,83.02,22.1z"/>
	<path class="st1" d="M99,24.8l0.97,0.92l-5.62,5.93c-1.87,1.97-4.57,2.72-6.54,0.85l0.92-0.96c1.42,1.35,3.18,0.76,5.05-1.21
		L99,24.8z"/>
	<path class="st1" d="M107.84,35.84l0.75,1.1l-5.4,3.71c-2.94,2.02-6.4,2.56-8.43-0.38c-2.02-2.94-0.31-6.01,2.63-8.04l5.4-3.71
		l0.75,1.1L98.62,33c-2.94,2.02-4.24,4.39-2.78,6.52c1.45,2.11,4.12,1.73,7.06-0.29L107.84,35.84z"/>
	<path class="st1" d="M108.97,43.08L98.69,46.6l-0.43-1.26l12.39-4.24l0.5,1.47l-8.17,9.69l10.28-3.52l0.43,1.26l-12.39,4.24
		l-0.5-1.47L108.97,43.08z"/>
	<path class="st1" d="M114.41,53.72l0.73,8.33l-1.33,0.12l-0.31-3.5l-11.72,1.03l-0.12-1.33l11.72-1.03l-0.31-3.5L114.41,53.72z"/>
	<path class="st1" d="M114.47,70.98c-0.58,3.52-3.97,4.9-7.54,4.31c-3.52-0.58-6.33-2.96-5.76-6.48c0.58-3.53,4-4.93,7.53-4.36
		C112.26,65.04,115.04,67.46,114.47,70.98z M102.47,69c-0.37,2.27,1.71,4.51,4.67,5c2.96,0.48,5.67-0.98,6.04-3.25
		c0.37-2.27-1.73-4.5-4.69-4.98C105.52,65.29,102.84,66.74,102.47,69z"/>
	<path class="st1" d="M103.99,80.71c1.15-1.53,2.38-3.11,4.83-2.03c1.97,0.87,2.82,2.88,1.92,4.93c-0.73,1.67-2.32,2.4-4.11,2.41
		l-0.13-1.36c1.45,0.01,2.55-0.56,3-1.59c0.47-1.08,0.21-2.52-1.23-3.15c-1.5-0.66-2.41,0.48-3.33,1.67
		c-1.15,1.53-2.38,3.11-4.83,2.03c-2.14-0.94-2.59-3.4-1.71-5.42c0.81-1.84,2.4-2.58,4.19-2.58l0.13,1.36
		c-1.45-0.01-2.55,0.56-3.08,1.76c-0.48,1.1-0.58,2.94,1.02,3.64C102.15,83.04,103.07,81.9,103.99,80.71z"/>
</g>
</svg>
