<svg xmlns="http://www.w3.org/2000/svg" width="134.96" height="58.02" viewBox="0 0 134.96 58.02"><defs><style>.cls-1{fill:#fff;}</style></defs><g id="Valkyria"><path class="cls-1" d="M52.82,17.28c.18-.56,0-.82-.61-1A35.3,35.3,0,0,0,42.1,14.94c-5.58,0-11.15.21-16.72.26a41.18,41.18,0,0,1-10.31-1.09A19.89,19.89,0,0,1,1.21,2.74C.82,1.91.46,1.05,0,0L1.08.31A111,111,0,0,0,16.22,3.89c6.31,1.05,12.64,2,19,3a86.65,86.65,0,0,1,15.48,3.73c.7.26,1.39.55,2.07.82.06-.05.13-.09.13-.11-.16-.92.42-1.16,1.15-1.37,4.2-1.2,8.38-2.44,12.58-3.63a2.37,2.37,0,0,1,1.24,0C72,7.55,76.11,8.75,80.25,10c1.33.38,1.33.39,1.46,1.66a.83.83,0,0,0,.28,0,70.33,70.33,0,0,1,16.6-4.43c6.36-1.06,12.74-2,19.09-3.07A112.21,112.21,0,0,0,133.94.27l1-.3c-.6,1.33-1.05,2.48-1.62,3.57-3.2,6.2-8.36,9.7-15.15,10.94a67.94,67.94,0,0,1-14,.66c-4.34-.1-8.69-.22-13-.15a31.3,31.3,0,0,0-9,1.46c-.51.16-.71.39-.52.94,1.48-.22,3-.47,4.44-.66a118.94,118.94,0,0,1,15.79-.52c6.79.07,13.58.2,20.27-1.12,2.35-.46,4.63-1.3,6.94-2l.4-.15.19.16c-.87,1.28-1.66,2.62-2.62,3.83-4,5-9.27,7-15.54,6.86-4.93-.13-9.69-1.3-14.47-2.3-4.6-1-9.18-2-13.93-1.78-.35,0-.7.05-1,0-.54,0-.56.27-.43.65a54,54,0,0,1,5.72.27c3.92.59,7.81,1.34,11.7,2.09,4.87.93,9.73,1.93,14.65,2.91l-2.13.93a24.68,24.68,0,0,1-9.76,2.15A26.1,26.1,0,0,1,93,26.91a64.9,64.9,0,0,0-10.48-3.26l-.82-.12c-.25.54-.1.75.46.91,6.15,1.66,12.07,4,18,6.24a3.1,3.1,0,0,1,.36.25,17.87,17.87,0,0,1-5.1,1.1,15.34,15.34,0,0,1-7.31-1.81C86,29.17,84,28,81.92,26.94l-.34-.17c-.24.58,0,.89.44,1.18,2.74,1.68,5.46,3.38,8.19,5.07a.25.25,0,0,1,.16.16c-3.45.75-6.66.48-9.41-2-.43.44-.4.72,0,1,.91.67,1.8,1.36,2.77,2.11a7.32,7.32,0,0,1-3.92-.14.88.88,0,0,0-1.09.32,12.5,12.5,0,0,1-7.36,3.6c-.13-2.82-.26-5.53-.4-8.35-1.49,0-3.17.47-4.74-.52l-.32,1.42-.44-2.5c2.65.81,4.89-.58,7.26-1.69l-1.14.82-1.13.82.12.21c.82-.39,1.66-.74,2.46-1.18a19.88,19.88,0,0,0,2.1-1.31,3.94,3.94,0,0,0,1.71-2.39c.33-1.57.72-3.13,1-4.7A2.42,2.42,0,0,0,76.09,16a18.14,18.14,0,0,1-3-1.4c-.61-.32-1.32-.84-1.86-.39s-.1,1.28.17,1.87A5.61,5.61,0,0,0,74,18.59l-1.58-.32a5,5,0,0,0,2.9.89l0,.19a4.13,4.13,0,0,1-1.3.29c-.72-.06-.9.27-.87.86a5.48,5.48,0,0,1,0,1.4c-.25-.52-.51-1-.74-1.56-.1-.22-.11-.49-.22-.71s-.31-.53-.5-.56-.46.23-.58.44c-1,1.71-1.67,1.93-3.57,1.23a.91.91,0,0,0-.62.09A4.47,4.47,0,0,0,64.62,24c-.08.36-.13.73-.23,1.3a6.29,6.29,0,0,1,1-4.81,6,6,0,0,0-1.55-.38,3.13,3.13,0,0,1-3.35-2.44,7.3,7.3,0,0,1-.29-1c.92,1.23,1.52,3,3.83,1.76-.49-1.85-1-3.76-1.5-5.65-.11-.41-.42-.53-.83-.29-.61.35-1.23.67-1.85,1,0,0-.12,0-.13.07-.22,1.25-1.49,2-1.43,3.43a10.44,10.44,0,0,1-.19,2.37,13.13,13.13,0,0,0,.46,6.32,2.21,2.21,0,0,0,1,1L59,24.39l.18-.11A6.54,6.54,0,0,0,63.28,28a10.69,10.69,0,0,0-.36,1.71c0,1.78,0,3.56-.14,5.34L62.07,29l-2.61-.33c.14,2.74.27,5.47.41,8.35a9.87,9.87,0,0,1-3.79-2.27,1.55,1.55,0,0,0-1.63-.46,22.21,22.21,0,0,1-3.17.19l-.06-.25,2.27-1.66c.36-.27.65-.57.1-1.07-2.66,2.18-5.73,2.34-9.11,1.58.15-.07.3-.13.44-.21,2.45-1.53,4.89-3.06,7.35-4.58.44-.27.77-.55.52-1.24l-2.35,1.28c-2.71,1.48-5.41,3-8.51,3.51a12.39,12.39,0,0,1-5.8-.4l-1.84-.55c.93-.37,1.68-.68,2.44-.95Q44,27.41,51.2,24.89a7.27,7.27,0,0,0,1.15-.34c.23-.12.36-.43.53-.65-.23-.07-.48-.23-.68-.18-3.14,1-6.29,1.86-9.39,2.92s-6.47,2.18-10,2.14a24.77,24.77,0,0,1-9.4-2.12c-.77-.32-1.53-.66-2.47-1.07,2.37-.39,4.53-.68,6.66-1.11,3.66-.72,7.31-1.53,11-2.31a58.62,58.62,0,0,1,13.57-1.68c.44,0,.85,0,.63-.63a33.91,33.91,0,0,0-5.24,0c-4.7.74-9.38,1.66-14,2.57-4.24.82-8.48,1.61-12.84,1.26-6.56-.52-11.29-3.87-14.63-9.4-.23-.38-.43-.78-.64-1.17,0,0,0-.05,0-.19l1.41.54a52.05,52.05,0,0,0,16.88,2.65c5.29.09,10.59,0,15.89,0a65.49,65.49,0,0,1,13,1.13A.9.9,0,0,0,52.82,17.28Zm17.5-3.54h.07c.07-.72.17-1.45.18-2.17a1,1,0,0,0-.37-.69A3.66,3.66,0,0,0,69,10.43c-1.21-.22-1.92.5-1.78,1.71.1.82.18,1.64.23,2.47.1,1.42.11,2.85.27,4.27A1.65,1.65,0,0,0,68.49,20c.59.27,1.13-.1,1.56-.6a3.07,3.07,0,0,0,.43-2.3C70.42,16,70.37,14.87,70.32,13.74Zm-5-2.44c-1.2,0-2.31.61-1.75,2.15a33.1,33.1,0,0,1,.93,4.25,7.62,7.62,0,0,0,.44,1.5,1.34,1.34,0,0,0,1.93.71.64.64,0,0,0,.28-.49c-.05-1.05-.14-2.09-.24-3.13-.14-1.34-.32-2.67-.45-4A1,1,0,0,0,65.32,11.3Zm10,3.63.26-.24a10.7,10.7,0,0,0-.32-1.88,2.82,2.82,0,0,0-2-1.93c-1.39-.29-2.22.76-2,2.21Z"/><path class="cls-1" d="M96.26,52a14.7,14.7,0,0,1-1.65,0c-.15,0-.32-.28-.37-.46-.18-.65-.26-1.33-.47-2a.9.9,0,0,0-.59-.48,5.31,5.31,0,0,0-1.13,0c-1.72,0-1.72,0-2.07,1.69l-.25,1.23h-2c1.1-4.31,2.18-8.57,3.27-12.85h2ZM90.8,47.55h2.45c-.4-1.76-.79-3.44-1.17-5.12l-.15,0Z"/><path class="cls-1" d="M40.65,39.1,43,48.27l.16,0c.79-3,1.57-6.1,2.37-9.18h1.9c-.31,1.23-.6,2.44-.91,3.64-.69,2.72-1.39,5.44-2.06,8.17-.16.66-.37,1-1.17,1-1.73-.08-1.29.23-1.72-1.4-1-3.63-1.84-7.29-2.76-10.93,0-.14-.05-.29-.09-.47Z"/><path class="cls-1" d="M83.36,50.66c-.31,0-.48,0-.65.05-.77.17-1.12-.19-1.31-.91s-.57-1.67-.76-2.52-.84-.62-1.37-.63-.42.51-.43.84c0,1,0,2,0,3.15H77.43V40.3c1.37,0,2.7,0,4,0,1,0,1.89,1.18,2,2.57a4.19,4.19,0,0,1-1.12,3.54c-.17.15-.17.6-.1.86C82.56,48.39,83,49.47,83.36,50.66Zm-4.52-5.43c.72,0,1.34,0,2,0a1.08,1.08,0,0,0,.66-.39,2.44,2.44,0,0,0,0-2.74,3.2,3.2,0,0,0-2.34-.37.46.46,0,0,0-.23.33C78.84,43.08,78.84,44.12,78.84,45.23Z"/><path class="cls-1" d="M46.38,50.83c.26-1,.51-2,.77-3,.61-2.4,1.23-4.8,1.81-7.21.11-.42.33-.56.69-.47s1-.35,1.19.4q1.27,5,2.57,10a1.84,1.84,0,0,1,0,.35,5.61,5.61,0,0,1-1.09,0,.81.81,0,0,1-.52-.47c-.22-.64-.16-1.54-.58-1.88s-1.29-.09-2-.14c-.48,0-.77.12-.81.64a4.16,4.16,0,0,1-.13.59C48,51,48,51.07,46.38,50.83ZM51,47.22l-1-4.16h-.15l-.93,4.15Z"/><path class="cls-1" d="M63,45.62c.73-1.34,1.53-2.64,2.17-4a1.56,1.56,0,0,1,2.15-1c-.61,1.06-1.17,2.13-1.84,3.14a1.65,1.65,0,0,0-.12,2c.75,1.39,1.37,2.84,2,4.28a2.15,2.15,0,0,1,.09.41h-1.7l-1.7-4a4.4,4.4,0,0,0-1.24,4H61.48c0-.24,0-.5,0-.77,0-2.78,0-5.57,0-8.36,0-.52.1-.78.69-.78s.72.21.71.76c0,1.44,0,2.89,0,4.33Z"/><path class="cls-1" d="M75.64,40.63c-.62,1.48-1.16,2.91-1.81,4.28a7.34,7.34,0,0,0-.73,3.79c0,.54,0,1.1,0,1.71h-1.4c0-.84.06-1.71,0-2.57a8.94,8.94,0,0,0-.47-2.24c-.56-1.5-1.23-3-1.85-4.44-.07-.16-.1-.33-.16-.5,1.22-.33,1.47-.23,1.9.84s.83,2.14,1.34,3.42c.35-.91.65-1.65.93-2.39.12-.3.2-.62.32-.93C74.15,40.41,74.15,40.42,75.64,40.63Z"/><path class="cls-1" d="M54.68,40.33H56v8.84h3.81v1.45H54.68Z"/><path class="cls-1" d="M86.75,40.13V50.88H85.31c0-.23,0-.47,0-.71v-9c0-1.24-.1-1,1.1-1.06C86.47,40.09,86.57,40.11,86.75,40.13Z"/><path class="cls-1" d="M68,58c-.89-.66-.62-1.92-1.26-2.81a5.76,5.76,0,0,0,0,2.09c.38.86-.09.7-.56.7l-.39,0a11.87,11.87,0,0,0,.07-4.86c.44-.16.89-.26,1.07.51a6,6,0,0,0,.71,1.77L67.52,53a3.72,3.72,0,0,1,.74,0,.5.5,0,0,1,.28.38c-.05.47-.22.93-.24,1.39,0,1,0,2.05,0,3.08Z"/><path class="cls-1" d="M71.1,53a4,4,0,0,1,0,.74,1.7,1.7,0,0,1-.23.47c-.1-.14-.18-.28-.29-.41s-.21-.2-.32-.31c-.11.14-.29.26-.3.4,0,.41,0,.83,0,1.36l.89-.52v1.39L70,55.7c0,.57,0,1,0,1.49a.41.41,0,0,0,.28.25.69.69,0,0,0,.4-.23,3.36,3.36,0,0,0,.35-.49c.06.22.14.44.18.66a3.47,3.47,0,0,1,0,.57H69.34V54.42c0-.1,0-.2,0-.3,0-.34-.11-.69-.16-1l1.4-.08Z"/><path class="cls-1" d="M75.25,57.46l.71,0c.1-.66.12-1.21-.57-1.56a1.61,1.61,0,0,1-.79-2c.07-.31.34-.75.6-.81a1.75,1.75,0,0,1,1.17.21c.16.1.16.53.2.81,0,0-.26.17-.27.16-.15-.19-.28-.4-.47-.69h-.59a1.54,1.54,0,0,0,.75,2c.81.43.69,1.14.57,1.82a.79.79,0,0,1-1,.62,2.41,2.41,0,0,1-.92-.72c-.06-.08.11-.37.17-.56.13.15.27.29.4.45A1.07,1.07,0,0,1,75.25,57.46Z"/><path class="cls-1" d="M73.22,57.42a1.35,1.35,0,0,0-.72-1.69c-.9-.48-.74-1.31-.63-2,0-.26.53-.54.86-.65a.82.82,0,0,1,1.1.53c.06.19-.11.46-.17.7l-.4-.5a.84.84,0,0,1-.08-.21H72.5a1.47,1.47,0,0,0,.68,1.93,1.37,1.37,0,0,1,.66,1.72A1.5,1.5,0,0,1,73,58a.91.91,0,0,1-1.15-.59,1.11,1.11,0,0,1,0-.64s.24-.08.26,0a2.39,2.39,0,0,1,.24.48,1.63,1.63,0,0,1,.07.23Z"/><path class="cls-1" d="M58.34,57.94a12.51,12.51,0,0,0-.06-4.57c0-.09.11-.32.18-.32a10.29,10.29,0,0,1,1.57,0c.11,0,.25.34.26.52a2.78,2.78,0,0,1-.18.67c-.11-.11-.23-.22-.34-.34s-.28-.3-.41-.46l-.19.13v1.7l.85-.48v1.37l-.94-.48c0,.65-.1,1.29.14,1.67.47.72.05.65-.4.65A3.31,3.31,0,0,1,58.34,57.94Z"/><path class="cls-1" d="M63.47,53.46l-.58.79-.35-1.16h2.75l-.24,1.14-.66-.79v4.49a3.13,3.13,0,0,1-.73,0,.47.47,0,0,1-.27-.38c0-.49.22-1,.26-1.47.05-.73,0-1.46,0-2.19A1.49,1.49,0,0,0,63.47,53.46Z"/><path class="cls-1" d="M60.82,57.93c.58-1.2.27-2.42.32-3.62a4,4,0,0,0-.24-.85c0-.12,0-.38.06-.39a5.12,5.12,0,0,1,1,0s.12.25.1.37c-.07.39-.22.76-.26,1.15a7.69,7.69,0,0,0,0,1.27c0,.68.1,1.35.16,2.08Z"/><path class="cls-1" d="M69.62,34.27c.21,1.38.41,2.62.61,4l-.93,0C69.4,36.93,69.51,35.66,69.62,34.27Z"/><path class="cls-1" d="M60.72,34.66l.93,2.56c-.6.1-.91-.12-.93-.87C60.7,35.77,60.72,35.2,60.72,34.66Z"/><path class="cls-1" d="M57.65,56c-.72,0-1.22,0-1.71,0a.4.4,0,0,1-.29-.24c0-.1.1-.33.17-.34a12.33,12.33,0,0,1,1.49,0C57.41,55.39,57.49,55.67,57.65,56Z"/><path class="cls-1" d="M77.25,55.87c.6-.9,1.38-.34,2-.57C79.29,56.06,79.15,56.1,77.25,55.87Z"/><path class="cls-1" d="M76.43,21.91a2.5,2.5,0,0,1-1.08,2.3Z"/></g></svg>