<?xml version="1.0" encoding="utf-8"?>
<!-- Generator: Adobe Illustrator 25.0.1, SVG Export Plug-In . SVG Version: 6.00 Build 0)  -->
<svg version="1.1" id="Layer_1" xmlns="http://www.w3.org/2000/svg" xmlns:xlink="http://www.w3.org/1999/xlink" x="0px" y="0px"
	 width="125px" height="125px" viewBox="0 0 125 125" style="enable-background:new 0 0 125 125;" xml:space="preserve">
<style type="text/css">
	.st0{fill:#E9CF49;}
	.st1{fill:#231F20;stroke:#231F20;stroke-width:0.5;stroke-miterlimit:10;}
</style>
<circle class="st0" cx="62.5" cy="62.5" r="62.5"/>
<g>
	<path class="st1" d="M12.13,65.06l11.23,3.28l0.07,1.4l-12.97,2.8L10.4,71.2l10.35-2.23l-10.62-3.1l-0.07-1.4l10.25-4.15
		L9.79,59.13l-0.07-1.35l13.18,1.49l0.07,1.4L12.13,65.06z"/>
	<path class="st1" d="M11.82,48.2c0.97-3.44,4.5-4.42,7.98-3.44c3.44,0.97,5.96,3.65,4.99,7.09c-0.97,3.44-4.53,4.45-7.97,3.48
		C13.34,54.36,10.85,51.64,11.82,48.2z M23.52,51.52c0.62-2.21-1.19-4.68-4.08-5.49s-5.74,0.34-6.37,2.55s1.21,4.67,4.1,5.48
		C20.07,54.87,22.9,53.73,23.52,51.52z"/>
	<path class="st1" d="M15.26,39.32l1.53-2.6c1.57-2.67,3.98-3.37,6-2.18c1.61,0.94,2.3,2.69,1.75,4.71l6.43-0.82l-0.85,1.44
		l-6.17,0.78l-0.98,1.67l4.24,2.49l-0.67,1.15L15.26,39.32z M22.12,35.68c-1.36-0.8-2.9-0.47-4.47,2.2l-0.57,0.97l4.75,2.79
		l0.57-0.97C23.97,38,23.48,36.48,22.12,35.68z"/>
	<path class="st1" d="M21.9,28.95L22.83,28l4.57,4.49l-0.73-8.41l1.21-1.24l0.7,8.17l9.45,0.19l-1.26,1.29l-8.07-0.16l0.14,1.57
		l3.34,3.27l-0.93,0.95L21.9,28.95z"/>
	<path class="st1" d="M43.95,15.59l0.51,11.7l-1.31,0.52l-6.82-11.38l1.25-0.5l5.44,9.08l-0.48-11.05l1.31-0.52l7.23,8.38
		l-2.26-10.34l1.25-0.5l2.83,12.96l-1.31,0.52L43.95,15.59z"/>
	<path class="st1" d="M54.89,10.58l1.32-0.18l1.73,12.98l-1.32,0.17L54.89,10.58z"/>
	<path class="st1" d="M60.09,9.92l8.35,0.29l-0.05,1.33l-3.51-0.12l-0.4,11.75l-1.33-0.05l0.4-11.75l-3.51-0.12L60.09,9.92z"/>
	<path class="st1" d="M77.46,20.68l-6.23-1.72l-1.31,4.74l-1.28-0.36l3.5-12.62l1.28,0.36l-1.83,6.59l6.23,1.73l1.83-6.59l1.28,0.36
		l-3.49,12.62l-1.28-0.36L77.46,20.68z"/>
	<path class="st1" d="M90.84,18.04l1.11,0.87l-3.86,10.97l9.73-6.38l1.11,0.87l-7.32,10.89l-1.06-0.83l5.52-8.18l-8.69,5.7
		l-1.11-0.87l3.45-9.8l-6.62,7.31l-1.06-0.83L90.84,18.04z"/>
	<path class="st1" d="M102.36,28.18l4.43,5.94l-1.07,0.79l-3.64-4.87l-4.42,3.3l3.64,4.87l-1.07,0.8l-3.64-4.88l-2.88,2.15
		l3.64,4.88l-1.07,0.79l-4.43-5.94L102.36,28.18z"/>
</g>
</svg>
