<?xml version="1.0" encoding="utf-8"?>
<!-- Generator: Adobe Illustrator 25.0.1, SVG Export Plug-In . SVG Version: 6.00 Build 0)  -->
<svg version="1.1" xmlns="http://www.w3.org/2000/svg" xmlns:xlink="http://www.w3.org/1999/xlink" x="0px" y="0px"
	 viewBox="0 0 80 80" style="enable-background:new 0 0 80 80;" xml:space="preserve">
<style type="text/css">
	.st0{fill:#2C4586;}
	.st1{fill:#B9B9B9;}
	.st2{fill:#F9F9F9;}
	.st3{fill:none;}
	.st4{fill:#B4B4B4;}
	.st5{fill:#F8F8F8;}
</style>
<g id="Layer_1">
	<circle class="st0" cx="40" cy="40" r="40"/>
	<rect x="57.57" y="-297.74" class="st1" width="42.26" height="42.26"/>
	<rect x="121.74" y="-297.74" class="st2" width="42.26" height="42.26"/>
</g>
<g id="Layer_3_copy">
	<g>
		<path class="st3" d="M32.24,28.2c0.09-0.11,0.19-0.22,0.29-0.32C32.43,27.98,32.34,28.09,32.24,28.2z"/>
		<path class="st3" d="M45.23,42.3c-2.72-1.22-5.31-2.78-7.88-4.28c-1.07-0.62-2.21-1.24-3.13-2.01c0,0,0,0,0,0
			c-0.36-0.21-1.5-0.83-1.6-0.89c-0.67-0.42-0.92-0.68-1.38-1.32c-0.06-0.08-0.15-0.22-0.22-0.34c0.14,0.7,0.45,1.33,0.94,1.86
			c0.63,0.67,1.43,1.13,2.17,1.67c0.53,0.39,1.04,0.79,1.61,1.11c0.15,0.08,0.3,0.16,0.46,0.24c2.23,1.12,4.41,2.35,6.65,3.46
			c0.23,0.11,0.46,0.23,0.69,0.34c1.96,0.97,4.1,2.04,5.32,3.93c0.2,0.31,0.36,0.64,0.49,0.98c-0.23-1.32-0.8-2.54-1.27-3.18
			C47.19,43.24,46.18,42.73,45.23,42.3z"/>
		<path class="st3" d="M35.07,26.35c-0.09,0.03-0.17,0.07-0.26,0.11c0.21-0.08,0.43-0.15,0.65-0.21
			C35.33,26.29,35.2,26.31,35.07,26.35z"/>
		<path class="st3" d="M33.94,26.85c0.11-0.06,0.23-0.12,0.35-0.17C34.17,26.73,34.05,26.79,33.94,26.85z"/>
		<path class="st3" d="M31.75,28.87c-0.01,0.01-0.01,0.02-0.01,0.03c0.02-0.04,0.05-0.07,0.07-0.1
			C31.78,28.83,31.76,28.85,31.75,28.87z"/>
		<path class="st3" d="M33.06,27.41c0.08-0.06,0.16-0.12,0.24-0.18C33.22,27.29,33.14,27.35,33.06,27.41z"/>
		<path class="st4" d="M18.49,38.55c-0.43-2.96,2.66-5.32,4.46-7.32c2.06-2.3,4.14-4.58,6.21-6.87c1.65-1.81,3.31-3.62,4.97-5.43
			c1.35-1.47,2.6-3.05,4.46-3.91c1.81-0.84,3.36-0.54,4.85,0.15c-0.45-0.23-1.12-0.63-1.44-0.73c-0.39-0.13-0.8-0.24-1.2-0.31
			c-0.81-0.14-1.64-0.17-2.45-0.07c-1.32,0.16-2.73,0.75-3.71,1.67c-0.09,0.09-0.18,0.18-0.27,0.27c-0.57,0.58-1.13,1.18-1.69,1.77
			c-0.91,0.97-1.82,1.93-2.73,2.9c-1.11,1.19-2.21,2.37-3.31,3.56c-1.15,1.25-2.3,2.5-3.45,3.75c-1.05,1.15-2.1,2.3-3.14,3.47
			c-0.44,0.49-0.88,0.98-1.32,1.48c-0.64,0.73-1.41,1.45-1.88,2.31c-0.12,0.22-0.22,0.45-0.29,0.69c-0.52,1.73,0.33,3.57,1.86,4.48
			c0,0,1.71,1.02,2.62,1.56C19.78,41.16,18.72,40.15,18.49,38.55z"/>
		<path class="st4" d="M43.74,15.32c-0.03-0.01-0.07-0.03-0.1-0.05c0.02,0.01,0.04,0.02,0.06,0.03
			C43.72,15.31,43.73,15.31,43.74,15.32z"/>
		<path class="st4" d="M34.81,26.46c-0.18,0.07-0.36,0.14-0.53,0.22c-0.12,0.05-0.23,0.11-0.35,0.17c-0.22,0.12-0.43,0.24-0.63,0.39
			c-0.08,0.06-0.16,0.12-0.24,0.18c-0.19,0.14-0.36,0.3-0.53,0.47c-0.1,0.1-0.2,0.21-0.29,0.32c-0.16,0.19-0.31,0.39-0.44,0.6
			c-0.02,0.03-0.05,0.07-0.07,0.1c-0.65,1.14-0.87,2.77-0.78,4.05c0.01,0.17,0.04,0.34,0.08,0.5c0.07,0.12,0.16,0.26,0.22,0.34
			c0.46,0.64,0.71,0.9,1.38,1.32c0.1,0.06,1.24,0.68,1.6,0.89c0,0,0,0,0,0c-1.19-1-2-2.27-1.79-4.18c0.18-1.66,1.29-3.19,2.8-3.88
			c1.32-0.61,2.86-0.59,4.26-0.21c0.53,0.14,1.03,0.34,1.53,0.56c-0.25-0.17-0.6-0.38-0.71-0.45c-0.18-0.11-0.35-0.22-0.54-0.32
			c-0.36-0.2-0.74-0.39-1.12-0.55c-0.75-0.33-1.53-0.58-2.33-0.76c-0.15-0.03-0.3-0.06-0.45-0.06c-0.08,0-0.16,0.02-0.24,0.04
			c-0.06,0.02-0.12,0.03-0.18,0.05C35.24,26.31,35.03,26.38,34.81,26.46z"/>
		<path class="st4" d="M17.49,47.06c0.69-0.77,1.67-1.25,2.67-1.51c1.94-0.51,3.68-0.01,5.33,0.82c-2.87-1.77-9.26-4.93-11.47,1.34
			c-1.31,3.71,3.91,6.05,3.91,6.05c-0.01-0.01-0.01-0.02-0.02-0.03c-0.8-0.8-1.37-1.78-1.51-3.15C16.27,49.33,16.64,48,17.49,47.06z
			"/>
		<path class="st4" d="M45.29,54.33c1.46-0.26,2.94-0.74,4.03-1.76c0.74-0.69,1.25-1.61,1.48-2.6c0.21-0.88,0.19-1.8-0.04-2.67
			c-0.39-1.48-1.43-2.57-2.66-3.44c0.47,0.64,1.04,1.86,1.27,3.18c0.36,0.93,0.45,1.95,0.12,2.89c-0.29,0.84-0.89,1.55-1.59,2.09
			c-1.46,1.15-3.18,1.5-4.87,1.27c-0.82,0.08-2.06,0.18-4.14,0.61c0.34,0.13,0.68,0.25,1.03,0.34
			C41.67,54.7,43.52,54.65,45.29,54.33z"/>
		<path class="st5" d="M35.24,27.95c-1.52,0.7-2.62,2.22-2.8,3.88c-0.21,1.91,0.6,3.18,1.79,4.18c0.92,0.77,2.06,1.38,3.13,2.01
			c2.57,1.5,5.16,3.06,7.88,4.28c0.95,0.43,1.96,0.94,2.86,1.57c1.23,0.86,2.27,1.96,2.66,3.44c0.23,0.87,0.24,1.79,0.04,2.67
			c-0.23,0.98-0.74,1.9-1.48,2.6c-1.08,1.02-2.56,1.49-4.03,1.76c-1.77,0.32-3.61,0.37-5.36-0.08c-0.35-0.09-0.69-0.21-1.03-0.34
			c-1.32-0.49-2.55-1.19-3.77-1.9c-1.96-1.15-3.93-2.29-5.89-3.44c-1.23-0.72-2.46-1.56-3.75-2.2c-1.65-0.82-3.39-1.32-5.33-0.82
			c-1,0.26-1.97,0.74-2.67,1.51c-0.85,0.94-1.22,2.26-1.09,3.52c0.14,1.37,0.71,2.35,1.51,3.15c0.82,0.82,1.89,1.46,2.99,2.11
			c1.55,0.92,3.16,1.75,4.73,2.65c3.53,2.02,7.06,4.02,10.55,6.1c1.36,0.81,2.87,1.5,4.46,1.48c3.47-0.03,5.79-3.16,7.96-5.45
			c4.77-5.03,9.31-10.28,13.96-15.4c0.11-0.12,0.21-0.24,0.31-0.36c0.64-0.81,1.09-1.81,0.86-2.8c-0.14-0.61-0.53-1.14-0.95-1.6
			c-1.66-1.8-3.9-2.73-6.01-3.89c-2.49-1.37-5.03-2.68-7.55-4c-1.47-0.77-2.95-1.53-4.42-2.29c-1.25-0.64-2.47-1.42-3.76-1.99
			c-0.5-0.22-1.01-0.42-1.53-0.56C38.1,27.36,36.56,27.34,35.24,27.95z"/>
		<path class="st5" d="M39.29,25.91c2.81,0.12,5.5,2.18,7.92,3.5c1.9,1.03,3.82,2.03,5.7,3.08c1.57,0.87,3.01,2.07,4.76,2.56
			c0.11,0.03,0.23,0.06,0.34,0.09c1.47,0.32,3.01,0.06,4.44-0.4c2.39-0.76,3.78-2.23,3.58-4.82c-0.04-0.47-0.1-0.96-0.36-1.35
			c-0.44-0.67-1.33-1.01-2-1.41c-0.89-0.53-1.78-1.06-2.67-1.59c-1.82-1.08-3.64-2.17-5.46-3.25c-3.09-1.84-6.18-3.68-9.27-5.52
			c-0.88-0.52-1.72-1.06-2.58-1.49c-0.02-0.01-0.04-0.02-0.06-0.03c-0.07-0.03-0.13-0.06-0.2-0.09c-1.5-0.69-3.04-0.99-4.85-0.15
			c-1.86,0.86-3.11,2.44-4.46,3.91c-1.66,1.8-3.32,3.61-4.97,5.43c-2.08,2.28-4.15,4.57-6.21,6.87c-1.8,2-4.89,4.37-4.46,7.32
			c0.23,1.6,1.29,2.61,2.54,3.42c0.85,0.55,1.78,1.01,2.62,1.48c2.07,1.17,4.17,2.31,6.26,3.44c3.33,1.8,6.76,3.44,10.03,5.34
			c0.97,0.56,2.02,0.93,3.09,1.07c1.69,0.23,3.41-0.13,4.87-1.27c0.7-0.55,1.3-1.25,1.59-2.09c0.32-0.93,0.23-1.96-0.12-2.89
			c-0.13-0.34-0.3-0.67-0.49-0.98c-1.22-1.89-3.37-2.96-5.32-3.93c-0.23-0.11-0.46-0.23-0.69-0.34c-2.24-1.11-4.42-2.34-6.65-3.46
			c-0.15-0.08-0.31-0.15-0.46-0.24c-0.57-0.32-1.08-0.72-1.61-1.11c-0.74-0.54-1.54-1-2.17-1.67c-0.5-0.53-0.81-1.17-0.94-1.86
			c-0.03-0.17-0.06-0.33-0.08-0.5c-0.09-1.28,0.13-2.92,0.78-4.05c0.01-0.01,0.01-0.02,0.01-0.03c0.02-0.03,0.04-0.05,0.05-0.07
			c0.13-0.21,0.28-0.41,0.44-0.6c0.09-0.11,0.19-0.22,0.29-0.32c0.17-0.17,0.34-0.33,0.53-0.47c0.08-0.06,0.16-0.12,0.24-0.18
			c0.2-0.14,0.41-0.27,0.63-0.39c0.11-0.06,0.23-0.12,0.35-0.17c0.17-0.08,0.35-0.15,0.53-0.22c0.09-0.03,0.17-0.08,0.26-0.11
			c0.13-0.04,0.26-0.06,0.39-0.1c0.06-0.02,0.12-0.03,0.18-0.05C36.83,25.92,38.07,25.86,39.29,25.91z"/>
	</g>
</g>
</svg>
