<?xml version="1.0" encoding="utf-8"?>
<!-- Generator: Adobe Illustrator 25.0.1, SVG Export Plug-In . SVG Version: 6.00 Build 0)  -->
<svg version="1.1" xmlns="http://www.w3.org/2000/svg" xmlns:xlink="http://www.w3.org/1999/xlink" x="0px" y="0px"
	 viewBox="0 0 80 80" style="enable-background:new 0 0 80 80;" xml:space="preserve">
<style type="text/css">
	.st0{fill:#111045;}
	.st1{fill:#FFFFFF;}
</style>
<g id="Layer_3">
</g>
<g id="Layer_4_copy">
	<g>
		<path class="st0" d="M65.87,70.51C58.89,76.42,49.86,80,40,80c-9.86,0-18.89-3.58-25.87-9.49l19.73-32.83l-8.42-12.27L4.64,58.71
			C1.67,53.13,0,46.75,0,40C0,17.91,17.91,0,40,0l-8.04,14.14L53.47,49.9H37.66L31.1,63.05h30.28L65.87,70.51z"/>
		<path class="st0" d="M80,40c0,6.48-1.54,12.6-4.28,18.02L40,0C62.09,0,80,17.91,80,40z"/>
		<path class="st1" d="M33.86,37.68L14.13,70.51c-3.87-3.29-7.11-7.29-9.5-11.8l20.81-33.29L33.86,37.68z"/>
		<path class="st1" d="M75.72,58.02c-2.43,4.8-5.79,9.05-9.86,12.49l-4.49-7.46H31.1l6.56-13.15h15.81L31.96,14.14L40,0L75.72,58.02
			z"/>
	</g>
</g>
</svg>
