<?xml version="1.0" encoding="utf-8"?>
<!-- Generator: Adobe Illustrator 25.0.1, SVG Export Plug-In . SVG Version: 6.00 Build 0)  -->
<svg version="1.1" id="Layer_1_copy_2" xmlns="http://www.w3.org/2000/svg" xmlns:xlink="http://www.w3.org/1999/xlink" x="0px"
	 y="0px" viewBox="0 0 80 80" style="enable-background:new 0 0 80 80;" xml:space="preserve">
<style type="text/css">
	.st0{fill:#644B9E;}
	.st1{fill-rule:evenodd;clip-rule:evenodd;fill:#FFE300;}
	.st2{fill-rule:evenodd;clip-rule:evenodd;fill:#644B9E;}
	.st3{fill-rule:evenodd;clip-rule:evenodd;fill:#F8981D;}
	.st4{fill:#FFFFFF;}
	.st5{fill-rule:evenodd;clip-rule:evenodd;fill:#ED1E5D;}
</style>
<circle class="st0" cx="40" cy="40" r="40"/>
<g id="Layer_2_copy_3">
	<g>
		<g>
			<path class="st1" d="M41.58,39.59c-0.3-2.29-1.34-4.52-2.17-6.02c-2.65-5.31-8.39-9-14.82-9c-6.48,0-12.48,3.74-15.22,9.13
				c-0.82,1.5-1.81,3.66-2.11,5.89c-0.75,5.67,1.62,7.52,2.76,8.02c2.96,4.7,8.55,7.83,14.56,7.83c6.01,0,11.42-3.14,14.26-7.84
				C39.99,47.08,42.32,45.21,41.58,39.59"/>
			<path class="st0" d="M42.12,39.52c-0.24-1.85-1-3.94-2.16-6.05c-0.87-1.78-2.06-3.38-3.51-4.74c-3.21-3.03-7.46-4.71-11.88-4.7
				c-4.46,0.03-8.76,1.7-12.07,4.69c-1.54,1.39-2.81,3.06-3.74,4.92c-1.11,2.05-1.82,4.08-2.06,5.88c-0.53,4.01,0.48,6.19,1.42,7.3
				c0.41,0.5,0.92,0.9,1.5,1.19c0.81,1.24,1.78,2.37,2.88,3.35c3.33,2.95,7.62,4.58,12.07,4.6c4.4,0.02,8.64-1.63,11.87-4.6
				c1.08-0.99,2.01-2.12,2.78-3.36c0.56-0.29,1.06-0.69,1.46-1.17C42.41,44.8,42.42,41.73,42.12,39.52 M38.46,47.16
				c-0.07,0.03-0.14,0.05-0.21,0.06c-0.85,0.06-1.47-0.12-1.91-0.53c-1.13-1.1-0.95-3.82-0.78-6.23c0.09-1.33,0.18-2.59,0.07-3.62
				c-0.22-1.98-1.64-4.22-1.71-4.31c-0.17-0.25-0.5-0.33-0.76-0.17c-0.25,0.15-0.34,0.47-0.19,0.72c0,0.01,0.01,0.01,0.01,0.02
				c0.01,0.02,1.35,2.12,1.54,3.86c0.1,0.94,0.02,2.15-0.07,3.43c-0.19,2.76-0.38,5.62,1.11,7.06c0.54,0.52,1.27,0.81,2.15,0.85
				c-0.6,0.83-1.27,1.59-2.02,2.28c-3.03,2.79-7,4.33-11.11,4.31c-4.17-0.02-8.2-1.55-11.32-4.31c-0.77-0.69-1.47-1.45-2.1-2.28
				c0.87-0.05,1.57-0.33,2.11-0.85c1.49-1.44,1.3-4.3,1.11-7.06c-0.09-1.28-0.17-2.5-0.07-3.43c0.19-1.73,1.53-3.84,1.54-3.86
				c0.16-0.25,0.09-0.57-0.16-0.73c-0.01,0-0.01-0.01-0.02-0.01c-0.26-0.16-0.6-0.08-0.76,0.17c-0.06,0.09-1.49,2.33-1.71,4.31
				c-0.11,1.03-0.03,2.29,0.07,3.62c0.16,2.41,0.35,5.13-0.78,6.23c-0.43,0.42-1.06,0.59-1.9,0.53c-0.07-0.01-0.13-0.03-0.19-0.05
				c-0.58-0.23-1.08-0.61-1.46-1.1c-0.77-0.96-1.6-2.85-1.12-6.42c0.22-1.69,0.91-3.62,1.97-5.58c0.36-0.66,0.75-1.32,1.19-1.97
				c0.04-0.06,0.07-0.1,0.08-0.13c0.01-0.01,0.01-0.02,0.02-0.04c0.64-0.88,1.38-1.7,2.19-2.43c3.1-2.81,7.13-4.37,11.32-4.4
				c4.13-0.01,8.1,1.56,11.11,4.39c0.75,0.7,1.42,1.47,2.02,2.31c0.01,0.06,0.03,0.12,0.07,0.17c0.01,0.02,0.04,0.06,0.08,0.13
				c0.4,0.61,0.77,1.22,1.11,1.82c1.11,2.01,1.83,3.99,2.06,5.73c0.47,3.57-0.35,5.46-1.12,6.42
				C39.53,46.56,39.03,46.93,38.46,47.16"/>
			<path class="st2" d="M32.81,36.46c0.01,0.75-0.74,1.42-1.59,1.42c-0.82,0-1.5-0.8-1.52-1.81c-0.02-0.83,0.53-1.38,1.38-1.41
				C31.96,34.64,32.8,35.52,32.81,36.46"/>
			<path class="st2" d="M19.13,36.11c-0.03,1.01-0.72,1.8-1.54,1.78c-0.85-0.02-1.58-0.69-1.56-1.45c0.02-0.95,0.88-1.81,1.75-1.77
				C18.63,34.71,19.15,35.27,19.13,36.11"/>
			<path class="st0" d="M26.77,35.89c-0.74-0.12-1.48-0.18-2.23-0.19v0c-0.04,0-0.08,0-0.12,0c-0.04,0-0.08,0-0.12,0v0
				c-0.75,0.01-1.49,0.08-2.23,0.19c-0.42,0.06-0.47,0.24-0.29,0.57c0.53,0.93,1.22,1.75,2.04,2.43c0.14,0.12,0.3,0.2,0.48,0.23
				c0,0,0.01,0,0.01,0c0.01,0,0.03,0,0.04,0.01c0,0,0.01,0,0.01,0c0.01,0,0.03,0,0.04,0h0.05c0.01,0,0.03,0,0.04,0
				c0,0,0.01,0,0.01,0c0.01,0,0.03,0,0.04-0.01c0,0,0,0,0.01,0c0.18-0.03,0.35-0.11,0.48-0.23c0.82-0.68,1.51-1.5,2.04-2.43
				C27.24,36.13,27.18,35.95,26.77,35.89"/>
			<path class="st0" d="M22.61,42.13c-1.32-0.02-2.37-1.1-2.35-2.42v-0.45c0.01-0.31,0.27-0.55,0.57-0.54
				c0.29,0.01,0.53,0.24,0.54,0.54v0.45c0,0.74,0.56,1.34,1.25,1.34s1.25-0.6,1.25-1.34v-0.84c0.01-0.31,0.26-0.55,0.57-0.54
				c0.29,0.01,0.53,0.24,0.54,0.54v0.84C24.98,41.03,23.93,42.11,22.61,42.13"/>
			<path class="st0" d="M26.23,42.13c-1.32-0.02-2.37-1.1-2.35-2.42v-0.84c0.01-0.31,0.26-0.55,0.57-0.54
				c0.29,0.01,0.53,0.24,0.54,0.54v0.84c0,0.74,0.56,1.34,1.25,1.34s1.25-0.6,1.25-1.34v-0.45c0.01-0.31,0.26-0.55,0.57-0.54
				c0.29,0.01,0.53,0.24,0.54,0.54v0.45C28.6,41.03,27.55,42.11,26.23,42.13"/>
			<path class="st3" d="M68.32,32.59l-1.08-6.55c-0.07-0.36-0.42-0.6-0.78-0.53c-0.08,0.02-0.16,0.05-0.23,0.09l-5.45,3.33
				c-1.38-0.2-2.79-0.2-4.17,0l-5.47-3.32c-0.31-0.19-0.72-0.1-0.92,0.22c-0.04,0.07-0.07,0.15-0.09,0.23l-1.08,6.55
				c-2.55,2.4-4,5.74-4,9.24c0,7.21,6.11,13.06,13.64,13.06c7.53,0,13.64-5.85,13.64-13.06C72.32,38.33,70.87,34.99,68.32,32.59"/>
			<path class="st0" d="M66.58,25.5c0.32,0,0.6,0.22,0.65,0.54l1.08,6.55c2.55,2.4,4,5.74,4,9.24c0,7.21-6.11,13.06-13.64,13.06
				s-13.64-5.85-13.64-13.06c0.01-3.5,1.46-6.84,4-9.24l1.09-6.55c0.06-0.32,0.33-0.55,0.65-0.54c0.12,0,0.25,0.03,0.35,0.1
				l5.47,3.32c1.38-0.2,2.79-0.2,4.17,0l5.45-3.33C66.34,25.54,66.46,25.5,66.58,25.5 M66.58,24.43c-0.33,0-0.66,0.09-0.94,0.26
				l-5.11,3.12c-1.22-0.15-2.45-0.15-3.67,0l-5.13-3.12c-0.28-0.17-0.61-0.26-0.94-0.26c-0.86-0.01-1.6,0.6-1.75,1.45l-1.03,6.21
				c-2.61,2.58-4.07,6.09-4.08,9.76c0,3.78,1.54,7.33,4.32,10c5.86,5.51,14.99,5.51,20.85,0c2.79-2.67,4.32-6.22,4.32-10
				c0-3.67-1.47-7.18-4.08-9.76l-1.03-6.21C68.18,25.03,67.44,24.41,66.58,24.43"/>
			<path class="st4" d="M52.18,28.36c-0.16-0.1-0.37-0.05-0.46,0.11c-0.02,0.04-0.04,0.07-0.04,0.12l-0.36,2.2
				c0.85-0.55,1.76-0.98,2.72-1.3L52.18,28.36z"/>
			<path class="st0" d="M52.77,28.75L52.77,28.75 M52,28.31c-0.16,0-0.3,0.11-0.33,0.27l-0.36,2.2c0.85-0.55,1.76-0.98,2.72-1.3
				l-1.84-1.13C52.13,28.33,52.07,28.31,52,28.31"/>
			<path class="st4" d="M65.19,28.36c0.16-0.1,0.37-0.05,0.46,0.11c0.02,0.04,0.04,0.07,0.04,0.12l0.36,2.2
				c-0.85-0.55-1.76-0.98-2.72-1.3L65.19,28.36z"/>
			<path class="st0" d="M65.78,29.27L65.78,29.27 M65.37,28.31c-0.06,0-0.12,0.02-0.18,0.05l-1.84,1.13
				c0.96,0.31,1.87,0.75,2.72,1.3l-0.36-2.2C65.67,28.42,65.53,28.31,65.37,28.31"/>
			<path class="st0" d="M52.56,40.85c-1.48,0-2.6-1.67-2.6-3.88c0.01-0.31,0.26-0.55,0.57-0.54c0.29,0.01,0.53,0.24,0.54,0.54
				c0,1.55,0.67,2.81,1.49,2.81c0.83,0,1.52-1.29,1.52-2.81c0.01-0.31,0.26-0.55,0.57-0.54c0.29,0.01,0.53,0.24,0.54,0.54
				C55.19,39.18,54.06,40.85,52.56,40.85"/>
			<path class="st0" d="M64.82,40.85c-1.5,0-2.63-1.67-2.63-3.88c0.01-0.31,0.26-0.55,0.57-0.54c0.29,0.01,0.53,0.24,0.54,0.54
				c0,1.52,0.7,2.81,1.52,2.81c0.82,0,1.49-1.26,1.49-2.81c0.01-0.31,0.26-0.55,0.57-0.54c0.29,0.01,0.53,0.24,0.54,0.54
				C67.41,39.18,66.3,40.85,64.82,40.85"/>
			<path class="st2" d="M55.92,41.48L55.92,41.48c0,1.21,0.15,5.76,0.45,6.93c0.36,1.28,1.68,2.02,2.96,1.66
				c0.81-0.23,1.44-0.86,1.66-1.66c0.3-1.17,0.45-5.73,0.45-6.93H55.92z"/>
			<path class="st5" d="M56.48,47.94c0-1.01,0.99-1.83,2.21-1.83c1.22,0,2.21,0.82,2.21,1.83c0,1.01-0.99,1.83-2.21,1.83
				S56.48,48.95,56.48,47.94"/>
			<rect x="56.26" y="41.71" class="st4" width="4.86" height="1.76"/>
			<path class="st0" d="M61.45,40.95h-2.42l1.26-1.4c0.1-0.11,0.1-0.29-0.02-0.4c-0.01-0.01-0.02-0.01-0.02-0.02
				c-0.09-0.06-0.19-0.1-0.3-0.1h-2.52c-0.11,0-0.21,0.03-0.3,0.1c-0.13,0.09-0.15,0.27-0.06,0.39c0.01,0.01,0.01,0.02,0.02,0.02
				l1.27,1.4h-2.43c-0.3,0-0.55,0.24-0.55,0.54c0,0.89,0.13,5.74,0.47,7.06c0.44,1.57,2.08,2.49,3.65,2.05
				c0.99-0.28,1.77-1.06,2.05-2.05c0.34-1.33,0.47-6.18,0.47-7.06C62,41.18,61.75,40.94,61.45,40.95
				C61.45,40.95,61.45,40.95,61.45,40.95 M60.46,48.29c-0.28,0.98-1.29,1.55-2.27,1.28c-0.62-0.17-1.1-0.66-1.28-1.28
				c-0.25-0.95-0.4-4.59-0.43-6.27h4.41C60.86,43.69,60.71,47.33,60.46,48.29"/>
		</g>
	</g>
</g>
</svg>
