<?xml version="1.0" encoding="utf-8"?>
<!-- Generator: Adobe Illustrator 25.0.1, SVG Export Plug-In . SVG Version: 6.00 Build 0)  -->
<svg version="1.1" xmlns="http://www.w3.org/2000/svg" xmlns:xlink="http://www.w3.org/1999/xlink" x="0px" y="0px"
	 viewBox="0 0 80 80" style="enable-background:new 0 0 80 80;" xml:space="preserve">
<style type="text/css">
	.st0{fill:#2E3381;}
	.st1{fill:#FFFFFF;}
	.st2{fill:url(#SVGID_1_);}
</style>
<g id="Layer_1">
	<circle class="st0" cx="40" cy="40" r="40"/>
</g>
<g id="Layer_3">
	<g>
		<path class="st1" d="M66,40c0,9.66-5.27,18.09-13.08,22.57c-1.74,1-3.6,1.8-5.56,2.37V35.26l5.56-5.56v26.56
			c4.78-3.8,7.85-9.67,7.85-16.26c0-11.47-9.3-20.77-20.77-20.77S19.23,28.53,19.23,40c0,6.59,3.07,12.46,7.85,16.26V39.84
			l5.56-5.56v30.67c-1.96-0.58-3.82-1.38-5.56-2.37C19.27,58.09,14,49.66,14,40c0-14.36,11.64-26,26-26S66,25.64,66,40z"/>
		<linearGradient id="SVGID_1_" gradientUnits="userSpaceOnUse" x1="40" y1="65.5947" x2="40" y2="32.564">
			<stop  offset="0" style="stop-color:#A48C53"/>
			<stop  offset="0.25" style="stop-color:#F9DE6D"/>
			<stop  offset="0.5" style="stop-color:#9B854A"/>
			<stop  offset="0.75" style="stop-color:#FDEAA1"/>
			<stop  offset="1" style="stop-color:#7D6C41"/>
		</linearGradient>
		<polygon class="st2" points="42.78,31.99 42.78,60.44 42.62,60.6 37.35,65.87 37.22,66 37.22,37.55 		"/>
	</g>
</g>
<g id="Layer_2">
</g>
</svg>
