<?xml version="1.0" encoding="utf-8"?>
<!-- Generator: Adobe Illustrator 25.0.1, SVG Export Plug-In . SVG Version: 6.00 Build 0)  -->
<svg version="1.1" id="Layer_1" xmlns="http://www.w3.org/2000/svg" xmlns:xlink="http://www.w3.org/1999/xlink" x="0px" y="0px"
	 width="80px" height="80px" viewBox="0 0 80 80" style="enable-background:new 0 0 80 80;" xml:space="preserve">
<style type="text/css">
	.st0{fill:#FFFFFF;}
	.st1{fill:#007FFD;}
	.st2{fill:#E7E7F1;}
	.st3{fill:#252EAF;}
</style>
<g>
	<circle class="st2" cx="40" cy="40" r="40"/>
	<g>
		<path class="st3" d="M55.8,62.5c0-2,0-3.7,0-5.4c0.1-0.1,0.2-0.2,0.3-0.2c3-0.3,3.4-0.7,3.3-3.8c0-2.1-0.1-4.2-0.1-6.4
			c0-3.1,0.9-5.6,4.4-6.7c-3.6-1-4.4-3.6-4.4-6.6c0-2,0.1-4,0.1-6.1c0-2.7,0.4-4-3.7-4.5c0-1.5,0-3.1,0-4.7c0-0.2,0.6-0.7,0.8-0.7
			c1.4,0,2.9,0.1,4.3,0.3c2.7,0.5,4.4,2.2,4.9,4.9c0.4,2.2,0.3,4.5,0.3,6.7c0,1.3-0.1,2.6,0,3.9c0.1,2.2,0.8,3,3,3.3
			c0.5,0.1,1,0.1,1.7,0.1c0,2.1,0,4.1,0,6.2c-0.6,0.1-1.2,0.1-1.8,0.2c-2,0.3-2.9,1.2-2.9,3.2c0,2.1,0.1,4.1,0.1,6.2
			c0,1.3,0,2.6-0.2,3.9c-0.6,3.5-2.6,5.3-6.1,5.7C58.5,62.4,57.3,62.4,55.8,62.5z"/>
		<path class="st3" d="M9.2,43.1c0-2,0-4,0-6.2c0.6-0.1,1.3-0.1,1.9-0.2c1.9-0.3,2.8-1.2,2.9-3.1c0-2.1-0.1-4.1-0.1-6.2
			c0-0.6,0-1.2,0-1.7c0.3-6.2,4.3-9.3,10.5-7.9c0,1.5,0.1,3,0,4.6c0,0.3-0.6,0.7-1,0.8c-2,0.3-2.6,0.8-2.7,2.9
			c0,2.2,0.2,4.4,0.1,6.6c0,1.1-0.1,2.3-0.4,3.4c-0.5,2-1.8,3.2-4,3.9c3.9,1.1,4.5,4,4.5,7.2c0,1.7-0.1,3.5-0.2,5.2
			c-0.1,4.3,0.5,4.3,3.6,4.8c0,0.3,0.1,0.5,0.1,0.8c0,1.4,0,2.9,0,4.3c-5.7,1.7-10.3-1.6-10.4-7.4c-0.1-2.4,0.1-4.8,0.2-7.2
			c0.1-3.4-0.5-4.1-3.9-4.4C9.8,43.2,9.6,43.1,9.2,43.1z"/>
		<polygon class="st1" points="52,27.6 43.1,27.6 37.2,27.6 28.3,27.6 28.3,33.6 37.2,33.6 37.2,51.4 43.1,51.4 43.1,33.6 52,33.6 
					"/>
	</g>
</g>
</svg>
