<?xml version="1.0" encoding="utf-8"?>
<!-- Generator: Adobe Illustrator 25.0.1, SVG Export Plug-In . SVG Version: 6.00 Build 0)  -->
<svg version="1.1" id="Layer_1" xmlns="http://www.w3.org/2000/svg" xmlns:xlink="http://www.w3.org/1999/xlink" x="0px" y="0px"
	 width="125px" height="125px" viewBox="0 0 125 125" style="enable-background:new 0 0 125 125;" xml:space="preserve">
<style type="text/css">
	.st0{fill:#E9CF49;}
	.st1{fill:#231F20;stroke:#231F20;stroke-width:0.5;stroke-miterlimit:10;}
</style>
<circle class="st0" cx="62.5" cy="62.5" r="62.5"/>
<g>
	<path class="st1" d="M79.48,12.72l6.83,2.87l-0.52,1.23l-5.61-2.35l-2.13,5.08l5.61,2.35l-0.51,1.23l-5.61-2.35l-1.39,3.31
		l5.61,2.35l-0.52,1.23l-6.83-2.87L79.48,12.72z"/>
	<path class="st1" d="M89.71,20.12l-6.48,8.73l-1.07-0.79l7.8-10.51l1.25,0.93l-1.24,12.61l6.48-8.73l1.07,0.79l-7.8,10.51
		l-1.25-0.93L89.71,20.12z"/>
	<path class="st1" d="M100.47,25.88l0.88,1.12l-6.27,10.08l11.31-3.63l0.88,1.12l-13.27,4.27l-0.88-1.12L100.47,25.88z"/>
	<path class="st1" d="M109.13,38.44l0.6,1.19l-11.7,5.86l-0.6-1.19L109.13,38.44z"/>
	<path class="st1" d="M101.95,57.52l-0.37-1.38l3.83-2.73l-1.29-4.77l-4.68-0.41l-0.37-1.38l13.89,1.22l0.37,1.38L101.95,57.52z
		 M105.53,48.76l1.04,3.85l4.71-3.34L105.53,48.76z"/>
	<path class="st1" d="M114.9,57.89l0.05,3.02c0.05,3.1-1.65,4.95-3.99,4.99c-1.86,0.03-3.36-1.11-3.95-3.11l-5.07,4.05l-0.03-1.67
		l4.86-3.88l-0.03-1.94l-4.92,0.08l-0.02-1.33L114.9,57.89z M110.94,64.56c1.58-0.03,2.72-1.11,2.67-4.2l-0.02-1.12l-5.51,0.09
		l0.02,1.12C108.15,63.54,109.36,64.59,110.94,64.56z"/>
</g>
</svg>
