<?xml version="1.0" encoding="utf-8"?>
<!-- Generator: Adobe Illustrator 25.0.1, SVG Export Plug-In . SVG Version: 6.00 Build 0)  -->
<svg version="1.1" id="Layer_1" xmlns="http://www.w3.org/2000/svg" xmlns:xlink="http://www.w3.org/1999/xlink" x="0px" y="0px"
	 width="125px" height="125px" viewBox="0 0 125 125" style="enable-background:new 0 0 125 125;" xml:space="preserve">
<style type="text/css">
	.st0{fill:#E9CF49;}
	.st1{fill:#231F20;stroke:#231F20;stroke-width:0.5;stroke-miterlimit:10;}
</style>
<circle class="st0" cx="62.5" cy="62.5" r="62.5"/>
<g>
	<path class="st1" d="M80.15,20.77c-1.54-1.13-3.13-2.34-2.08-4.81c0.84-1.98,2.84-2.86,4.91-1.98c1.68,0.71,2.43,2.29,2.46,4.08
		l-1.36,0.14c0-1.45-0.59-2.54-1.62-2.98c-1.08-0.46-2.52-0.18-3.14,1.27c-0.64,1.5,0.51,2.4,1.71,3.31
		c1.54,1.13,3.13,2.34,2.08,4.81c-0.91,2.15-3.37,2.64-5.4,1.77c-1.85-0.79-2.61-2.37-2.63-4.15l1.36-0.14
		c0,1.45,0.59,2.54,1.8,3.06c1.1,0.47,2.95,0.55,3.63-1.06C82.5,22.57,81.35,21.67,80.15,20.77z"/>
	<path class="st1" d="M90.04,17.69L96.07,22l-0.77,1.08l-4.95-3.54l-3.2,4.48l4.95,3.54l-0.77,1.08l-4.95-3.54l-2.09,2.92l4.95,3.54
		l-0.77,1.08l-6.03-4.31L90.04,17.69z"/>
	<path class="st1" d="M98.36,27.15l-8.23,7.1l-0.87-1.01l9.91-8.55l1.02,1.18L96.22,37.9l8.23-7.1l0.87,1.01l-9.91,8.55l-1.02-1.18
		L98.36,27.15z"/>
	<path class="st1" d="M107.76,35.59l1.17,2.41c1.98,4.06,0.19,7.1-3.06,8.68c-3.21,1.57-6.72,1.12-8.71-2.94L96,41.33L107.76,35.59z
		 M107.72,38.59l-0.58-1.19l-9.34,4.56l0.58,1.2c1.47,3,4.02,3.73,6.9,2.32C108.21,44.04,109.19,41.6,107.72,38.59z"/>
</g>
</svg>
