<svg xmlns="http://www.w3.org/2000/svg" width="50" height="50" viewBox="0 0 50 50">

<g id="T"><polygon points="34.78 14.97 27.55 14.97 22.73 14.97 15.5 14.97 15.5 19.79 22.73 19.79 22.73 34.25 27.55 34.25 27.55 19.79 34.78 19.79 34.78 14.97" fill="#fff"/></g>
<g id="Symbol"><path d="M37.84,43.27V38.89c.12-.07.19-.14.26-.15,2.43-.24,2.75-.59,2.71-3.07,0-1.71-.1-3.43-.09-5.15,0-2.49.75-4.56,3.58-5.47-2.91-.8-3.58-2.89-3.58-5.38,0-1.64.08-3.28.07-4.92,0-2.23.36-3.27-3-3.67,0-1.25,0-2.53,0-3.8,0-.19.44-.53.67-.53A22.63,22.63,0,0,1,42,7a4.59,4.59,0,0,1,3.94,4,40,40,0,0,1,.26,5.48c0,1.06-.05,2.12,0,3.17,0,1.77.69,2.44,2.46,2.64.42,0,.85.08,1.36.12v5.07c-.51.05-1,.08-1.43.14a2.34,2.34,0,0,0-2.39,2.62c0,1.68.07,3.37.06,5.05a17.42,17.42,0,0,1-.18,3.15,5.18,5.18,0,0,1-5,4.65C40.06,43.21,39,43.21,37.84,43.27Z" fill="#fff"/><path d="M0,27.51V22.46c.52,0,1-.07,1.51-.14a2.3,2.3,0,0,0,2.34-2.54c0-1.68-.06-3.36-.09-5.05,0-.46,0-.93,0-1.4.25-5,3.51-7.54,8.49-6.42,0,1.21,0,2.46,0,3.69,0,.24-.51.59-.82.63-1.64.23-2.13.65-2.16,2.32s.13,3.6.11,5.39A11.82,11.82,0,0,1,9,21.72a4.29,4.29,0,0,1-3.26,3.16c3.19.92,3.63,3.29,3.62,5.89,0,1.41-.1,2.81-.13,4.22-.09,3.48.43,3.49,2.93,3.88a4.57,4.57,0,0,1,.09.66c0,1.17,0,2.33,0,3.47-4.63,1.35-8.35-1.29-8.48-6,0-2,.09-3.91.12-5.87,0-2.75-.43-3.29-3.14-3.55Z" fill="#fff"/></g>

    @media (prefers-color-scheme: dark)

<g id="T"><polygon points="34.78 14.97 27.55 14.97 22.73 14.97 15.5 14.97 15.5 19.79 22.73 19.79 22.73 34.25 27.55 34.25 27.55 19.79 34.78 19.79 34.78 14.97" fill="#000"/></g>
<g id="Symbol"><path d="M37.84,43.27V38.89c.12-.07.19-.14.26-.15,2.43-.24,2.75-.59,2.71-3.07,0-1.71-.1-3.43-.09-5.15,0-2.49.75-4.56,3.58-5.47-2.91-.8-3.58-2.89-3.58-5.38,0-1.64.08-3.28.07-4.92,0-2.23.36-3.27-3-3.67,0-1.25,0-2.53,0-3.8,0-.19.44-.53.67-.53A22.63,22.63,0,0,1,42,7a4.59,4.59,0,0,1,3.94,4,40,40,0,0,1,.26,5.48c0,1.06-.05,2.12,0,3.17,0,1.77.69,2.44,2.46,2.64.42,0,.85.08,1.36.12v5.07c-.51.05-1,.08-1.43.14a2.34,2.34,0,0,0-2.39,2.62c0,1.68.07,3.37.06,5.05a17.42,17.42,0,0,1-.18,3.15,5.18,5.18,0,0,1-5,4.65C40.06,43.21,39,43.21,37.84,43.27Z" fill="#000"/><path d="M0,27.51V22.46c.52,0,1-.07,1.51-.14a2.3,2.3,0,0,0,2.34-2.54c0-1.68-.06-3.36-.09-5.05,0-.46,0-.93,0-1.4.25-5,3.51-7.54,8.49-6.42,0,1.21,0,2.46,0,3.69,0,.24-.51.59-.82.63-1.64.23-2.13.65-2.16,2.32s.13,3.6.11,5.39A11.82,11.82,0,0,1,9,21.72a4.29,4.29,0,0,1-3.26,3.16c3.19.92,3.63,3.29,3.62,5.89,0,1.41-.1,2.81-.13,4.22-.09,3.48.43,3.49,2.93,3.88a4.57,4.57,0,0,1,.09.66c0,1.17,0,2.33,0,3.47-4.63,1.35-8.35-1.29-8.48-6,0-2,.09-3.91.12-5.87,0-2.75-.43-3.29-3.14-3.55Z" fill="#000"/></g>
</svg>