<?xml version="1.0" standalone="no"?>
<!DOCTYPE svg PUBLIC "-//W3C//DTD SVG 20010904//EN"
 "http://www.w3.org/TR/2001/REC-SVG-20010904/DTD/svg10.dtd">
<svg version="1.0" xmlns="http://www.w3.org/2000/svg"
 width="700.000000pt" height="700.000000pt" viewBox="0 0 700.000000 700.000000"
 preserveAspectRatio="xMidYMid meet">
<metadata>
Created by potrace 1.14, written by Peter Selinger 2001-2017
</metadata>
<g transform="translate(0.000000,700.000000) scale(0.100000,-0.100000)"
fill="#000000" stroke="none">
<path d="M1275 6003 c-352 -67 -573 -296 -658 -682 -23 -103 -22 -42 -14 -921
2 -292 -6 -340 -69 -410 -74 -82 -152 -111 -339 -126 -44 -4 -87 -8 -95 -9
-13 -2 -15 -49 -18 -348 l-2 -347 27 -1 c127 -5 286 -34 347 -65 88 -44 126
-104 145 -229 8 -56 7 -316 -3 -520 -6 -118 -8 -534 -3 -560 3 -11 8 -42 11
-70 17 -120 73 -267 139 -365 119 -177 325 -308 528 -337 65 -10 258 -10 314
-1 78 13 100 17 130 26 l30 8 3 240 c3 250 -2 323 -21 329 -7 2 -55 11 -107
20 -273 47 -298 112 -275 720 15 423 10 583 -24 716 -53 209 -171 343 -370
424 l-82 32 58 24 c131 52 245 138 302 227 59 92 94 220 116 417 7 62 7 383 0
515 -9 161 -6 437 5 485 26 115 98 170 250 191 56 8 112 36 132 66 10 15 16
54 18 118 5 170 1 403 -7 411 -5 5 -26 11 -48 14 -22 4 -49 9 -60 12 -40 12
-291 9 -360 -4z"/>
<path d="M5305 5989 c-53 -31 -54 -35 -55 -316 0 -245 1 -263 17 -264 10 -1
23 -2 28 -3 197 -33 294 -79 333 -159 31 -65 33 -82 31 -351 -6 -784 -5 -835
18 -927 32 -127 88 -236 157 -305 57 -56 200 -137 266 -151 17 -3 30 -8 30
-12 0 -3 -28 -17 -63 -30 -184 -71 -326 -225 -376 -409 -37 -138 -40 -194 -35
-612 5 -415 5 -564 0 -590 -30 -158 -89 -201 -311 -225 -33 -4 -67 -13 -75
-21 -12 -12 -15 -62 -15 -310 l0 -295 175 6 c277 10 326 15 435 47 205 60 344
174 434 355 31 63 67 174 76 238 4 22 8 47 10 55 17 57 19 242 11 933 -1 117
3 211 11 248 34 169 145 243 399 265 42 3 83 7 93 8 14 3 16 36 18 349 l2 347
-22 1 c-12 0 -31 2 -42 4 -11 2 -52 6 -92 9 -215 17 -311 80 -349 227 -14 54
-17 143 -20 579 -1 283 -5 533 -8 555 -3 22 -7 67 -11 100 -34 354 -219 565
-551 629 -111 21 -148 25 -334 31 -117 4 -171 2 -185 -6z"/>
<path d="M2201 4549 l-1 -329 495 0 495 0 0 -989 0 -989 330 0 330 0 0 989 0
989 494 0 494 0 -2 328 -1 327 -1317 2 -1316 1 -1 -329z"/>
</g>
</svg>
