<?xml version="1.0" encoding="utf-8"?>
<!-- Generator: Adobe Illustrator 25.0.1, SVG Export Plug-In . SVG Version: 6.00 Build 0)  -->
<svg version="1.1" id="Layer_1" xmlns="http://www.w3.org/2000/svg" xmlns:xlink="http://www.w3.org/1999/xlink" x="0px" y="0px"
	 width="125px" height="125px" viewBox="0 0 125 125" style="enable-background:new 0 0 125 125;" xml:space="preserve">
<style type="text/css">
	.st0{fill:#E9CF49;}
	.st1{fill:#231F20;stroke:#231F20;stroke-width:0.5;stroke-miterlimit:10;}
</style>
<circle class="st0" cx="62.5" cy="62.5" r="62.5"/>
<g>
	<path class="st1" d="M86.78,15.65l1.19,0.79L85.24,28l9.57-7.04l1.19,0.78l-11.22,8.28l-1.19-0.79L86.78,15.65z"/>
	<path class="st1" d="M98.74,24.38l5,5.46l-0.98,0.9l-4.11-4.48l-4.06,3.72l4.11,4.48l-0.98,0.9l-4.11-4.48l-2.65,2.42l4.11,4.48
		l-0.98,0.9l-5-5.46L98.74,24.38z"/>
	<path class="st1" d="M106.08,33.02l1.5,2.62c1.54,2.69,0.94,5.13-1.09,6.29c-1.62,0.92-3.48,0.65-4.96-0.82l-2.48,5.99l-0.83-1.45
		l2.38-5.74l-0.96-1.68l-4.27,2.44l-0.66-1.16L106.08,33.02z M105.84,40.78c1.37-0.78,1.85-2.28,0.31-4.97l-0.56-0.97l-4.78,2.74
		l0.56,0.97C102.9,41.23,104.47,41.56,105.84,40.78z"/>
</g>
</svg>
