<?xml version="1.0" encoding="utf-8"?>
<!-- Generator: Adobe Illustrator 25.0.1, SVG Export Plug-In . SVG Version: 6.00 Build 0)  -->
<svg version="1.1" id="Layer_1" xmlns="http://www.w3.org/2000/svg" xmlns:xlink="http://www.w3.org/1999/xlink" x="0px" y="0px"
	 width="125px" height="125px" viewBox="0 0 125 125" style="enable-background:new 0 0 125 125;" xml:space="preserve">
<style type="text/css">
	.st0{fill:#E9CF49;}
	.st1{fill:#231F20;stroke:#231F20;stroke-width:0.5;stroke-miterlimit:10;}
</style>
<circle class="st0" cx="62.5" cy="62.5" r="62.5"/>
<g>
	<path class="st1" d="M79.29,12.48l1.3,0.59l-0.93,11.84l8.37-8.43l1.3,0.59l-9.82,9.9l-1.29-0.59L79.29,12.48z"/>
	<path class="st1" d="M92.79,19.65l1.08,0.78l-7.7,10.59l-1.08-0.78L92.79,19.65z"/>
	<path class="st1" d="M97.43,23.19l5.19,5.29l-0.95,0.93l-4.26-4.34l-3.93,3.86l4.26,4.34l-0.95,0.93l-4.26-4.34l-2.56,2.51
		l4.26,4.34l-0.95,0.93l-5.19-5.29L97.43,23.19z"/>
	<path class="st1" d="M107.09,38.92l-11.57,1.79l-0.66-1.24l10.56-8.03l0.63,1.19l-8.43,6.4l10.93-1.69l0.66,1.24l-7.53,8.1
		l10.03-3.38l0.63,1.19l-12.57,4.23l-0.66-1.24L107.09,38.92z"/>
</g>
</svg>
