<?xml version="1.0" encoding="UTF-8" standalone="no"?>
<svg
   width="195"
   height="195"
   viewBox="0 0 195 195"
   fill="none"
   version="1.1"
   id="svg30"
   sodipodi:docname="view_portfolio.svg"
   inkscape:version="1.1.1 (3bf5ae0d25, 2021-09-20)"
   xmlns:inkscape="http://www.inkscape.org/namespaces/inkscape"
   xmlns:sodipodi="http://sodipodi.sourceforge.net/DTD/sodipodi-0.dtd"
   xmlns="http://www.w3.org/2000/svg"
   xmlns:svg="http://www.w3.org/2000/svg">
  <defs
     id="defs34" />
  <sodipodi:namedview
     id="namedview32"
     pagecolor="#ffffff"
     bordercolor="#666666"
     borderopacity="1.0"
     inkscape:pageshadow="2"
     inkscape:pageopacity="0.0"
     inkscape:pagecheckerboard="0"
     showgrid="false"
     showguides="true"
     inkscape:guide-bbox="true"
     inkscape:zoom="3.1584103"
     inkscape:cx="150.23381"
     inkscape:cy="110.81524"
     inkscape:window-width="1920"
     inkscape:window-height="1043"
     inkscape:window-x="1366"
     inkscape:window-y="0"
     inkscape:window-maximized="1"
     inkscape:current-layer="text56976">
    <sodipodi:guide
       position="98.5817,178.7293"
       orientation="0,-1"
       id="guide51197" />
    <sodipodi:guide
       position="179.147,93.046"
       orientation="1,0"
       id="guide51203" />
  </sodipodi:namedview>
  <g
     inkscape:groupmode="layer"
     id="layer7"
     inkscape:label="Original"
     style="display:none">
    <circle
       cx="97.5"
       cy="97.5"
       r="97.5"
       transform="rotate(-90,97.5,97.5)"
       fill="#e9cf49"
       id="circle2" />
    <path
       d="m 103.826,29.3965 5.639,-12.2846 -1.656,-0.128 -4.588,10.4352 -0.053,-0.004 -2.93,-11.0164 -1.6563,-0.128 3.6843,13.0052 z"
       fill="#1f1f1f"
       id="path4" />
    <path
       d="m 111.274,30.4377 2.376,-12.458 -1.554,-0.2964 -2.376,12.458 z"
       fill="#1f1f1f"
       id="path6" />
    <path
       d="m 122.056,31.8496 -6.012,-1.8014 1.252,-4.1759 5.699,1.708 0.404,-1.347 -5.7,-1.7081 1.168,-3.8981 6.012,1.8014 0.408,-1.3639 -7.526,-2.2555 -3.641,12.1489 7.527,2.2555 z"
       fill="#1f1f1f"
       id="path8" />
    <path
       d="m 133.482,27.5424 0.078,0.0399 -1.957,10.2961 1.332,0.6778 8.831,-9.7359 -1.472,-0.7496 -6.961,8.0749 -0.062,-0.0319 2.151,-10.5228 -1.426,-0.7256 -7.242,7.9314 -0.063,-0.0319 2.433,-10.3792 -1.473,-0.7496 -2.674,12.8696 1.331,0.6778 z"
       fill="#1f1f1f"
       id="path10" />
    <path
       d="m 148.651,34.0799 -8.397,9.5046 1.186,1.0474 2.997,-3.3921 2.193,1.9378 c 1.785,1.577 4.168,1.4421 5.762,-0.3627 1.589,-1.7981 1.437,-4.1611 -0.348,-5.7381 z m 0.255,2.1013 1.897,1.676 c 1.363,1.2045 1.482,2.6231 0.371,3.8812 -1.117,1.2646 -2.552,1.3222 -3.909,0.1235 l -1.897,-1.676 z"
       fill="#1f1f1f"
       id="path12" />
    <path
       d="m 161.122,46.2701 c -2.26,-2.7953 -5.643,-2.9534 -8.773,-0.4224 -3.13,2.531 -3.677,5.8666 -1.417,8.6619 2.26,2.7953 5.637,2.9589 8.767,0.4279 3.13,-2.531 3.684,-5.8721 1.423,-8.6674 z m -1.134,0.9173 c 1.63,2.0162 1.122,4.5184 -1.312,6.4857 -2.426,1.9618 -4.979,1.9353 -6.609,-0.0808 -1.63,-2.0162 -1.122,-4.5184 1.304,-6.4802 2.433,-1.9673 4.987,-1.9408 6.617,0.0753 z"
       fill="#1f1f1f"
       id="path14" />
    <path
       d="m 160.802,59.3383 1.494,2.6386 -3.029,4.8359 0.913,1.6138 3.135,-5.1483 c 1.22,1.1375 2.885,1.2957 4.423,0.4253 1.988,-1.1258 2.5,-3.254 1.296,-5.3802 l -2.342,-4.1378 -11.037,6.2485 0.78,1.3767 z m 5.446,-3.0831 1.459,2.5775 c 0.805,1.4226 0.502,2.7252 -0.821,3.4743 -1.353,0.7664 -2.573,0.3964 -3.374,-1.0186 l -1.494,-2.6386 z"
       fill="#1f1f1f"
       id="path16" />
    <path
       d="m 162.209,73.7336 10.511,-4.0343 1.433,3.7335 1.329,-0.5102 -3.432,-8.9439 -1.33,0.5102 1.433,3.7335 -10.511,4.0342 z"
       fill="#1f1f1f"
       id="path18" />
    <path
       d="m 164.307,80.2919 5.353,-1.2343 1.262,5.4726 1.37,-0.316 -1.262,-5.4726 4.248,-0.9795 1.374,5.9608 1.388,-0.3199 -1.73,-7.5024 -12.358,2.8497 z"
       fill="#1f1f1f"
       id="path20" />
    <path
       d="m 179.197,91.9963 c -0.235,-3.587 -2.909,-5.6663 -6.925,-5.4024 -4.017,0.2638 -6.387,2.6743 -6.151,6.2613 0.236,3.587 2.9,5.6668 6.917,5.403 4.017,-0.2638 6.395,-2.6749 6.159,-6.2619 z m -1.456,0.0956 c 0.17,2.5872 -1.688,4.3387 -4.81,4.5438 -3.113,0.2045 -5.184,-1.289 -5.354,-3.8762 -0.17,-2.5872 1.688,-4.3387 4.801,-4.5432 3.122,-0.205 5.194,1.2884 5.363,3.8756 z"
       fill="#1f1f1f"
       id="path22" />
    <path
       d="m 167.2,108.534 0.589,-6.089 11.206,1.084 0.152,-1.575 -12.623,-1.221 -0.741,7.664 z"
       fill="#1f1f1f"
       id="path24" />
    <path
       d="m 165.087,111.563 12.44,2.471 0.308,-1.552 -12.44,-2.471 z"
       fill="#1f1f1f"
       id="path26" />
    <path
       d="m 175.255,123.34 c 1.148,-3.406 -0.532,-6.347 -4.347,-7.633 -3.814,-1.285 -6.923,0.041 -8.071,3.447 -1.149,3.407 0.523,6.345 4.337,7.631 3.815,1.285 6.932,-0.038 8.081,-3.445 z m -1.383,-0.466 c -0.828,2.457 -3.213,3.369 -6.178,2.37 -2.957,-0.997 -4.303,-3.167 -3.475,-5.624 0.828,-2.456 3.213,-3.368 6.17,-2.372 2.965,1 4.311,3.169 3.483,5.626 z"
       fill="#1f1f1f"
       id="path28" />
  </g>
  <g
     inkscape:groupmode="layer"
     id="layer5"
     inkscape:label="Layer 0"
     style="display:inline">
    <circle
       cx="97.5"
       cy="97.5"
       r="97.5"
       transform="rotate(-90,97.5,97.5)"
       fill="#e9cf49"
       id="circle56503" />
  </g>
  <g
     inkscape:groupmode="layer"
     id="layer1"
     inkscape:label="Layer 1"
     style="display:none" />
  <g
     inkscape:groupmode="layer"
     id="layer4"
     inkscape:label="Español"
     style="display:none">
    <g
       aria-label="VER PORTAFOLIO"
       id="text6924"
       style="font-size:18.6667px;line-height:1.25;fill:#000000">
      <path
         d="m 102.83688,29.084509 -3.921936,-14.028189 1.915036,0.176851 3.23937,11.804957 5.35558,-11.011219 1.90596,0.176013 -6.41561,13.073526 z"
         id="path82847" />
      <path
         d="m 115.67325,17.194649 8.289,2.307455 -0.41553,1.492723 -6.5153,-1.813699 -1.0804,3.881081 6.2431,1.737925 -0.41554,1.492723 -6.2431,-1.737925 -1.32238,4.750373 6.67335,1.857697 -0.41554,1.492723 -8.44706,-2.351453 z"
         id="path82849" />
      <path
         d="m 131.91369,30.829746 q 0.44488,0.439646 0.65747,1.27307 0.22078,0.837415 0.2261,2.117348 l 0.0519,4.161457 -1.77826,-0.865866 -0.037,-3.900724 q -0.008,-1.52449 -0.386,-2.205346 -0.36992,-0.676866 -1.3533,-1.155686 l -1.80285,-0.877836 -2.51779,5.17091 -1.65535,-0.806013 5.95731,-12.234816 3.73683,1.819515 q 2.09786,1.021482 2.70346,2.401085 0.60559,1.379602 -0.25628,3.149676 -0.56262,1.155465 -1.47456,1.654229 -0.90374,0.502755 -2.07174,0.298997 z m -1.64473,-7.157154 -2.11478,4.343237 2.08147,1.013501 q 1.19644,0.582564 2.0702,0.328785 0.88594,-0.257983 1.40865,-1.3315 0.52271,-1.073517 0.17145,-1.913635 -0.33907,-0.844323 -1.53551,-1.426887 z"
         id="path82851" />
      <path
         d="m 148.96966,35.302095 -3.35566,3.85814 1.74682,1.519321 q 0.96969,0.843403 1.9359,0.801945 0.9662,-0.04146 1.77371,-0.969887 0.80154,-0.921552 0.70864,-1.884173 -0.0929,-0.962622 -1.06258,-1.806024 z m -0.39626,-2.349903 3.13603,2.7276 q 1.72619,1.501377 1.92458,3.051026 0.21125,1.548754 -1.09872,3.054873 -1.32193,1.519873 -2.88501,1.525379 -1.55621,0.01149 -3.2824,-1.489889 l -1.74682,-1.519322 -3.58895,4.126353 -1.38921,-1.208279 z"
         id="path82853" />
      <path
         d="m 161.15869,47.456169 q -1.24027,-1.575628 -3.14772,-1.582115 -1.90181,6.74e-4 -3.92864,1.596113 -2.01967,1.589802 -2.46698,3.438258 -0.44167,1.855618 0.7986,3.431246 1.24027,1.575628 3.13645,1.567792 1.9018,-6.74e-4 3.92147,-1.590476 2.02683,-1.595439 2.47414,-3.443895 0.45295,-1.841295 -0.78732,-3.416923 z m 1.17456,-0.924565 q 1.7702,2.248851 1.3189,4.784829 -0.44414,2.53034 -2.97947,4.526049 -2.52817,1.99007 -5.09921,1.833157 -2.56387,-0.162551 -4.33408,-2.411402 -1.77584,-2.256013 -1.33733,-4.793516 0.44414,-2.53034 2.97947,-4.526048 2.53532,-1.995708 5.0992,-1.833157 2.57668,0.164075 4.35252,2.420088 z"
         id="path82855" />
      <path
         d="m 165.34969,65.425081 q 0.0928,0.618535 -0.23621,1.413215 -0.32488,0.802784 -1.08739,1.830814 l -2.45138,3.363205 -0.90515,-1.758595 2.30717,-3.145467 q 0.90695,-1.225389 1.01207,-1.997067 0.10928,-0.763575 -0.39126,-1.73607 l -0.91767,-1.782907 -5.1137,2.632043 -0.84259,-1.637033 12.09945,-6.227638 1.90208,3.69548 q 1.06784,2.074655 0.72627,3.542096 -0.34157,1.467441 -2.09206,2.368425 -1.14268,0.588143 -2.17166,0.441195 -1.02482,-0.138845 -1.83797,-1.001696 z m 2.97065,-6.716044 -4.29519,2.210749 1.05949,2.058447 q 0.609,1.183202 1.46065,1.503435 0.86392,0.324166 1.92556,-0.222264 1.06164,-0.546431 1.28367,-1.429541 0.23431,-0.879177 -0.37469,-2.062379 z"
         id="path82857" />
      <path
         d="m 174.0603,67.051097 3.59145,10.937169 -1.47215,0.483409 -1.5071,-4.589627 -11.45675,3.762061 -0.57724,-1.757914 11.45675,-3.762061 -1.5071,-4.589628 z"
         id="path82859" />
      <path
         d="m 176.99096,85.339694 -7.07048,-1.451689 0.75173,4.947127 z m 1.63712,-1.299757 0.31356,2.063556 -12.67454,7.171673 -0.28755,-1.892344 3.26505,-1.749949 -0.92152,-6.064511 -3.63749,-0.701088 -0.29166,-1.919377 z"
         id="path82861" />
      <path
         d="m 179.77245,95.554915 -0.14954,7.818895 -1.5492,-0.0296 0.11434,-5.978081 -4.00969,-0.07669 -0.10318,5.394861 -1.5492,-0.0296 0.10318,-5.394859 -6.49752,-0.124267 0.0352,-1.840812 z"
         id="path82863" />
      <path
         d="m 176.79481,113.95902 q 0.40577,-1.96372 -0.81832,-3.42659 -1.22594,-1.45394 -3.75201,-1.97591 -2.51714,-0.52013 -4.21894,0.32885 -1.70364,0.8579 -2.10942,2.82163 -0.40577,1.96372 0.82202,3.40874 1.22594,1.45394 3.74308,1.97407 2.52607,0.52196 4.22787,-0.32701 1.69995,-0.84005 2.10572,-2.80378 z m 1.46387,0.30249 q -0.57914,2.80277 -2.80929,4.09169 -2.22121,1.29077 -5.38103,0.63785 -3.15089,-0.65108 -4.68753,-2.71834 -1.52772,-2.06542 -0.94858,-4.8682 0.58099,-2.8117 2.80406,-4.11139 2.22121,-1.29077 5.38103,-0.63785 3.15981,0.65292 4.68753,2.71835 1.5348,2.07619 0.95381,4.88789 z"
         id="path82865" />
      <path
         d="m 174.91255,125.46231 -0.69629,1.70441 -11.16302,-4.5604 -2.50598,6.13418 -1.4344,-0.58599 3.20227,-7.83858 z"
         id="path82867" />
      <path
         d="m 169.97116,136.37287 -0.88959,1.61197 -11.91426,-6.575 0.88959,-1.61198 z"
         id="path82869" />
      <path
         d="m 161.92499,146.55461 q 1.2155,-1.59482 0.74488,-3.44331 -0.47614,-1.84124 -2.52765,-3.40481 -2.04426,-1.55805 -3.94585,-1.529 -1.90711,0.0363 -3.12261,1.63111 -1.2155,1.59481 -0.73383,3.42881 0.47614,1.84124 2.5204,3.39928 2.05152,1.56358 3.9531,1.53453 1.89606,-0.0218 3.11156,-1.61661 z m 1.18887,0.9061 q -1.73485,2.27624 -4.30312,2.47331 -2.56103,0.20259 -5.12723,-1.75325 -2.55896,-1.95032 -3.04983,-4.47894 -0.48363,-2.52309 1.25122,-4.79933 1.74037,-2.28349 4.30691,-2.49333 2.56103,-0.2026 5.12723,1.75325 2.56621,1.95584 3.04984,4.47893 0.48535,2.53587 -1.25502,4.81936 z"
         id="path82871" />
    </g>
  </g>
  <g
     inkscape:groupmode="layer"
     id="g56978"
     inkscape:label="Ingles"
     style="display:inline">
    <g
       aria-label="VIEW PORTFOLIO"
       id="text56976"
       style="font-size:18.6667px;line-height:1.25;fill:#000000">
      <path
         d="m 102.83688,29.084509 -3.921936,-14.028189 1.915036,0.176851 3.23937,11.804957 5.35558,-11.011219 1.90596,0.176013 -6.41561,13.073526 z"
         id="path83666" />
      <path
         d="m 115.03532,17.151634 1.7946,0.411362 -3.04041,13.264095 -1.79461,-0.411362 z"
         id="path83668" />
      <path
         d="m 122.05866,18.908453 8.07564,2.969157 -0.5347,1.454301 -6.34759,-2.333808 -1.39022,3.781181 6.08239,2.236304 -0.5347,1.454301 -6.08239,-2.236304 -1.70161,4.628097 6.50158,2.390424 -0.5347,1.454301 -8.22963,-3.025773 z"
         id="path83670" />
      <path
         d="m 134.83443,23.725409 1.56192,1.008807 -3.83662,11.215241 8.63723,-8.114643 1.73802,1.122545 -3.83662,11.215241 8.63723,-8.114643 1.56958,1.013752 -10.25426,9.576691 -1.94475,-1.256064 3.99711,-11.480507 -8.84365,8.350238 -1.94475,-1.256063 z"
         id="path83672" />
      <path
         d="m 158.22467,44.30147 -3.92517,3.277001 1.4837,1.777174 q 0.82363,0.986541 1.78418,1.098872 0.96055,0.112331 1.90511,-0.676253 0.93756,-0.782741 0.99854,-1.74791 0.061,-0.965169 -0.76265,-1.95171 z m -0.0185,-2.383008 2.66366,3.190517 q 1.46618,1.756183 1.41624,3.317682 -0.0371,1.562653 -1.56938,2.841911 -1.54628,1.290939 -3.09045,1.048432 -1.53833,-0.23551 -3.00451,-1.991694 l -1.4837,-1.777174 -4.19805,3.504814 -1.17996,-1.413343 z"
         id="path83674" />
      <path
         d="m 168.33322,58.244051 q -0.97342,-1.75309 -2.85547,-2.063366 -1.87763,-0.302308 -4.13274,0.949866 -2.24715,1.247748 -2.98322,3.001338 -0.73164,1.761558 0.24178,3.514649 0.97342,1.75309 2.84662,2.047429 1.87763,0.302308 4.12477,-0.945441 2.25512,-1.252173 2.99119,-3.005763 0.74049,-1.745621 -0.23293,-3.498712 z m 1.30685,-0.725641 q 1.38934,2.502138 0.5398,4.933833 -0.84158,2.42727 -3.66246,3.993593 -2.81291,1.561899 -5.32612,0.997402 -2.50523,-0.568921 -3.89457,-3.071059 -1.39376,-2.510107 -0.55662,-4.945346 0.84158,-2.42727 3.66246,-3.993593 2.82088,-1.566323 5.32612,-0.997402 2.51763,0.572465 3.91139,3.082572 z"
         id="path83676" />
      <path
         d="m 169.60026,76.662048 q -0.008,0.625417 -0.4599,1.357005 -0.44947,0.740257 -1.36704,1.632626 l -2.95925,2.926313 -0.61126,-1.881042 2.78197,-2.734533 q 1.09181,-1.063995 1.31937,-1.80881 0.23039,-0.736147 -0.10764,-1.776354 l -0.61971,-1.907047 -5.46976,1.77746 -0.56901,-1.751016 12.94191,-4.20562 1.2845,3.952787 q 0.72113,2.219109 0.14854,3.612734 -0.57259,1.393625 -2.44497,2.002074 -1.22224,0.397182 -2.21431,0.08704 -0.98926,-0.301475 -1.65344,-1.283616 z m 4.00974,-6.152399 -4.59425,1.492953 0.71549,2.201772 q 0.41127,1.265586 1.2005,1.718315 0.80072,0.458581 1.93628,0.08957 1.13556,-0.369013 1.4964,-1.205057 0.37234,-0.830193 -0.0389,-2.095779 z"
         id="path83678" />
      <path
         d="m 178.01274,79.798319 1.67003,11.389958 -1.53309,0.224787 -0.7008,-4.779634 -11.93105,1.749369 -0.26842,-1.83069 11.93104,-1.749369 -0.7008,-4.779634 z"
         id="path83680" />
      <path
         d="m 179.76232,95.162213 -0.11266,7.819517 -1.54933,-0.0223 0.0861,-5.97856 -4.01001,-0.05778 -0.0777,5.395285 -1.54932,-0.0223 0.0777,-5.395286 -6.49803,-0.09362 0.0265,-1.840958 z"
         id="path83682" />
      <path
         d="m 176.87231,113.57942 q 0.39634,-1.96565 -0.83477,-3.42263 -1.23291,-1.44803 -3.76145,-1.95787 -2.51961,-0.50803 -4.21731,0.34911 -1.69951,0.86607 -2.09584,2.83173 -0.39634,1.96565 0.83837,3.40475 1.23291,1.44804 3.75252,1.95607 2.52855,0.50983 4.22625,-0.3473 1.6959,-0.84821 2.09223,-2.81386 z m 1.46531,0.29545 q -0.56568,2.80552 -2.78961,4.10514 -2.21499,1.30142 -5.3779,0.66368 -3.15398,-0.63594 -4.70054,-2.6958 -1.53762,-2.05806 -0.97194,-4.86358 0.56748,-2.81446 2.78428,-4.12482 2.21499,-1.30142 5.3779,-0.66368 3.16292,0.63774 4.70054,2.6958 1.54475,2.0688 0.97727,4.88326 z"
         id="path83684" />
      <path
         d="m 175.04547,125.09158 -0.68808,1.70774 -11.18484,-4.50662 -2.47643,6.14616 -1.4372,-0.57908 3.16451,-7.8539 z"
         id="path83686" />
      <path
         d="m 170.15654,136.02589 -0.88185,1.61622 -11.94563,-6.51784 0.88185,-1.61622 z"
         id="path83688" />
      <path
         d="m 162.15891,146.24629 q 1.20789,-1.60059 0.72847,-3.44682 -0.48491,-1.83895 -2.54385,-3.39273 -2.05166,-1.54829 -3.95309,-1.51018 -1.90692,0.0454 -3.1148,1.64597 -1.20789,1.60059 -0.71749,3.43226 0.48491,1.83895 2.53657,3.38724 2.05894,1.55378 3.96037,1.51568 1.89594,-0.0308 3.10382,-1.63142 z m 1.19317,0.90042 q -1.72398,2.28448 -4.29129,2.49379 -2.56002,0.21479 -5.13552,-1.7288 -2.56822,-1.93811 -3.07114,-4.46436 -0.49564,-2.52076 1.22834,-4.80524 1.72947,-2.29175 4.29499,-2.51382 2.56003,-0.2148 5.13552,1.7288 2.5755,1.94359 3.07114,4.46435 0.49743,2.53353 -1.23204,4.82528 z"
         id="path83690" />
    </g>
  </g>
  <g
     inkscape:groupmode="layer"
     id="layer6"
     inkscape:label="Guide"
     style="display:none">
    <circle
       cx="-97.5"
       cy="97.5"
       transform="rotate(-90)"
       fill="#E9CF49"
       id="circle51468"
       r="68.611862"
       style="fill:#00ffff;stroke-width:0.703711" />
  </g>
</svg>
