<?xml version="1.0" encoding="utf-8"?>
<!-- Generator: Adobe Illustrator 25.0.1, SVG Export Plug-In . SVG Version: 6.00 Build 0)  -->
<svg version="1.1" id="Layer_1" xmlns="http://www.w3.org/2000/svg" xmlns:xlink="http://www.w3.org/1999/xlink" x="0px" y="0px"
	 width="195px" height="195px" viewBox="0 0 195 195" style="enable-background:new 0 0 195 195;" xml:space="preserve">
<style type="text/css">
	.st0{fill:#E9CF49;}
	.st1{fill:#231F20;stroke:#231F20;stroke-width:0.5;stroke-miterlimit:10;}
</style>
<circle class="st0" cx="97.5" cy="97.5" r="97.5"/>
<g>
	<path class="st1" d="M43.04,35.77l1.81-1.29l15.27,10.49l-4.86-17.89l1.81-1.29l5.71,20.99l-1.81,1.29L43.04,35.77z"/>
	<path class="st1" d="M62.46,23.32l10.77-4.2l0.75,1.93l-8.83,3.45l3.12,8.01l8.83-3.45l0.75,1.93l-8.83,3.45l2.04,5.22l8.84-3.45
		l0.75,1.93l-10.77,4.2L62.46,23.32z"/>
	<path class="st1" d="M79.15,17.49l4.66-0.71c4.78-0.72,7.99,1.52,8.54,5.12c0.43,2.87-1.01,5.43-3.99,6.75l7.32,6.99l-2.58,0.39
		l-7.01-6.7l-2.99,0.45l1.15,7.59l-2.05,0.31L79.15,17.49z M90.3,22.22c-0.37-2.43-2.28-3.97-7.06-3.25l-1.73,0.26l1.29,8.5
		l1.73-0.26C89.31,26.75,90.67,24.66,90.3,22.22z"/>
	<path class="st1" d="M106.57,28.88l-1.41,7.55l-2.04-0.38l3.75-20.08l4.34,0.81c4.75,0.89,7.05,4.06,6.38,7.64
		c-0.67,3.58-3.97,5.77-8.72,4.88L106.57,28.88z M108.53,18.39l-1.58,8.45l1.43,0.27c4.75,0.89,6.72-0.64,7.18-3.06
		c0.45-2.42-0.85-4.5-5.6-5.39L108.53,18.39z"/>
	<path class="st1" d="M132.23,23.06c5.05,2.36,5.66,8.04,3.28,13.14c-2.36,5.05-7.13,8.25-12.17,5.89
		c-5.05-2.36-5.71-8.09-3.35-13.14C122.37,23.85,127.18,20.7,132.23,23.06z M124.17,40.23c3.25,1.52,7.5-0.65,9.48-4.89
		c1.98-4.24,0.93-8.92-2.32-10.44s-7.49,0.69-9.47,4.93C119.88,34.07,120.92,38.71,124.17,40.23z"/>
	<path class="st1" d="M145.05,30.59l3.63,3.01c3.72,3.09,4.19,6.98,1.86,9.78c-1.85,2.24-4.72,2.86-7.69,1.52l-0.34,10.12
		l-2.01-1.67l0.34-9.69l-2.33-1.93l-4.9,5.91l-1.6-1.33L145.05,30.59z M148.94,42.06c1.57-1.89,1.45-4.35-2.27-7.43l-1.35-1.12
		l-5.49,6.62l1.35,1.12C144.9,44.33,147.37,43.95,148.94,42.06z"/>
	<path class="st1" d="M158.54,42.55l7.93,10.36l-1.65,1.26l-3.33-4.36l-14.57,11.15l-1.26-1.65l14.58-11.15l-3.33-4.36L158.54,42.55
		z"/>
	<path class="st1" d="M157.29,81.03l-0.88-2.04l5.3-5.06l-3.05-7.08l-7.31,0.41l-0.88-2.04l21.72-1.2l0.88,2.04L157.29,81.03z
		 M160.86,66.71l2.46,5.72l6.52-6.2L160.86,66.71z"/>
	<path class="st1" d="M177.35,78.7l1.87,11.4l-2.05,0.34l-1.54-9.36l-8.48,1.39l1.54,9.36l-2.05,0.34l-1.54-9.36l-7.57,1.24
		l-0.34-2.05L177.35,78.7z"/>
	<path class="st1" d="M179.35,104.66c-0.48,5.55-5.61,8.08-11.22,7.6c-5.55-0.48-10.2-3.86-9.72-9.41c0.48-5.55,5.64-8.14,11.2-7.66
		C175.22,95.67,179.83,99.11,179.35,104.66z M160.45,103c-0.31,3.57,3.19,6.82,7.86,7.22c4.67,0.4,8.7-2.19,9.01-5.77
		c0.31-3.57-3.22-6.79-7.89-7.2C164.76,96.85,160.76,99.42,160.45,103z"/>
	<path class="st1" d="M176.62,119.16l-0.68,1.96l-17.34-6l-3.1,8.96l-1.96-0.68l3.78-10.92L176.62,119.16z"/>
	<path class="st1" d="M170.03,135.45l-0.99,1.83l-17.97-9.71l0.99-1.83L170.03,135.45z"/>
	<path class="st1" d="M160.46,150.28c-3.57,4.28-9.23,3.41-13.55-0.2c-4.28-3.58-6.15-9.01-2.57-13.28
		c3.57-4.28,9.29-3.44,13.57,0.13C162.22,140.55,164.04,146.01,160.46,150.28z M145.92,138.09c-2.3,2.75-1.29,7.42,2.3,10.42
		c3.59,3,8.39,3.19,10.69,0.43c2.3-2.75,1.25-7.42-2.34-10.42C152.98,135.52,148.22,135.34,145.92,138.09z"/>
</g>
</svg>
