<?xml version="1.0" encoding="utf-8"?>
<!-- Generator: Adobe Illustrator 25.0.1, SVG Export Plug-In . SVG Version: 6.00 Build 0)  -->
<svg version="1.1" id="Layer_1" xmlns="http://www.w3.org/2000/svg" xmlns:xlink="http://www.w3.org/1999/xlink" x="0px" y="0px"
	 width="195px" height="195px" viewBox="0 0 195 195" style="enable-background:new 0 0 195 195;" xml:space="preserve">
<style type="text/css">
	.st0{fill:#E9CF49;}
	.st1{fill:#231F20;stroke:#231F20;stroke-width:0.5;stroke-miterlimit:10;}
</style>
<circle class="st0" cx="97.5" cy="97.5" r="97.5"/>
<g>
	<path class="st1" d="M43.04,35.77l1.81-1.29l15.27,10.49l-4.86-17.89l1.81-1.29l5.71,20.99l-1.81,1.29L43.04,35.77z"/>
	<path class="st1" d="M63.24,23.16l1.9-0.84l8.3,18.66l-1.9,0.84L63.24,23.16z"/>
	<path class="st1" d="M71.64,19.64l11.19-2.88l0.52,2.01l-9.19,2.36l2.14,8.32l9.18-2.36l0.52,2.01l-9.19,2.36l1.4,5.43l9.19-2.36
		l0.52,2.01l-11.19,2.88L71.64,19.64z"/>
	<path class="st1" d="M100.43,18.87l-6.62,17.02l-2.19-0.08l-2.6-20.53l2.1,0.08l2.07,16.39l6.26-16.09l2.19,0.08l5.06,16.5
		l3.26-16.2l2.1,0.08l-4.1,20.29l-2.19-0.08L100.43,18.87z"/>
	<path class="st1" d="M123.48,33.35l-3.26,6.95l-1.88-0.88l8.68-18.49l4,1.88c4.37,2.05,5.8,5.71,4.25,9.01
		c-1.55,3.3-5.3,4.59-9.67,2.53L123.48,33.35z M128.02,23.69l-3.66,7.78l1.32,0.62c4.37,2.05,6.67,1.07,7.72-1.16
		c1.04-2.23,0.31-4.57-4.06-6.62L128.02,23.69z"/>
	<path class="st1" d="M149.75,34.11c4.3,3.54,3.49,9.2-0.09,13.55c-3.54,4.3-8.95,6.22-13.26,2.68c-4.3-3.54-3.51-9.26,0.02-13.56
		C140.01,32.43,145.45,30.57,149.75,34.11z M137.69,48.74c2.77,2.28,7.43,1.23,10.4-2.38c2.97-3.62,3.12-8.41,0.34-10.69
		c-2.77-2.28-7.42-1.19-10.4,2.43C135.06,41.71,134.92,46.47,137.69,48.74z"/>
	<path class="st1" d="M160.35,44.68l2.75,3.83c2.82,3.92,2.29,7.81-0.67,9.93c-2.36,1.69-5.29,1.57-7.82-0.48l-2.89,9.7l-1.52-2.12
		l2.78-9.29l-1.76-2.46l-6.23,4.48l-1.21-1.69L160.35,44.68z M161.21,56.75c2-1.44,2.5-3.84-0.32-7.76l-1.02-1.42l-6.98,5.01
		l1.02,1.42C156.73,57.93,159.21,58.19,161.21,56.75z"/>
	<path class="st1" d="M170.35,59.62l5.07,12.01l-1.91,0.81l-2.13-5.05l-16.9,7.14l-0.81-1.91l16.9-7.14l-2.13-5.05L170.35,59.62z"/>
	<path class="st1" d="M176.89,76.82l2.14,11.36l-2.04,0.38l-1.76-9.32l-8.45,1.59l1.76,9.32l-2.04,0.38l-1.76-9.32l-7.54,1.42
		l-0.38-2.04L176.89,76.82z"/>
	<path class="st1" d="M179.49,102.73c-0.35,5.56-5.42,8.21-11.04,7.86c-5.56-0.35-10.29-3.62-9.94-9.18
		c0.35-5.56,5.45-8.27,11.01-7.92C175.15,93.85,179.84,97.17,179.49,102.73z M160.56,101.51c-0.23,3.58,3.35,6.74,8.02,7.04
		c4.67,0.29,8.65-2.4,8.87-5.98s-3.38-6.72-8.05-7.01C164.72,95.27,160.79,97.93,160.56,101.51z"/>
	<path class="st1" d="M177.12,117.28l-0.63,1.98l-17.48-5.58l-2.89,9.03l-1.98-0.63l3.52-11.01L177.12,117.28z"/>
	<path class="st1" d="M170.89,133.76l-0.94,1.85l-18.19-9.29l0.94-1.85L170.89,133.76z"/>
	<path class="st1" d="M161.7,148.76c-3.47,4.36-9.14,3.63-13.55,0.12c-4.36-3.47-6.36-8.85-2.89-13.21
		c3.47-4.36,9.2-3.66,13.56-0.19C163.23,138.99,165.17,144.4,161.7,148.76z M146.88,136.92c-2.23,2.81-1.12,7.45,2.55,10.36
		c3.66,2.92,8.46,2.98,10.69,0.18c2.23-2.81,1.08-7.44-2.59-10.36C153.87,134.18,149.11,134.11,146.88,136.92z"/>
</g>
</svg>
