<?xml version="1.0" encoding="utf-8"?>
<!-- Generator: Adobe Illustrator 25.0.1, SVG Export Plug-In . SVG Version: 6.00 Build 0)  -->
<svg version="1.1" xmlns="http://www.w3.org/2000/svg" xmlns:xlink="http://www.w3.org/1999/xlink" x="0px" y="0px" width="125px"
	 height="125px" viewBox="0 0 125 125" style="enable-background:new 0 0 125 125;" xml:space="preserve">
<style type="text/css">
	.st0{display:none;}
	.st1{display:inline;}
	.st2{fill:#E9CF49;}
	.st3{fill:#1F1F1F;}
	.st4{fill:none;}
	.st5{fill:#231F20;stroke:#231F20;stroke-width:0.5;stroke-miterlimit:10;}
</style>
<g id="BG" class="st0">
	<g class="st1">
		<circle class="st2" cx="62.5" cy="62.5" r="62.5"/>
	</g>
</g>
<g id="play_symbol" class="st0">
	<g class="st1">
		<path class="st3" d="M72,63l-15,8.7V54.3L72,63z"/>
	</g>
</g>
<g id="Pause">
	<rect x="57" y="54.3" class="st3" width="6.4" height="17.3"/>
	<rect x="65.6" y="54.3" class="st3" width="6.4" height="17.3"/>
</g>
<g id="Text" class="st0">
	<g class="st1">
		<path id="SVGID_x5F_1_x5F_" class="st4" d="M62.5,23.1c21.7,0,39.4,17.6,39.4,39.4s-17.6,39.4-39.4,39.4S23.1,84.2,23.1,62.5
			S40.8,23.1,62.5,23.1z"/>
		<text>		<textPath  xlink:href="#SVGID_x5F_1_x5F_" startOffset="0%">
<tspan  class="st5" style="font-family:'MyriadPro-Regular'; font-size:12px;">   REPRODUCIR</tspan>		</textPath>
</text>
	</g>
</g>
<g id="Text_copy">
	<g>
		<g>
			<path class="st5" d="M72.6,16.2c0.5,0,1.2,0.2,2,0.4c1,0.3,1.7,0.7,2,1.2c0.3,0.5,0.4,1.1,0.2,1.8c-0.2,0.7-0.5,1.2-1.1,1.5
				c-0.7,0.4-1.6,0.5-2.6,0.2c-0.3-0.1-0.6-0.2-0.8-0.3l-0.8,3.1l-1-0.3L72.6,16.2z M72.6,20.2c0.2,0.1,0.5,0.2,0.8,0.3
				c1.2,0.3,2.1-0.1,2.4-1.1c0.3-1-0.3-1.7-1.4-2c-0.4-0.1-0.8-0.2-1-0.2L72.6,20.2z"/>
			<path class="st5" d="M77.6,23.4l-1.8,2l-1-0.4l5.7-6.4l1.2,0.5l-0.6,8.5l-1-0.4l0.2-2.7L77.6,23.4z M80.4,23.7l0.2-2.5
				c0-0.6,0.1-1,0.2-1.5l0,0c-0.3,0.4-0.6,0.8-1,1.2l-1.6,1.8L80.4,23.7z"/>
			<path class="st5" d="M86.8,21.7l-2.6,4c-1,1.5-0.7,2.6,0.2,3.2c1,0.7,2.1,0.4,3.1-1.1l2.6-4l0.9,0.6l-2.6,3.9
				c-1.4,2.1-3,2.2-4.5,1.3c-1.4-0.9-1.9-2.4-0.5-4.5l2.6-4L86.8,21.7z"/>
			<path class="st5" d="M88.4,31.1c0.1,0.5,0.5,1.2,1,1.7c0.8,0.7,1.6,0.7,2.2,0.1c0.5-0.6,0.5-1.2,0-2.2c-0.7-1.2-0.8-2.3,0-3.1
				c0.9-0.9,2.3-0.9,3.4,0.2c0.6,0.6,0.9,1.1,1,1.5l-0.8,0.4c-0.1-0.3-0.3-0.8-0.9-1.3c-0.8-0.7-1.6-0.5-1.9-0.1
				c-0.5,0.6-0.4,1.2,0.1,2.2c0.7,1.3,0.7,2.3-0.1,3.1c-0.8,0.9-2.3,1.1-3.7-0.2c-0.6-0.5-1-1.3-1.2-1.8L88.4,31.1z"/>
			<path class="st5" d="M94.5,35.4L92,36.3l-0.7-0.8l8.1-2.8l0.8,1l-4.6,7.2l-0.7-0.9l1.5-2.3L94.5,35.4z M96.8,37l1.3-2.1
				c0.3-0.5,0.6-0.9,0.9-1.2l0,0c-0.5,0.2-0.9,0.4-1.4,0.6l-2.3,0.8L96.8,37z"/>
			<path class="st5" d="M102.9,37.7c0.3,0.4,0.8,1,1.1,1.7c0.5,1,0.7,1.7,0.5,2.4c-0.1,0.5-0.5,1-1,1.3c-0.9,0.5-1.9,0.3-2.5-0.3
				l0,0c0.1,0.7-0.2,1.3-0.9,1.8c-0.9,0.8-1.5,1.3-1.6,1.6L98,45.2c0.1-0.2,0.7-0.7,1.4-1.4c0.9-0.7,1-1.3,0.6-2.2l-0.5-0.9
				l-3.1,1.7l-0.5-0.9L102.9,37.7z M100.2,40.4l0.5,0.9c0.5,1,1.4,1.3,2.2,0.9c0.9-0.5,1-1.4,0.4-2.4c-0.2-0.4-0.5-0.7-0.6-0.9
				L100.2,40.4z"/>
		</g>
	</g>
</g>
</svg>
