<?xml version="1.0" encoding="utf-8"?>
<!-- Generator: Adobe Illustrator 25.0.1, SVG Export Plug-In . SVG Version: 6.00 Build 0)  -->
<svg version="1.1" id="Layer_1" xmlns="http://www.w3.org/2000/svg" xmlns:xlink="http://www.w3.org/1999/xlink" x="0px" y="0px"
	 width="125px" height="125px" viewBox="0 0 125 125" style="enable-background:new 0 0 125 125;" xml:space="preserve">
<style type="text/css">
	.st0{fill:#E9CF49;}
	.st1{fill:#231F20;stroke:#231F20;stroke-width:0.5;stroke-miterlimit:10;}
	.st2{fill:#1F1F1F;}
</style>
<g>
	<circle class="st0" cx="62.5" cy="62.5" r="62.5"/>
</g>
<g>
	<path class="st1" d="M71.83,21.02l-0.79,3.01l-0.81-0.21l2.09-8l1.73,0.45c1.89,0.5,2.73,1.84,2.36,3.27s-1.77,2.22-3.66,1.72
		L71.83,21.02z M72.93,16.84l-0.88,3.37l0.57,0.15c1.89,0.5,2.73-0.07,2.99-1.03s-0.21-1.84-2.11-2.34L72.93,16.84z"/>
	<path class="st1" d="M81.62,27.89l-0.82-0.36l0.18-2.96l-2.85-1.26l-2.06,2.13l-0.82-0.36l6.12-6.33l0.82,0.36L81.62,27.89z
		 M78.74,22.65l2.3,1.02l0.23-3.64L78.74,22.65z"/>
	<path class="st1" d="M91.35,24.51l0.69,0.47l-2.34,3.42c-1.27,1.86-3.19,2.96-5.05,1.69c-1.86-1.27-1.55-3.47-0.28-5.33l2.34-3.42
		l0.69,0.47l-2.13,3.12c-1.27,1.86-1.5,3.55-0.15,4.47c1.34,0.92,2.82,0.08,4.09-1.78L91.35,24.51z"/>
	<path class="st1" d="M92.32,31.35c-0.66-1.01-1.33-2.08-0.16-3.31c0.94-0.98,2.32-1.05,3.34-0.07c0.83,0.8,0.92,1.9,0.54,2.96
		l-0.84-0.22c0.32-0.86,0.22-1.63-0.29-2.12c-0.54-0.51-1.45-0.67-2.14,0.05c-0.71,0.75-0.24,1.53,0.27,2.34
		c0.66,1.01,1.33,2.08,0.16,3.31c-1.02,1.07-2.58,0.8-3.58-0.16c-0.92-0.88-1.01-1.98-0.63-3.04l0.84,0.22
		c-0.32,0.86-0.22,1.63,0.38,2.21c0.55,0.52,1.62,0.98,2.38,0.19C93.3,32.94,92.83,32.15,92.32,31.35z"/>
	<path class="st1" d="M96.02,41.53l-0.54-0.72l1.6-2.5l-1.88-2.49l-2.84,0.87l-0.54-0.72l8.42-2.57l0.54,0.72L96.02,41.53z
		 M96.04,35.55l1.52,2.01l1.96-3.07L96.04,35.55z"/>
	<path class="st1" d="M103.56,38.19l0.89,1.69c0.91,1.73,0.47,3.26-0.83,3.95c-1.04,0.55-2.21,0.33-3.11-0.63l-1.71,3.73l-0.49-0.94
		l1.64-3.57l-0.57-1.08l-2.75,1.44l-0.39-0.74L103.56,38.19z M103.22,43.08c0.88-0.46,1.22-1.4,0.31-3.13l-0.33-0.63l-3.08,1.62
		l0.33,0.63C101.36,43.3,102.34,43.54,103.22,43.08z"/>
</g>
<g>
	<g>
		<rect x="57" y="54.34" class="st2" width="7.38" height="17.32"/>
	</g>
	<g>
		<rect x="66.94" y="54.34" class="st2" width="7.38" height="17.32"/>
	</g>
</g>
</svg>
