<?xml version="1.0" encoding="utf-8"?>
<!-- Generator: Adobe Illustrator 25.0.1, SVG Export Plug-In . SVG Version: 6.00 Build 0)  -->
<svg version="1.1" xmlns="http://www.w3.org/2000/svg" xmlns:xlink="http://www.w3.org/1999/xlink" x="0px" y="0px"
	 viewBox="0 0 125 125" enable-background="new 0 0 125 125" xml:space="preserve">
<g id="Layer_1">
	<circle fill="#E9CF49" cx="62.5" cy="62.5" r="62.5"/>
	<path fill="#1F1F1F" d="M72,63l-15,8.7V54.3L72,63z"/>
</g>
<g id="Layer_2">
	<g>
		<path d="M63.9,23.4l2.3-13.7l4.7,0.8c2.5,0.4,4.2,2.8,3.8,5.3c-0.4,2.5-2.8,4.2-5.3,3.8L67,19.2l-0.8,4.6L63.9,23.4z M72.3,15.4
			c0.2-1.2-0.6-2.3-1.8-2.5l-2.3-0.4l-0.7,4.3l2.3,0.4C71,17.4,72.1,16.6,72.3,15.4z"/>
		<path d="M81.5,28.5l-7.7-3.4l5.7-12.6l2.2,1L77,23.9l5.5,2.5L81.5,28.5z"/>
		<path d="M88.6,33.8l1-2.3l-3.4-2.7l-2.1,1.4l-1.9-1.5l11.9-8.2l1.9,1.5l-5.5,13.3L88.6,33.8z M88.2,27.2l2.3,1.8l2-4.7L88.2,27.2z
			"/>
		<path d="M91.4,36.6l3.7-3l4.5-8.9l1.5,1.9l-3.2,6.3l6.8-1.8l1.5,1.9l-9.7,2.6l-3.6,3L91.4,36.6z"/>
	</g>
</g>
</svg>
