<?xml version="1.0" encoding="utf-8"?>
<!-- Generator: Adobe Illustrator 25.0.1, SVG Export Plug-In . SVG Version: 6.00 Build 0)  -->
<svg version="1.1" id="Layer_1" xmlns="http://www.w3.org/2000/svg" xmlns:xlink="http://www.w3.org/1999/xlink" x="0px" y="0px"
	 width="125px" height="125px" viewBox="0 0 125 125" style="enable-background:new 0 0 125 125;" xml:space="preserve">
<style type="text/css">
	.st0{fill:#E9CF49;}
	.st1{fill:#231F20;stroke:#231F20;stroke-width:0.5;stroke-miterlimit:10;}
	.st2{fill:#1F1F1F;}
</style>
<g>
	<circle class="st0" cx="62.5" cy="62.5" r="62.5"/>
</g>
<g>
	<path class="st1" d="M71.83,21.02l-0.79,3.01l-0.81-0.21l2.09-8l1.73,0.45c1.89,0.5,2.73,1.84,2.36,3.27s-1.77,2.22-3.66,1.72
		L71.83,21.02z M72.93,16.84l-0.88,3.37l0.57,0.15c1.89,0.5,2.73-0.07,2.99-1.03s-0.21-1.84-2.11-2.34L72.93,16.84z"/>
	<path class="st1" d="M78.79,17.67l0.78,0.32l-2.85,6.86l3.54,1.47l-0.32,0.78l-4.32-1.8L78.79,17.67z"/>
	<path class="st1" d="M86.06,30.76l-0.77-0.47l0.58-2.91l-2.66-1.63l-2.33,1.84l-0.77-0.47l6.92-5.45l0.77,0.47L86.06,30.76z
		 M83.91,25.18l2.15,1.32l0.72-3.57L83.91,25.18z"/>
	<path class="st1" d="M89.95,29.79l1.6-5.14l0.69,0.59l-1.25,4l3.76-1.85l0.69,0.59l-4.9,2.39l-2.12,2.48l-0.64-0.55L89.95,29.79z"
		/>
</g>
<g>
	<path class="st2" d="M72,63l-15,8.66V54.34L72,63z"/>
</g>
</svg>
