<?xml version="1.0" encoding="utf-8"?>
<!-- Generator: Adobe Illustrator 25.0.1, SVG Export Plug-In . SVG Version: 6.00 Build 0)  -->
<svg version="1.1" id="Layer_1" xmlns="http://www.w3.org/2000/svg" xmlns:xlink="http://www.w3.org/1999/xlink" x="0px" y="0px"
	 width="125px" height="125px" viewBox="0 0 125 125" style="enable-background:new 0 0 125 125;" xml:space="preserve">
<style type="text/css">
	.st0{fill:#E9CF49;}
	.st1{fill:#231F20;stroke:#231F20;stroke-width:0.5;stroke-miterlimit:10;}
	.st2{fill:#1F1F1F;}
</style>
<g>
	<circle class="st0" cx="62.5" cy="62.5" r="62.5"/>
</g>
<g>
	<path class="st1" d="M72.35,15.81l1.84,0.49c1.89,0.5,2.72,1.85,2.34,3.28c-0.3,1.14-1.25,1.85-2.57,1.86l1.59,3.77l-1.02-0.27
		l-1.52-3.62l-1.18-0.31l-0.8,3l-0.81-0.22L72.35,15.81z M75.73,19.36c0.26-0.96-0.21-1.84-2.1-2.34l-0.68-0.18l-0.89,3.36
		l0.68,0.18C74.63,20.88,75.47,20.33,75.73,19.36z"/>
	<path class="st1" d="M79.22,17.82l4.3,1.85l-0.33,0.77l-3.53-1.52l-1.38,3.19l3.53,1.52l-0.33,0.77l-3.53-1.52l-0.9,2.08l3.53,1.52
		l-0.33,0.77l-4.3-1.85L79.22,17.82z"/>
	<path class="st1" d="M83.29,25.41l-1.62,2.66l-0.72-0.44l4.3-7.06l1.53,0.93c1.67,1.02,2.09,2.55,1.32,3.81s-2.33,1.62-4,0.6
		L83.29,25.41z M85.54,21.72l-1.81,2.97l0.5,0.31c1.67,1.02,2.64,0.72,3.16-0.13c0.52-0.85,0.32-1.83-1.35-2.84L85.54,21.72z"/>
	<path class="st1" d="M90.98,24.22l1.47,1.22c1.51,1.25,1.69,2.82,0.75,3.96c-0.75,0.9-1.91,1.16-3.11,0.61l-0.14,4.09l-0.81-0.67
		l0.14-3.92l-0.94-0.78l-1.98,2.39l-0.65-0.54L90.98,24.22z M92.55,28.86c0.64-0.77,0.59-1.76-0.92-3.01l-0.54-0.45l-2.22,2.68
		l0.54,0.45C90.91,29.78,91.91,29.63,92.55,28.86z"/>
	<path class="st1" d="M98.71,31.36c1.47,1.71,0.75,3.91-0.97,5.4c-1.71,1.47-4,1.86-5.47,0.15c-1.47-1.71-0.76-3.94,0.95-5.41
		C94.94,30.01,97.24,29.65,98.71,31.36z M92.89,36.36c0.95,1.1,2.88,1.01,4.31-0.23c1.44-1.24,1.83-3.14,0.88-4.24
		c-0.95-1.1-2.88-0.99-4.32,0.25C92.33,33.37,91.94,35.26,92.89,36.36z"/>
	<path class="st1" d="M102.02,35.75l0.87,1.45c1.46,2.45,0.49,4.46-1.46,5.62c-1.94,1.16-4.17,1.06-5.63-1.39l-0.87-1.45
		L102.02,35.75z M102.16,37.64l-0.43-0.72l-5.63,3.36L96.52,41c1.08,1.81,2.73,2.13,4.47,1.09
		C102.75,41.04,103.24,39.45,102.16,37.64z"/>
	<path class="st1" d="M107.89,47.81l0.3,0.78l-3.87,1.47c-2.11,0.8-4.31,0.61-5.11-1.5s0.71-3.73,2.82-4.54l3.87-1.47l0.3,0.79
		l-3.53,1.34c-2.11,0.8-3.26,2.06-2.68,3.58c0.58,1.51,2.27,1.68,4.38,0.88L107.89,47.81z"/>
	<path class="st1" d="M104.85,52.21c-2.01,0.37-3.16,1.7-2.88,3.23c0.18,1.02,1.01,1.74,2.22,2.04l-0.29,0.8
		c-1.39-0.34-2.49-1.19-2.76-2.68c-0.41-2.24,1.33-3.82,3.55-4.22c2.24-0.41,4.41,0.45,4.82,2.7c0.27,1.49-0.45,2.67-1.64,3.48
		l-0.56-0.64c1.03-0.7,1.55-1.67,1.36-2.69C108.41,52.68,106.88,51.84,104.85,52.21z"/>
	<path class="st1" d="M110.05,59.56l0.04,0.84l-8.25,0.43l-0.04-0.84L110.05,59.56z"/>
	<path class="st1" d="M110.21,62.88l-0.11,1.9c-0.12,1.95-1.28,3.04-2.75,2.95c-1.17-0.07-2.06-0.86-2.34-2.15l-3.38,2.31l0.06-1.05
		l3.25-2.21l0.07-1.22l-3.1-0.19l0.05-0.84L110.21,62.88z M107.39,66.9c0.99,0.06,1.77-0.57,1.88-2.52l0.04-0.71l-3.47-0.21
		l-0.04,0.71C105.69,66.12,106.4,66.84,107.39,66.9z"/>
</g>
<g>
	<path class="st2" d="M72,63l-15,8.66V54.34L72,63z"/>
</g>
</svg>
