<?xml version="1.0" encoding="utf-8"?>
<!-- Generator: Adobe Illustrator 25.0.1, SVG Export Plug-In . SVG Version: 6.00 Build 0)  -->
<svg version="1.1" xmlns="http://www.w3.org/2000/svg" xmlns:xlink="http://www.w3.org/1999/xlink" x="0px" y="0px" width="125px"
	 height="125px" viewBox="0 0 125 125" style="enable-background:new 0 0 125 125;" xml:space="preserve">
<style type="text/css">
	.st0{display:none;}
	.st1{display:inline;}
	.st2{fill:#E9CF49;}
	.st3{fill:#1F1F1F;}
	.st4{display:inline;fill:#1F1F1F;}
	.st5{fill:#231F20;stroke:#231F20;stroke-width:0.5;stroke-miterlimit:10;}
</style>
<g id="BG" class="st0">
	<g class="st1">
		<circle class="st2" cx="62.5" cy="62.5" r="62.5"/>
	</g>
</g>
<g id="play_symbol">
	<g>
		<path class="st3" d="M72,63l-15,8.7V54.3L72,63z"/>
	</g>
</g>
<g id="Pause" class="st0">
	<rect x="57" y="54.3" class="st4" width="6.4" height="17.3"/>
	<rect x="65.6" y="54.3" class="st4" width="6.4" height="17.3"/>
</g>
<g id="Text">
	<g>
		<g>
			<path class="st5" d="M72.6,16.2c0.5,0,1.3,0.2,2,0.4c1.1,0.3,1.7,0.7,2.1,1.2c0.3,0.5,0.4,1,0.2,1.6c-0.3,1-1.1,1.5-2,1.6l0,0
				c0.5,0.4,0.8,1,0.7,1.9c0,1.2-0.1,2,0,2.3l-1-0.3c-0.1-0.3-0.1-1,0-2c0.1-1.1-0.2-1.7-1.2-1.9l-0.9-0.3l-0.9,3.4l-1-0.3
				L72.6,16.2z M72.6,20l1,0.3c1.1,0.3,1.9-0.1,2.2-1c0.3-1-0.3-1.6-1.4-1.9c-0.5-0.1-0.8-0.2-1-0.2L72.6,20z"/>
			<path class="st5" d="M81.8,23.8l-2.9-1.3l-1.2,2.7l3.2,1.4l-0.4,0.8l-4.2-1.8l3.2-7.4l4,1.8l-0.4,0.8l-3-1.3l-1,2.3l2.9,1.3
				L81.8,23.8z"/>
			<path class="st5" d="M85.8,21.2c0.5,0.2,1.1,0.5,1.8,0.9c0.9,0.5,1.4,1.2,1.6,1.8c0.2,0.6,0.1,1.2-0.3,1.8
				c-0.4,0.6-0.9,1-1.4,1.1c-0.8,0.2-1.7,0-2.6-0.6c-0.3-0.2-0.5-0.3-0.7-0.5l-1.7,2.7l-0.9-0.6L85.8,21.2z M84.6,25
				c0.2,0.2,0.4,0.3,0.7,0.5c1.1,0.7,2,0.6,2.6-0.4c0.6-0.9,0.2-1.7-0.8-2.4c-0.4-0.2-0.7-0.4-0.9-0.5L84.6,25z"/>
			<path class="st5" d="M91.9,25.3c0.5,0.3,1.1,0.7,1.6,1.2c0.8,0.7,1.2,1.4,1.3,2c0.1,0.5-0.1,1.1-0.5,1.6
				c-0.7,0.8-1.7,0.9-2.5,0.6l0,0c0.3,0.6,0.2,1.3-0.2,2c-0.5,1-0.9,1.7-1,2.1L89.8,34c0-0.3,0.4-0.9,0.9-1.8c0.6-1,0.5-1.6-0.2-2.3
				l-0.7-0.6L87.4,32l-0.8-0.7L91.9,25.3z M90.2,28.7l0.8,0.7c0.8,0.7,1.8,0.7,2.4,0c0.7-0.8,0.4-1.6-0.4-2.4
				c-0.4-0.3-0.7-0.5-0.8-0.6L90.2,28.7z"/>
			<path class="st5" d="M98.7,38.2c-2.2,1.7-4.4,1.3-5.7-0.3c-1.3-1.7-1-3.9,0.9-5.4c2-1.6,4.3-1.4,5.7,0.3
				C101,34.5,100.6,36.7,98.7,38.2z M94.7,33.3c-1.3,1.1-2,2.8-0.9,4.1c1,1.3,2.8,1.1,4.2-0.1c1.3-1,2-2.7,0.9-4.1
				C97.9,31.9,96.1,32.2,94.7,33.3z"/>
			<path class="st5" d="M103.1,37.9c0.4,0.5,0.8,1.2,1.2,1.9c0.7,1.3,0.9,2.4,0.6,3.4c-0.3,0.9-0.9,1.7-2,2.4
				c-1.2,0.6-2.3,0.7-3.3,0.4c-1-0.3-2-1.2-2.7-2.6c-0.3-0.7-0.6-1.2-0.8-1.7L103.1,37.9z M97.2,42.1c0.1,0.3,0.2,0.6,0.4,1
				c1,2,2.7,2.5,4.6,1.5c1.7-0.9,2.3-2.4,1.3-4.3c-0.2-0.5-0.5-0.8-0.7-1L97.2,42.1z"/>
			<path class="st5" d="M107.5,47.1l-4.6,1.4c-1.7,0.5-2.2,1.5-1.9,2.5c0.3,1.2,1.3,1.7,3,1.2l4.6-1.4l0.3,1l-4.5,1.3
				c-2.4,0.7-3.7-0.3-4.2-1.9c-0.5-1.6,0.1-3.1,2.5-3.8l4.6-1.4L107.5,47.1z"/>
			<path class="st5" d="M102.2,61.2c-0.2-0.4-0.5-1.1-0.6-2.1c-0.2-2.3,1-4.1,3.6-4.4c2.5-0.3,4.4,1.2,4.7,3.7c0.1,1,0,1.7-0.1,1.9
				l-0.9-0.2c0.1-0.4,0.2-1,0.2-1.7c-0.2-1.9-1.5-3-3.7-2.8c-2,0.2-3.1,1.5-2.9,3.4c0.1,0.6,0.3,1.3,0.5,1.7L102.2,61.2z"/>
			<path class="st5" d="M109.9,63.4l-8.1-0.1l0-1l8.1,0.1L109.9,63.4z"/>
			<path class="st5" d="M109.8,65.9c0,0.5,0,1.3-0.1,2c-0.1,1.1-0.4,1.8-0.9,2.2c-0.4,0.4-1,0.5-1.6,0.4c-1.1-0.1-1.7-0.9-1.9-1.8
				l0,0c-0.3,0.6-0.9,0.9-1.8,1c-1.2,0.1-2,0.2-2.3,0.4l0.1-1.1c0.2-0.1,1-0.2,2-0.3c1.1-0.1,1.6-0.5,1.8-1.4l0.1-1l-3.5-0.4l0.1-1
				L109.8,65.9z M106,66.5l-0.1,1.1c-0.1,1.1,0.4,1.9,1.3,2c1,0.1,1.6-0.6,1.7-1.7c0.1-0.5,0.1-0.9,0-1L106,66.5z"/>
		</g>
	</g>
</g>
<g id="Text_copy" class="st0">
	<g class="st1">
		<g>
			<path class="st5" d="M72.6,16.2c0.5,0,1.2,0.2,2,0.4c1,0.3,1.7,0.7,2,1.2c0.3,0.5,0.4,1.1,0.2,1.8c-0.2,0.7-0.5,1.2-1.1,1.5
				c-0.7,0.4-1.6,0.5-2.6,0.2c-0.3-0.1-0.6-0.2-0.8-0.3l-0.8,3.1l-1-0.3L72.6,16.2z M72.6,20.2c0.2,0.1,0.5,0.2,0.8,0.3
				c1.2,0.3,2.1-0.1,2.4-1.1c0.3-1-0.3-1.7-1.4-2c-0.4-0.1-0.8-0.2-1-0.2L72.6,20.2z"/>
			<path class="st5" d="M77.6,23.4l-1.8,2l-1-0.4l5.7-6.4l1.2,0.5l-0.6,8.5l-1-0.4l0.2-2.7L77.6,23.4z M80.4,23.7l0.2-2.5
				c0-0.6,0.1-1,0.2-1.5l0,0c-0.3,0.4-0.6,0.8-1,1.2l-1.6,1.8L80.4,23.7z"/>
			<path class="st5" d="M86.8,21.7l-2.6,4c-1,1.5-0.7,2.6,0.2,3.2c1,0.7,2.1,0.4,3.1-1.1l2.6-4l0.9,0.6l-2.6,3.9
				c-1.4,2.1-3,2.2-4.5,1.3c-1.4-0.9-1.9-2.4-0.5-4.5l2.6-4L86.8,21.7z"/>
			<path class="st5" d="M88.4,31.1c0.1,0.5,0.5,1.2,1,1.7c0.8,0.7,1.6,0.7,2.2,0.1c0.5-0.6,0.5-1.2,0-2.2c-0.7-1.2-0.8-2.3,0-3.1
				c0.9-0.9,2.3-0.9,3.4,0.2c0.6,0.6,0.9,1.1,1,1.5l-0.8,0.4c-0.1-0.3-0.3-0.8-0.9-1.3c-0.8-0.7-1.6-0.5-1.9-0.1
				c-0.5,0.6-0.4,1.2,0.1,2.2c0.7,1.3,0.7,2.3-0.1,3.1c-0.8,0.9-2.3,1.1-3.7-0.2c-0.6-0.5-1-1.3-1.2-1.8L88.4,31.1z"/>
			<path class="st5" d="M94.5,35.4L92,36.3l-0.7-0.8l8.1-2.8l0.8,1l-4.6,7.2l-0.7-0.9l1.5-2.3L94.5,35.4z M96.8,37l1.3-2.1
				c0.3-0.5,0.6-0.9,0.9-1.2l0,0c-0.5,0.2-0.9,0.4-1.4,0.6l-2.3,0.8L96.8,37z"/>
			<path class="st5" d="M102.9,37.7c0.3,0.4,0.8,1,1.1,1.7c0.5,1,0.7,1.7,0.5,2.4c-0.1,0.5-0.5,1-1,1.3c-0.9,0.5-1.9,0.3-2.5-0.3
				l0,0c0.1,0.7-0.2,1.3-0.9,1.8c-0.9,0.8-1.5,1.3-1.6,1.6L98,45.2c0.1-0.2,0.7-0.7,1.4-1.4c0.9-0.7,1-1.3,0.6-2.2l-0.5-0.9
				l-3.1,1.7l-0.5-0.9L102.9,37.7z M100.2,40.4l0.5,0.9c0.5,1,1.4,1.3,2.2,0.9c0.9-0.5,1-1.4,0.4-2.4c-0.2-0.4-0.5-0.7-0.6-0.9
				L100.2,40.4z"/>
		</g>
	</g>
</g>
</svg>
